<svg xmlns="http://www.w3.org/2000/svg" enable-background="new 0 0 5500 4000" viewBox="0 0 5500 4000"><path fill="#85c74c" d="M2184.7 3328.72c-.06 0-.12 0-.18 0-3.34-.12-6.68-.25-10.03-.4-2.76-.12-4.9-2.45-4.78-5.21.12-2.76 2.47-4.92 5.21-4.78 3.32.14 6.64.27 9.96.39 2.76.1 4.92 2.42 4.82 5.18C2189.59 3326.59 2187.37 3328.72 2184.7 3328.72zM2144.77 3326.73c-.11 0-.21 0-.32-.01-6.6-.42-13.32-.89-19.97-1.4-2.75-.21-4.81-2.61-4.6-5.37.21-2.75 2.62-4.81 5.37-4.6 6.61.51 13.28.97 19.84 1.39 2.76.17 4.85 2.55 4.67 5.3C2149.59 3324.7 2147.39 3326.73 2144.77 3326.73zM2095.04 3322.76c-.16 0-.32-.01-.49-.02-6.61-.64-13.31-1.33-19.92-2.05-2.75-.3-4.73-2.77-4.42-5.52.3-2.75 2.77-4.72 5.52-4.42 6.56.72 13.22 1.41 19.79 2.04 2.75.26 4.76 2.71 4.5 5.46C2099.76 3320.83 2097.59 3322.76 2095.04 3322.76zM2045.46 3317.16c-.21 0-.43-.01-.65-.04-6.59-.85-13.26-1.76-19.84-2.7-2.73-.39-4.63-2.92-4.24-5.66.39-2.73 2.92-4.65 5.66-4.24 6.54.93 13.17 1.83 19.71 2.68 2.74.35 4.67 2.86 4.32 5.6C2050.09 3315.32 2047.94 3317.16 2045.46 3317.16zM1996.08 3309.95c-.27 0-.54-.02-.81-.07-6.56-1.07-13.2-2.19-19.75-3.34-2.72-.48-4.54-3.07-4.06-5.79.48-2.72 3.07-4.53 5.79-4.06 6.51 1.14 13.11 2.26 19.62 3.32 2.73.44 4.58 3.01 4.13 5.74C2000.61 3308.2 1998.49 3309.95 1996.08 3309.95zM1946.95 3301.15c-.32 0-.64-.03-.96-.09-6.5-1.27-13.1-2.6-19.63-3.97-2.7-.56-4.44-3.21-3.87-5.92.56-2.7 3.21-4.44 5.92-3.87 6.49 1.35 13.05 2.68 19.51 3.94 2.71.53 4.48 3.16 3.95 5.87C1951.39 3299.5 1949.29 3301.15 1946.95 3301.15zM1898.11 3290.81c-.37 0-.74-.04-1.12-.13-6.48-1.48-13.04-3.02-19.5-4.58-2.68-.65-4.33-3.35-3.69-6.03.65-2.68 3.35-4.33 6.04-3.69 6.42 1.55 12.94 3.08 19.38 4.56 2.69.62 4.38 3.3 3.76 5.99C1902.46 3289.24 1900.4 3290.81 1898.11 3290.81zM1849.62 3278.92c-.42 0-.84-.05-1.27-.16-6.45-1.69-12.96-3.44-19.35-5.19-2.66-.73-4.23-3.48-3.49-6.15s3.48-4.23 6.15-3.5c6.35 1.75 12.82 3.48 19.23 5.16 2.67.7 4.27 3.43 3.57 6.1C1853.87 3277.44 1851.84 3278.92 1849.62 3278.92zM1801.51 3265.53c-.47 0-.95-.07-1.42-.21-6.38-1.88-12.83-3.83-19.18-5.79-2.64-.82-4.12-3.61-3.3-6.25.82-2.64 3.62-4.11 6.25-3.3 6.31 1.95 12.72 3.89 19.06 5.76 2.65.78 4.16 3.56 3.38 6.21C1805.67 3264.12 1803.67 3265.53 1801.51 3265.53zM1753.84 3250.64c-.52 0-1.05-.08-1.57-.25-6.29-2.07-12.68-4.22-19-6.39-2.61-.9-4-3.74-3.11-6.35.9-2.61 3.74-4 6.35-3.11 6.27 2.16 12.63 4.29 18.88 6.35 2.62.86 4.05 3.69 3.18 6.31C1757.9 3249.31 1755.94 3250.64 1753.84 3250.64zM1706.65 3234.27c-.57 0-1.15-.1-1.71-.3-6.25-2.28-12.57-4.62-18.79-6.98-2.58-.98-3.88-3.86-2.91-6.45.98-2.58 3.86-3.89 6.45-2.91 6.18 2.34 12.47 4.67 18.68 6.94 2.59.95 3.93 3.82 2.99 6.41C1710.61 3233.01 1708.69 3234.27 1706.65 3234.27zM1659.97 3216.44c-.62 0-1.25-.12-1.85-.36-6.18-2.47-12.42-5.01-18.57-7.56-2.55-1.06-3.76-3.98-2.71-6.53 1.06-2.55 3.98-3.76 6.53-2.71 6.11 2.53 12.32 5.06 18.45 7.51 2.56 1.03 3.81 3.94 2.79 6.5C1663.84 3215.25 1661.96 3216.44 1659.97 3216.44zM1613.88 3197.16c-.67 0-1.35-.13-2-.42-6.1-2.66-12.26-5.4-18.33-8.14-2.52-1.14-3.64-4.1-2.5-6.62 1.14-2.52 4.1-3.63 6.62-2.5 6.03 2.72 12.15 5.44 18.21 8.09 2.53 1.11 3.69 4.05 2.58 6.58C1617.64 3196.04 1615.8 3197.16 1613.88 3197.16zM1568.39 3176.45c-.72 0-1.45-.16-2.14-.48-6.01-2.85-12.09-5.79-18.07-8.71-2.48-1.21-3.5-4.21-2.29-6.69 1.22-2.48 4.21-3.51 6.69-2.29 5.94 2.91 11.98 5.82 17.95 8.66 2.49 1.18 3.56 4.17 2.37 6.66C1572.06 3175.39 1570.26 3176.45 1568.39 3176.45zM1523.58 3154.31c-.77 0-1.55-.18-2.28-.55-5.95-3.05-11.93-6.18-17.78-9.28-2.44-1.29-3.37-4.32-2.08-6.76 1.29-2.44 4.32-3.37 6.76-2.08 5.82 3.08 11.76 6.19 17.67 9.22 2.46 1.26 3.42 4.28 2.16 6.73C1527.15 3153.32 1525.4 3154.31 1523.58 3154.31zM1479.49 3130.75c-.82 0-1.65-.2-2.42-.63-5.8-3.22-11.68-6.53-17.48-9.85-2.4-1.37-3.23-4.43-1.86-6.82 1.37-2.4 4.42-3.23 6.82-1.86 5.76 3.29 11.6 6.59 17.37 9.79 2.41 1.34 3.29 4.38 1.95 6.8C1482.95 3129.82 1481.25 3130.75 1479.49 3130.75zM4858.37 3111.53c-.06 0-.12 0-.18 0-6.67-.24-13.41-.51-20-.82-2.76-.13-4.89-2.47-4.76-5.23.13-2.76 2.5-4.86 5.23-4.76 6.56.31 13.26.58 19.89.81 2.76.1 4.92 2.41 4.82 5.17C4863.26 3109.41 4861.05 3111.53 4858.37 3111.53zM4808.54 3109.08c-.11 0-.21 0-.32-.01-6.63-.42-13.34-.88-19.95-1.38-2.75-.21-4.82-2.61-4.61-5.36.21-2.75 2.63-4.81 5.36-4.61 6.57.49 13.24.96 19.83 1.37 2.76.17 4.85 2.55 4.67 5.31C4813.36 3107.04 4811.16 3109.08 4808.54 3109.08zM1436.17 3105.79c-.87 0-1.76-.23-2.56-.71-5.76-3.45-11.53-6.95-17.16-10.41-2.35-1.45-3.08-4.53-1.63-6.88 1.45-2.35 4.53-3.08 6.88-1.63 5.58 3.44 11.32 6.92 17.04 10.34 2.37 1.42 3.14 4.49 1.73 6.86C1439.53 3104.92 1437.87 3105.79 1436.17 3105.79zM4758.83 3105.19c-.16 0-.31-.01-.47-.02-6.62-.62-13.31-1.28-19.9-1.97-2.75-.29-4.74-2.75-4.45-5.5.29-2.75 2.76-4.73 5.5-4.45 6.54.69 13.2 1.35 19.77 1.96 2.75.26 4.77 2.69 4.52 5.44C4763.57 3103.25 4761.39 3105.19 4758.83 3105.19zM4709.28 3099.81c-.21 0-.42-.01-.62-.04-6.64-.83-13.31-1.7-19.82-2.6-2.73-.38-4.65-2.9-4.27-5.64s2.89-4.65 5.64-4.27c6.47.89 13.1 1.76 19.7 2.58 2.74.34 4.69 2.84 4.34 5.58C4713.92 3097.96 4711.76 3099.81 4709.28 3099.81zM4659.92 3092.84c-.26 0-.52-.02-.79-.06-6.61-1.05-13.25-2.14-19.73-3.26-2.72-.47-4.55-3.06-4.08-5.78.47-2.72 3.06-4.54 5.77-4.08 6.43 1.11 13.03 2.2 19.59 3.24 2.73.43 4.59 2.99 4.16 5.72C4664.47 3091.09 4662.34 3092.84 4659.92 3092.84zM4610.84 3084.21c-.32 0-.64-.03-.96-.09-6.52-1.27-13.12-2.6-19.6-3.95-2.7-.57-4.44-3.21-3.87-5.92.57-2.7 3.21-4.44 5.92-3.87 6.44 1.35 12.99 2.67 19.46 3.92 2.71.53 4.48 3.15 3.96 5.86C4615.28 3082.55 4613.19 3084.21 4610.84 3084.21zM1393.68 3079.44c-.93 0-1.86-.26-2.7-.8-5.6-3.6-11.26-7.29-16.81-10.96-2.3-1.52-2.93-4.63-1.41-6.93 1.52-2.3 4.63-2.93 6.93-1.41 5.51 3.65 11.13 7.31 16.7 10.89 2.32 1.49 2.99 4.59 1.5 6.91C1396.94 3078.63 1395.33 3079.44 1393.68 3079.44zM4562.1 3073.82c-.38 0-.76-.04-1.14-.13-6.48-1.51-13.02-3.08-19.44-4.68-2.68-.67-4.31-3.38-3.64-6.06.67-2.68 3.38-4.32 6.06-3.64 6.38 1.59 12.87 3.15 19.3 4.65 2.69.63 4.36 3.31 3.74 6C4566.43 3072.26 4564.37 3073.82 4562.1 3073.82zM4513.79 3061.59c-.44 0-.88-.06-1.33-.18-6.45-1.77-12.93-3.61-19.25-5.45-2.65-.77-4.17-3.55-3.4-6.2.77-2.65 3.56-4.17 6.2-3.4 6.27 1.83 12.69 3.65 19.09 5.41 2.66.73 4.23 3.48 3.5 6.15C4518 3060.14 4515.99 3061.59 4513.79 3061.59zM1352.08 3051.7c-.98 0-1.97-.29-2.84-.89-5.47-3.78-11-7.65-16.44-11.52-2.25-1.6-2.78-4.72-1.18-6.97 1.6-2.25 4.72-2.78 6.97-1.18 5.4 3.84 10.89 7.69 16.33 11.44 2.27 1.57 2.84 4.68 1.27 6.96C1355.23 3050.95 1353.67 3051.7 1352.08 3051.7zM4466.01 3047.42c-.5 0-1.02-.08-1.52-.24-6.33-2.02-12.73-4.13-19.01-6.26-2.62-.89-4.02-3.72-3.13-6.34.88-2.62 3.72-4.02 6.34-3.13 6.23 2.11 12.57 4.2 18.85 6.2 2.63.84 4.08 3.65 3.24 6.28C4470.1 3046.07 4468.13 3047.42 4466.01 3047.42zM4418.88 3031.22c-.58 0-1.16-.1-1.73-.31-6.26-2.31-12.56-4.7-18.72-7.1-2.57-1-3.85-3.9-2.84-6.47 1-2.57 3.9-3.85 6.47-2.84 6.1 2.38 12.35 4.74 18.55 7.03 2.59.96 3.92 3.83 2.96 6.42C4422.83 3029.97 4420.91 3031.22 4418.88 3031.22zM1311.43 3022.59c-1.04 0-2.08-.32-2.98-.98-5.37-3.98-10.76-8.04-16.04-12.07-2.2-1.68-2.62-4.81-.94-7.01 1.68-2.19 4.81-2.62 7.01-.94 5.24 4 10.6 8.03 15.93 11.99 2.22 1.64 2.68 4.78 1.04 6.99C1314.47 3021.9 1312.96 3022.59 1311.43 3022.59zM4372.52 3012.91c-.65 0-1.31-.13-1.94-.4-6.14-2.59-12.32-5.28-18.38-7.97-2.52-1.12-3.66-4.08-2.53-6.6 1.12-2.52 4.08-3.66 6.6-2.53 6 2.67 12.12 5.33 18.2 7.9 2.54 1.07 3.73 4.01 2.66 6.55C4376.32 3011.76 4374.46 3012.91 4372.52 3012.91zM4327.07 2992.39c-.73 0-1.47-.16-2.17-.5-6.01-2.9-12.06-5.88-17.97-8.88-2.46-1.25-3.45-4.26-2.2-6.72 1.25-2.46 4.26-3.45 6.72-2.2 5.85 2.97 11.84 5.92 17.79 8.79 2.49 1.2 3.53 4.19 2.33 6.67C4330.72 2991.35 4328.93 2992.39 4327.07 2992.39zM1271.78 2992.12c-1.09 0-2.19-.36-3.11-1.09-5.22-4.15-10.47-8.4-15.62-12.61-2.14-1.75-2.45-4.9-.7-7.04 1.75-2.13 4.9-2.45 7.04-.7 5.11 4.19 10.33 8.4 15.51 12.53 2.16 1.72 2.52 4.87.8 7.03C1274.71 2991.48 1273.25 2992.12 1271.78 2992.12zM4282.7 2969.6c-.81 0-1.63-.2-2.4-.61-5.87-3.21-11.75-6.51-17.5-9.81-2.39-1.38-3.22-4.43-1.84-6.83s4.43-3.22 6.83-1.84c5.68 3.27 11.51 6.53 17.31 9.71 2.42 1.33 3.31 4.36 1.99 6.79C4286.18 2968.66 4284.47 2969.6 4282.7 2969.6zM1233.21 2960.3c-1.15 0-2.3-.39-3.25-1.2-5.05-4.32-10.15-8.74-15.17-13.15-2.07-1.82-2.28-4.98-.45-7.06 1.82-2.07 4.98-2.28 7.06-.45 4.98 4.38 10.04 8.77 15.06 13.06 2.1 1.79 2.35 4.95.55 7.05C1236.03 2959.71 1234.63 2960.3 1233.21 2960.3zM4239.58 2944.5c-.9 0-1.81-.24-2.63-.75-5.7-3.53-11.4-7.15-16.95-10.76-2.31-1.51-2.97-4.6-1.46-6.92s4.6-2.97 6.92-1.46c5.49 3.57 11.13 7.15 16.76 10.64 2.35 1.45 3.07 4.54 1.62 6.88C4242.89 2943.66 4241.25 2944.5 4239.58 2944.5zM1195.79 2927.15c-1.21 0-2.42-.44-3.38-1.32-4.91-4.5-9.85-9.11-14.69-13.68-2.01-1.9-2.1-5.06-.2-7.07 1.9-2.01 5.06-2.1 7.07-.2 4.81 4.54 9.71 9.11 14.58 13.58 2.03 1.87 2.17 5.03.3 7.07C1198.49 2926.6 1197.14 2927.15 1195.79 2927.15zM4197.88 2917.04c-.99 0-1.99-.29-2.86-.9-5.47-3.83-10.96-7.77-16.33-11.71-2.22-1.64-2.7-4.76-1.07-6.99 1.63-2.22 4.76-2.7 6.99-1.07 5.31 3.9 10.74 7.79 16.14 11.58 2.26 1.58 2.81 4.7 1.23 6.96C4201.01 2916.29 4199.46 2917.04 4197.88 2917.04zM1159.58 2892.68c-1.27 0-2.54-.48-3.51-1.44-4.73-4.67-9.5-9.45-14.18-14.2-1.94-1.97-1.91-5.13.06-7.07 1.97-1.94 5.13-1.91 7.07.06 4.65 4.72 9.38 9.47 14.08 14.1 1.97 1.94 1.99 5.11.05 7.07C1162.16 2892.19 1160.87 2892.68 1159.58 2892.68zM4157.8 2887.22c-1.08 0-2.18-.35-3.1-1.08-5.25-4.15-10.51-8.41-15.63-12.66-2.13-1.76-2.42-4.92-.66-7.04 1.76-2.13 4.92-2.42 7.04-.66 5.07 4.2 10.27 8.41 15.45 12.51 2.17 1.71 2.53 4.86.82 7.02C4160.74 2886.57 4159.28 2887.22 4157.8 2887.22zM1124.66 2856.92c-1.33 0-2.66-.53-3.64-1.57-4.55-4.84-9.14-9.79-13.64-14.72-1.86-2.04-1.72-5.2.32-7.06 2.04-1.86 5.2-1.72 7.06.32 4.47 4.89 9.02 9.8 13.54 14.61 1.89 2.01 1.8 5.18-.22 7.07C1127.12 2856.47 1125.89 2856.92 1124.66 2856.92zM4119.51 2855.08c-1.18 0-2.37-.42-3.33-1.27-4.99-4.45-9.99-9.02-14.87-13.58-2.02-1.89-2.12-5.05-.23-7.07 1.89-2.02 5.05-2.12 7.07-.23 4.82 4.51 9.76 9.03 14.69 13.42 2.06 1.84 2.24 5 .4 7.06C4122.26 2854.51 4120.89 2855.08 4119.51 2855.08zM1088.08 2824.03c-1.76 0-3.52-.01-5.27-.04-2.76-.04-4.97-2.32-4.92-5.08.04-2.74 2.27-4.92 5-4.92.03 0 .05 0 .08 0 .25 0 .5.01.75.01-3.18-3.67-6.35-7.38-9.45-11.05-1.78-2.11-1.52-5.26.59-7.05 2.11-1.78 5.26-1.52 7.05.59 4.25 5.03 8.62 10.11 12.98 15.1.6.69.98 1.5 1.14 2.34 2.22-.05 4.44-.13 6.63-.22 2.75-.11 5.09 2.02 5.21 4.78.12 2.76-2.02 5.09-4.78 5.21C1098.14 2823.92 1093.09 2824.03 1088.08 2824.03zM1052.97 2822.27c-.17 0-.33-.01-.5-.02-6.67-.66-13.43-1.52-20.09-2.55-2.73-.42-4.6-2.98-4.18-5.71.42-2.73 2.98-4.6 5.71-4.18 6.48 1 13.06 1.84 19.55 2.49 2.75.27 4.75 2.72 4.48 5.47C1057.69 2820.35 1055.51 2822.27 1052.97 2822.27zM1132.7 2821.06c-2.46 0-4.61-1.82-4.95-4.33-.37-2.74 1.55-5.26 4.28-5.63 6.52-.88 13.04-1.98 19.38-3.26 2.7-.55 5.34 1.21 5.89 3.91.55 2.71-1.21 5.34-3.91 5.89-6.55 1.32-13.28 2.45-20.01 3.37C1133.15 2821.05 1132.92 2821.06 1132.7 2821.06zM4083.19 2820.66c-1.29 0-2.57-.49-3.55-1.48-4.71-4.74-9.43-9.61-14.03-14.48-1.9-2-1.81-5.17.2-7.07 2.01-1.9 5.17-1.81 7.07.2 4.55 4.81 9.21 9.62 13.86 14.3 1.95 1.96 1.94 5.12-.02 7.07C4085.74 2820.18 4084.47 2820.66 4083.19 2820.66zM1003.75 2813.98c-.38 0-.77-.04-1.16-.14-6.53-1.56-13.11-3.31-19.56-5.21-2.65-.78-4.16-3.56-3.38-6.21.78-2.65 3.56-4.16 6.21-3.38 6.28 1.85 12.69 3.56 19.05 5.08 2.69.64 4.35 3.34 3.71 6.02C1008.06 2812.44 1006.01 2813.98 1003.75 2813.98zM1181.43 2810.36c-2.13 0-4.11-1.38-4.77-3.52-.82-2.64.66-5.44 3.29-6.26 6.27-1.94 12.5-4.12 18.52-6.47 2.57-1 5.47.27 6.48 2.84 1 2.57-.27 5.47-2.84 6.48-6.24 2.44-12.7 4.7-19.19 6.71C1182.42 2810.29 1181.92 2810.36 1181.43 2810.36zM956.05 2799.23c-.6 0-1.2-.11-1.79-.33-6.29-2.41-12.58-5.03-18.71-7.77-2.52-1.13-3.65-4.08-2.52-6.61 1.13-2.52 4.08-3.65 6.61-2.52 5.96 2.67 12.09 5.21 18.21 7.56 2.58.99 3.87 3.88 2.88 6.46C959.95 2798 958.06 2799.23 956.05 2799.23zM1227.53 2791.32c-1.79 0-3.53-.97-4.43-2.67-1.29-2.44-.36-5.47 2.09-6.76 5.78-3.05 11.48-6.36 16.94-9.82 2.33-1.48 5.42-.78 6.9 1.55 1.48 2.33.79 5.42-1.55 6.9-5.68 3.6-11.61 7.04-17.63 10.22C1229.12 2791.13 1228.32 2791.32 1227.53 2791.32zM4049.06 2784.13c-1.39 0-2.77-.58-3.76-1.7-4.39-5-8.78-10.13-13.05-15.25-1.77-2.12-1.48-5.27.64-7.04 2.12-1.77 5.27-1.48 7.04.64 4.22 5.06 8.55 10.12 12.89 15.06 1.82 2.08 1.62 5.23-.46 7.06C4051.4 2783.72 4050.23 2784.13 4049.06 2784.13zM1058.99 2781.61c-1.46 0-2.91-.64-3.89-1.86-4.19-5.19-8.38-10.47-12.48-15.71-1.7-2.18-1.31-5.32.86-7.02 2.18-1.7 5.32-1.32 7.02.86 4.06 5.2 8.23 10.44 12.38 15.59 1.73 2.15 1.4 5.3-.75 7.03C1061.2 2781.25 1060.09 2781.61 1058.99 2781.61zM910.76 2778.21c-.82 0-1.64-.2-2.41-.62-5.93-3.26-11.81-6.72-17.47-10.28-2.34-1.47-3.05-4.55-1.58-6.89 1.47-2.34 4.55-3.05 6.89-1.58 5.51 3.46 11.22 6.82 16.98 9.99 2.42 1.33 3.3 4.37 1.97 6.79C914.23 2777.28 912.52 2778.21 910.76 2778.21zM1269.09 2763.75c-1.44 0-2.88-.62-3.87-1.83-1.75-2.13-1.44-5.29.69-7.04 5.03-4.13 9.94-8.52 14.6-13.04 1.98-1.92 5.15-1.88 7.07.11 1.92 1.98 1.88 5.15-.1 7.07-4.86 4.71-9.97 9.29-15.22 13.59C1271.33 2763.38 1270.21 2763.75 1269.09 2763.75zM868.87 2751.11c-1.04 0-2.08-.32-2.98-.99-5.33-3.96-10.69-8.11-15.93-12.33-2.15-1.73-2.49-4.88-.76-7.03 1.73-2.15 4.88-2.5 7.03-.76 5.15 4.14 10.41 8.21 15.63 12.09 2.22 1.65 2.68 4.78 1.03 7C871.9 2750.41 870.39 2751.11 868.87 2751.11zM4017.34 2745.6c-1.5 0-2.98-.67-3.96-1.95-4.08-5.29-8.14-10.7-12.07-16.08-1.63-2.23-1.14-5.36 1.08-6.99 2.23-1.63 5.36-1.14 6.99 1.08 3.88 5.31 7.9 10.66 11.92 15.88 1.69 2.19 1.28 5.33-.91 7.01C4019.48 2745.26 4018.41 2745.6 4017.34 2745.6zM1028.38 2742.14c-1.53 0-3.03-.7-4.02-2.01-3.98-5.34-7.96-10.79-11.85-16.18-1.61-2.24-1.1-5.37 1.14-6.98 2.24-1.61 5.37-1.1 6.98 1.14 3.85 5.35 7.81 10.75 11.75 16.05 1.65 2.22 1.19 5.35-1.03 7C1030.47 2741.82 1029.42 2742.14 1028.38 2742.14zM1304.19 2728.31c-1.11 0-2.22-.37-3.15-1.12-2.15-1.74-2.47-4.89-.74-7.03 4.08-5.03 8.03-10.31 11.73-15.67 1.57-2.27 4.68-2.85 6.96-1.28 2.27 1.57 2.84 4.68 1.28 6.96-3.85 5.58-7.95 11.05-12.19 16.29C1307.09 2727.68 1305.64 2728.31 1304.19 2728.31zM830.26 2719.49c-1.19 0-2.38-.42-3.34-1.28-4.94-4.44-9.91-9.05-14.75-13.7-1.99-1.91-2.05-5.08-.14-7.07 1.91-1.99 5.08-2.05 7.07-.14 4.76 4.57 9.64 9.11 14.5 13.47 2.06 1.84 2.23 5.01.38 7.06C832.99 2718.93 831.63 2719.49 830.26 2719.49zM3988.15 2705.13c-1.61 0-3.18-.77-4.15-2.21-3.72-5.52-7.42-11.16-11.01-16.77-1.49-2.33-.8-5.42 1.52-6.91 2.33-1.49 5.42-.81 6.91 1.52 3.54 5.54 7.2 11.11 10.87 16.56 1.54 2.29.94 5.4-1.35 6.94C3990.08 2704.85 3989.11 2705.13 3988.15 2705.13zM999.37 2701.49c-1.6 0-3.16-.76-4.13-2.18-3.77-5.51-7.53-11.11-11.19-16.65-1.52-2.3-.89-5.41 1.42-6.93 2.3-1.52 5.41-.89 6.93 1.42 3.63 5.49 7.36 11.05 11.1 16.52 1.56 2.28.98 5.39-1.3 6.95C1001.33 2701.21 1000.34 2701.49 999.37 2701.49zM1331.74 2686.77c-.8 0-1.61-.19-2.36-.59-2.43-1.31-3.35-4.34-2.04-6.77 3.05-5.69 5.97-11.62 8.66-17.61 1.13-2.52 4.09-3.64 6.61-2.51 2.52 1.13 3.64 4.09 2.51 6.61-2.79 6.21-5.8 12.34-8.97 18.24C1335.25 2685.81 1333.52 2686.77 1331.74 2686.77zM794.55 2684.61c-1.33 0-2.65-.53-3.64-1.57-4.56-4.83-9.13-9.83-13.57-14.85-1.83-2.07-1.64-5.23.43-7.06 2.07-1.83 5.23-1.64 7.06.43 4.38 4.94 8.88 9.86 13.36 14.62 1.89 2.01 1.8 5.17-.21 7.07C797.01 2684.16 795.78 2684.61 794.55 2684.61zM3961.57 2662.94c-1.71 0-3.38-.88-4.32-2.47-3.38-5.75-6.73-11.61-9.96-17.42-1.34-2.41-.47-5.46 1.94-6.8 2.41-1.34 5.46-.47 6.8 1.94 3.19 5.74 6.5 11.54 9.84 17.22 1.4 2.38.6 5.44-1.78 6.84C3963.3 2662.72 3962.43 2662.94 3961.57 2662.94zM972.24 2659.56c-1.71 0-3.38-.88-4.31-2.46-3.38-5.74-6.71-11.66-9.88-17.6-1.3-2.44-.38-5.46 2.05-6.77 2.43-1.3 5.46-.38 6.77 2.05 3.11 5.82 6.37 11.62 9.68 17.24 1.4 2.38.61 5.44-1.77 6.85C973.98 2659.33 973.11 2659.56 972.24 2659.56zM761.72 2646.99c-1.46 0-2.9-.63-3.89-1.86-4.18-5.17-8.36-10.5-12.42-15.83-1.67-2.2-1.25-5.33.95-7.01 2.2-1.67 5.33-1.25 7.01.95 4 5.25 8.12 10.5 12.24 15.6 1.74 2.15 1.4 5.3-.74 7.03C763.93 2646.63 762.82 2646.99 761.72 2646.99zM1351.45 2640.93c-.53 0-1.06-.08-1.59-.26-2.62-.88-4.03-3.71-3.15-6.33 2.05-6.12 3.97-12.46 5.69-18.84.72-2.67 3.46-4.24 6.13-3.53 2.67.72 4.25 3.46 3.53 6.13-1.77 6.58-3.74 13.11-5.86 19.42C1355.49 2639.61 1353.54 2640.93 1351.45 2640.93zM3937.61 2619.18c-1.82 0-3.58-1-4.46-2.73-3.01-5.91-6-11.97-8.9-18-1.19-2.49-.14-5.48 2.35-6.67 2.49-1.19 5.48-.14 6.67 2.35 2.86 5.96 5.81 11.94 8.79 17.78 1.25 2.46.27 5.47-2.19 6.73C3939.15 2619.01 3938.37 2619.18 3937.61 2619.18zM949.13 2615.3c-1.89 0-3.7-1.08-4.55-2.91-2.79-6.06-5.51-12.28-8.08-18.48-1.06-2.55.15-5.48 2.7-6.53 2.55-1.05 5.48.15 6.53 2.7 2.52 6.09 5.19 12.19 7.93 18.13 1.15 2.51.06 5.48-2.45 6.63C950.54 2615.15 949.83 2615.3 949.13 2615.3zM731.73 2607.06c-1.58 0-3.13-.75-4.11-2.14-3.81-5.47-7.6-11.07-11.28-16.66-1.52-2.31-.87-5.41 1.43-6.92 2.31-1.52 5.41-.88 6.92 1.43 3.62 5.51 7.36 11.04 11.12 16.43 1.58 2.27 1.02 5.38-1.24 6.96C733.71 2606.77 732.72 2607.06 731.73 2607.06zM1363.8 2592.56c-.3 0-.6-.03-.9-.08-2.72-.49-4.52-3.1-4.02-5.81 1.16-6.37 2.18-12.93 3.03-19.5.36-2.74 2.86-4.67 5.6-4.32 2.74.36 4.67 2.86 4.31 5.6-.88 6.74-1.92 13.47-3.11 20C1368.27 2590.86 1366.17 2592.56 1363.8 2592.56zM3916.29 2574.06c-1.93 0-3.76-1.12-4.58-3-2.67-6.1-5.3-12.32-7.83-18.49-1.05-2.55.17-5.48 2.73-6.52 2.56-1.05 5.48.17 6.52 2.73 2.5 6.09 5.11 12.24 7.75 18.28 1.11 2.53-.05 5.48-2.58 6.58C3917.63 2573.92 3916.95 2574.06 3916.29 2574.06zM930.44 2569c-2.06 0-4-1.29-4.72-3.35-2.21-6.31-4.34-12.75-6.32-19.15-.82-2.64.66-5.44 3.29-6.26 2.64-.82 5.44.66 6.26 3.29 1.95 6.28 4.04 12.61 6.21 18.8.91 2.61-.46 5.46-3.06 6.37C931.54 2568.91 930.98 2569 930.44 2569zM704.58 2565.13c-1.7 0-3.35-.87-4.29-2.43-3.44-5.72-6.84-11.57-10.13-17.39-1.36-2.4-.51-5.45 1.9-6.81 2.4-1.36 5.46-.51 6.81 1.89 3.24 5.74 6.6 11.51 9.99 17.16 1.42 2.37.65 5.44-1.71 6.86C706.35 2564.9 705.46 2565.13 704.58 2565.13zM1369.67 2542.96c-.1 0-.2 0-.3-.01-2.76-.16-4.86-2.53-4.69-5.29.38-6.48.64-13.13.74-19.76.05-2.76 2.34-5 5.08-4.92 2.76.05 4.96 2.32 4.92 5.08-.11 6.77-.37 13.57-.76 20.19C1374.5 2540.91 1372.3 2542.96 1369.67 2542.96zM3897.59 2527.77c-2.03 0-3.94-1.25-4.69-3.26-2.32-6.24-4.61-12.6-6.79-18.9-.91-2.61.48-5.46 3.08-6.36 2.61-.91 5.46.48 6.36 3.08 2.16 6.23 4.42 12.52 6.72 18.69.96 2.59-.36 5.47-2.94 6.43C3898.75 2527.67 3898.17 2527.77 3897.59 2527.77zM680.3 2521.46c-1.81 0-3.57-.99-4.45-2.72-3.06-5.95-6.07-12.02-8.96-18.03-1.19-2.49-.15-5.48 2.34-6.67 2.49-1.2 5.48-.15 6.67 2.34 2.85 5.93 5.82 11.92 8.84 17.79 1.26 2.46.29 5.47-2.17 6.73C681.85 2521.28 681.07 2521.46 680.3 2521.46zM916.06 2521.17c-2.24 0-4.27-1.51-4.84-3.78-1.64-6.49-3.18-13.1-4.58-19.63-.58-2.7 1.14-5.36 3.84-5.94 2.7-.58 5.36 1.14 5.94 3.84 1.38 6.42 2.9 12.91 4.5 19.29.68 2.68-.95 5.4-3.62 6.07C916.87 2521.12 916.46 2521.17 916.06 2521.17zM1370.01 2493.01c-2.66 0-4.88-2.1-4.99-4.79-.28-6.51-.69-13.16-1.21-19.76-.22-2.75 1.83-5.16 4.59-5.38 2.75-.22 5.16 1.83 5.38 4.59.54 6.73.95 13.5 1.24 20.13.12 2.76-2.02 5.09-4.78 5.21C1370.15 2493.01 1370.08 2493.01 1370.01 2493.01zM3881.47 2480.51c-2.13 0-4.11-1.37-4.77-3.51-1.97-6.34-3.91-12.81-5.77-19.24-.77-2.65.76-5.42 3.42-6.19 2.65-.77 5.42.76 6.19 3.42 1.83 6.36 3.75 12.76 5.71 19.03.82 2.64-.65 5.44-3.29 6.26C3882.46 2480.43 3881.96 2480.51 3881.47 2480.51zM658.97 2476.27c-1.94 0-3.78-1.13-4.59-3.02-2.66-6.16-5.26-12.42-7.73-18.6-1.02-2.56.22-5.47 2.79-6.5 2.56-1.02 5.47.22 6.5 2.79 2.44 6.1 5.01 12.28 7.63 18.35 1.09 2.54-.07 5.48-2.61 6.57C660.3 2476.13 659.63 2476.27 658.97 2476.27zM906 2472.24c-2.41 0-4.54-1.75-4.93-4.21-1.06-6.62-2.01-13.33-2.82-19.96-.34-2.74 1.61-5.24 4.35-5.57 2.73-.33 5.24 1.61 5.57 4.35.8 6.51 1.74 13.11 2.77 19.61.44 2.73-1.42 5.29-4.15 5.73C906.53 2472.22 906.26 2472.24 906 2472.24zM1365.62 2443.26c-2.47 0-4.62-1.83-4.95-4.35-.86-6.48-1.84-13.08-2.92-19.6-.45-2.72 1.39-5.3 4.12-5.75 2.72-.45 5.3 1.39 5.75 4.12 1.1 6.63 2.09 13.34 2.97 19.93.36 2.74-1.56 5.25-4.3 5.61C1366.06 2443.24 1365.84 2443.26 1365.62 2443.26zM3867.86 2432.45c-2.23 0-4.26-1.5-4.84-3.76-1.64-6.43-3.25-12.99-4.77-19.5-.63-2.69 1.04-5.38 3.73-6.01 2.69-.63 5.38 1.04 6.01 3.73 1.51 6.45 3.1 12.95 4.73 19.31.68 2.68-.93 5.4-3.61 6.08C3868.69 2432.4 3868.27 2432.45 3867.86 2432.45zM640.74 2429.73c-2.06 0-3.99-1.28-4.72-3.34-2.23-6.32-4.39-12.74-6.42-19.08-.84-2.63.61-5.44 3.24-6.29 2.63-.84 5.44.61 6.29 3.24 2 6.25 4.13 12.57 6.33 18.81.92 2.6-.45 5.46-3.05 6.38C641.85 2429.63 641.29 2429.73 640.74 2429.73zM900.34 2422.6c-2.61 0-4.8-2.02-4.98-4.66-.46-6.7-.79-13.48-1-20.15-.08-2.76 2.08-5.07 4.84-5.15 2.78-.1 5.07 2.08 5.15 4.84.2 6.54.53 13.2.98 19.77.19 2.75-1.89 5.14-4.65 5.33C900.57 2422.6 900.46 2422.6 900.34 2422.6zM1357.09 2394.04c-2.31 0-4.38-1.61-4.88-3.96-1.37-6.4-2.87-12.91-4.44-19.33-.66-2.68.98-5.39 3.66-6.05 2.68-.66 5.39.98 6.05 3.66 1.6 6.52 3.12 13.12 4.51 19.62.58 2.7-1.14 5.36-3.84 5.94C1357.79 2394.01 1357.44 2394.04 1357.09 2394.04zM3856.7 2383.77c-2.33 0-4.41-1.63-4.89-4-1.32-6.51-2.61-13.14-3.82-19.71-.5-2.72 1.3-5.32 4.01-5.82 2.72-.5 5.32 1.3 5.82 4.01 1.2 6.51 2.47 13.08 3.78 19.52.55 2.71-1.2 5.35-3.9 5.9C3857.37 2383.73 3857.04 2383.77 3856.7 2383.77zM625.84 2382.04c-2.2 0-4.22-1.46-4.82-3.69-.66-2.41-1.3-4.82-1.92-7.23-1.05-4.04-2.09-8.17-3.08-12.26-.65-2.68 1-5.39 3.68-6.04 2.68-.65 5.39 1 6.04 3.68.98 4.04 2 8.11 3.03 12.1.62 2.37 1.25 4.75 1.9 7.12.73 2.67-.85 5.41-3.51 6.14C626.72 2381.98 626.28 2382.04 625.84 2382.04zM899.3 2372.67c-.04 0-.09 0-.14 0-2.76-.07-4.94-2.37-4.86-5.13.18-6.72.5-13.51.94-20.16.18-2.76 2.57-4.85 5.32-4.66 2.76.18 4.84 2.57 4.66 5.32-.44 6.52-.75 13.17-.92 19.76C904.22 2370.52 902 2372.67 899.3 2372.67zM1344.74 2345.64c-2.15 0-4.13-1.39-4.79-3.56-1.9-6.31-3.95-12.66-6.07-18.85-.9-2.61.5-5.46 3.11-6.35 2.61-.9 5.46.5 6.35 3.11 2.17 6.31 4.25 12.78 6.19 19.21.8 2.64-.7 5.43-3.34 6.23C1345.7 2345.57 1345.22 2345.64 1344.74 2345.64zM3847.91 2334.6c-2.42 0-4.55-1.77-4.94-4.24-1.01-6.54-1.99-13.22-2.89-19.86-.37-2.74 1.54-5.26 4.28-5.63 2.74-.37 5.26 1.54 5.63 4.28.9 6.58 1.86 13.2 2.87 19.68.42 2.73-1.45 5.29-4.17 5.71C3848.42 2334.58 3848.16 2334.6 3847.91 2334.6zM614.42 2333.41c-2.33 0-4.42-1.64-4.9-4.02-1.3-6.53-2.54-13.19-3.67-19.78-.47-2.72 1.36-5.31 4.08-5.78 2.72-.47 5.31 1.36 5.78 4.08 1.12 6.5 2.34 13.07 3.62 19.52.54 2.71-1.22 5.34-3.93 5.88C615.08 2333.38 614.75 2333.41 614.42 2333.41zM903.26 2322.91c-.25 0-.5-.02-.75-.06-2.73-.41-4.61-2.96-4.2-5.69 1-6.64 2.31-13.37 3.88-20.01.63-2.69 3.32-4.36 6.02-3.72 2.69.63 4.35 3.33 3.72 6.02-1.51 6.38-2.76 12.84-3.72 19.21C907.83 2321.13 905.69 2322.91 903.26 2322.91zM1328.08 2298.54c-1.97 0-3.84-1.17-4.63-3.11-2.51-6.13-5.16-12.23-7.87-18.15-1.15-2.51-.05-5.48 2.46-6.63 2.51-1.15 5.48-.05 6.63 2.46 2.77 6.04 5.48 12.28 8.04 18.53 1.05 2.56-.18 5.48-2.73 6.52C1329.35 2298.42 1328.71 2298.54 1328.08 2298.54zM3841.38 2285.08c-2.52 0-4.68-1.9-4.96-4.46-.72-6.62-1.4-13.33-2-19.96-.25-2.75 1.77-5.18 4.52-5.44 2.75-.24 5.18 1.77 5.44 4.52.6 6.57 1.27 13.23 1.99 19.79.3 2.75-1.68 5.21-4.43 5.51C3841.74 2285.07 3841.56 2285.08 3841.38 2285.08zM606.27 2284.13c-2.47 0-4.62-1.83-4.95-4.35-.87-6.59-1.67-13.31-2.38-19.97-.29-2.75 1.7-5.21 4.44-5.5 2.75-.29 5.21 1.7 5.5 4.45.7 6.58 1.49 13.21 2.35 19.72.36 2.74-1.57 5.25-4.3 5.61C606.71 2284.11 606.49 2284.13 606.27 2284.13zM915.64 2274.6c-.57 0-1.14-.1-1.7-.3-2.6-.94-3.94-3.81-2.99-6.41 2.3-6.33 4.87-12.68 7.66-18.86 1.13-2.52 4.09-3.64 6.61-2.51 2.52 1.13 3.64 4.09 2.51 6.61-2.68 5.96-5.16 12.07-7.38 18.17C919.6 2273.34 917.68 2274.6 915.64 2274.6zM1306.72 2253.39c-1.77 0-3.49-.95-4.4-2.61-3.17-5.84-6.48-11.59-9.84-17.1-1.44-2.36-.69-5.44 1.67-6.87 2.36-1.44 5.44-.69 6.87 1.67 3.44 5.65 6.84 11.55 10.09 17.53 1.32 2.43.42 5.46-2.01 6.78C1308.35 2253.19 1307.53 2253.39 1306.72 2253.39zM3837.03 2235.33c-2.61 0-4.81-2.03-4.98-4.67-.44-6.64-.82-13.38-1.15-20.02-.14-2.76 1.99-5.1 4.75-5.24 2.72-.13 5.1 1.99 5.24 4.75.32 6.59.71 13.27 1.14 19.86.18 2.75-1.91 5.14-4.66 5.32C3837.25 2235.32 3837.14 2235.33 3837.03 2235.33zM601.31 2234.42c-2.61 0-4.8-2.02-4.98-4.66-.45-6.63-.83-13.39-1.12-20.07-.12-2.76 2.02-5.09 4.78-5.21 2.74-.12 5.09 2.02 5.21 4.78.29 6.6.66 13.27 1.11 19.83.19 2.75-1.89 5.14-4.65 5.33C601.54 2234.42 601.43 2234.42 601.31 2234.42zM936.93 2229.47c-.86 0-1.74-.22-2.53-.69-2.38-1.4-3.17-4.47-1.77-6.85 3.44-5.83 7.13-11.6 10.97-17.14 1.57-2.27 4.69-2.83 6.96-1.26 2.27 1.57 2.83 4.69 1.26 6.96-3.71 5.34-7.27 10.9-10.58 16.52C940.31 2228.59 938.64 2229.47 936.93 2229.47zM1280.15 2211.15c-1.54 0-3.06-.71-4.04-2.05-3.92-5.37-7.98-10.59-12.08-15.52-1.76-2.12-1.47-5.28.65-7.04 2.12-1.77 5.28-1.47 7.04.65 4.23 5.09 8.43 10.48 12.47 16.02 1.63 2.23 1.14 5.36-1.09 6.99C1282.2 2210.83 1281.17 2211.15 1280.15 2211.15zM966.16 2189c-1.17 0-2.34-.41-3.29-1.24-2.08-1.82-2.28-4.98-.46-7.06 4.49-5.13 9.21-10.1 14.02-14.79 1.98-1.93 5.14-1.88 7.07.09 1.93 1.98 1.88 5.14-.09 7.07-4.62 4.5-9.16 9.29-13.48 14.21C968.93 2188.42 967.55 2189 966.16 2189zM3834.79 2185.44c-2.7 0-4.93-2.16-5-4.88-.16-6.61-.27-13.36-.33-20.05-.02-2.76 2.2-5.02 4.96-5.04.01 0 .03 0 .04 0 2.74 0 4.98 2.21 5 4.96.06 6.63.17 13.33.33 19.88.07 2.76-2.12 5.05-4.88 5.12C3834.87 2185.44 3834.83 2185.44 3834.79 2185.44zM599.44 2184.5c-2.74 0-4.98-2.21-5-4.96-.02-2.12-.02-4.23-.02-6.35 0-4.55.04-9.18.11-13.75.04-2.76 2.34-5.01 5.08-4.92 2.76.04 4.96 2.32 4.92 5.08-.07 4.52-.11 9.09-.11 13.59 0 2.09.01 4.18.02 6.28.02 2.76-2.2 5.02-4.96 5.04C599.47 2184.5 599.45 2184.5 599.44 2184.5zM1247.54 2173.37c-1.25 0-2.51-.47-3.48-1.41-4.74-4.6-9.65-8.99-14.58-13.05-2.13-1.75-2.44-4.9-.69-7.04 1.75-2.13 4.91-2.44 7.04-.69 5.14 4.23 10.25 8.8 15.19 13.59 1.98 1.92 2.03 5.09.11 7.07C1250.15 2172.86 1248.85 2173.37 1247.54 2173.37zM1002.66 2154.97c-1.52 0-3.02-.69-4-1.99-1.66-2.21-1.22-5.34.99-7 5.48-4.13 11.15-8.01 16.86-11.54 2.35-1.46 5.43-.73 6.88 1.62 1.45 2.35.73 5.43-1.62 6.88-5.45 3.37-10.87 7.08-16.11 11.03C1004.76 2154.64 1003.7 2154.97 1002.66 2154.97zM1208.29 2142.64c-.89 0-1.79-.24-2.61-.74-5.57-3.41-11.32-6.55-17.08-9.31-2.49-1.19-3.54-4.18-2.35-6.67 1.19-2.49 4.18-3.54 6.67-2.34 6.07 2.91 12.11 6.21 17.98 9.8 2.35 1.44 3.09 4.52 1.65 6.88C1211.62 2141.79 1209.97 2142.64 1208.29 2142.64zM3834.57 2135.51c-.03 0-.05 0-.08 0-2.76-.04-4.96-2.32-4.92-5.08.1-6.64.26-13.39.46-20.05.08-2.76 2.36-4.9 5.15-4.84 2.76.09 4.93 2.39 4.84 5.15-.2 6.61-.36 13.31-.46 19.9C3839.53 2133.32 3837.3 2135.51 3834.57 2135.51zM600.53 2134.57c-.08 0-.17 0-.26-.01-2.76-.14-4.88-2.49-4.74-5.25.33-6.64.75-13.38 1.24-20.06.2-2.75 2.6-4.81 5.35-4.62 2.75.2 4.82 2.6 4.62 5.35-.48 6.6-.89 13.27-1.22 19.83C605.38 2132.49 603.18 2134.57 600.53 2134.57zM1045.7 2129.82c-1.94 0-3.79-1.13-4.6-3.03-1.09-2.54.09-5.48 2.62-6.57 6.33-2.72 12.81-5.09 19.25-7.07 2.64-.8 5.44.68 6.24 3.32.81 2.64-.68 5.44-3.32 6.25-6.1 1.87-12.23 4.12-18.24 6.7C1047.02 2129.69 1046.35 2129.82 1045.7 2129.82zM1162.83 2122.38c-.46 0-.93-.06-1.4-.2-6.18-1.8-12.54-3.27-18.89-4.36-2.72-.47-4.55-3.06-4.08-5.78.47-2.72 3.06-4.55 5.78-4.08 6.72 1.16 13.45 2.71 19.99 4.62 2.65.77 4.18 3.55 3.4 6.2C1167 2120.96 1165 2122.38 1162.83 2122.38zM1093.66 2116.65c-2.48 0-4.64-1.85-4.96-4.38-.34-2.74 1.6-5.24 4.34-5.58 6.8-.85 13.7-1.3 20.51-1.33.01 0 .02 0 .02 0 2.75 0 4.99 2.22 5 4.98.01 2.76-2.21 5.01-4.98 5.02-6.42.03-12.91.45-19.32 1.25C1094.07 2116.63 1093.86 2116.65 1093.66 2116.65zM3836.31 2085.59c-.09 0-.18 0-.27-.01-2.76-.15-4.87-2.5-4.72-5.26.36-6.66.77-13.39 1.23-20.02.19-2.75 2.59-4.84 5.33-4.64 2.75.19 4.83 2.58 4.64 5.33-.46 6.58-.87 13.26-1.22 19.87C3841.15 2083.52 3838.95 2085.59 3836.31 2085.59zM604.43 2084.77c-.18 0-.35-.01-.53-.03-2.75-.29-4.74-2.75-4.45-5.5.7-6.6 1.48-13.31 2.32-19.95.35-2.74 2.85-4.68 5.59-4.33 2.74.35 4.68 2.85 4.33 5.59-.84 6.57-1.61 13.21-2.3 19.74C609.12 2082.86 606.95 2084.77 604.43 2084.77zM3839.94 2035.77c-.15 0-.31-.01-.46-.02-2.75-.25-4.77-2.69-4.52-5.44.61-6.64 1.27-13.36 1.98-19.96.29-2.75 2.77-4.74 5.5-4.44 2.75.29 4.73 2.76 4.44 5.5-.7 6.55-1.36 13.22-1.96 19.81C3844.67 2033.82 3842.49 2035.77 3839.94 2035.77zM610.99 2035.25c-.26 0-.53-.02-.79-.06-2.73-.43-4.59-2.99-4.15-5.72 1.04-6.55 2.17-13.21 3.35-19.8.49-2.72 3.09-4.53 5.81-4.04 2.72.49 4.53 3.09 4.04 5.8-1.17 6.52-2.29 13.12-3.32 19.6C615.53 2033.5 613.4 2035.25 610.99 2035.25zM620.06 1986.13c-.34 0-.69-.04-1.03-.11-2.7-.57-4.43-3.22-3.86-5.92 1.37-6.51 2.82-13.1 4.32-19.61.62-2.69 3.31-4.37 6-3.75 2.69.62 4.37 3.3 3.75 5.99-1.48 6.44-2.92 12.98-4.28 19.42C624.45 1984.52 622.37 1986.13 620.06 1986.13zM3845.41 1986.12c-.21 0-.43-.01-.64-.04-2.74-.35-4.67-2.86-4.32-5.6.66-5.09 1.36-10.29 2.08-15.47l.62-4.4c.39-2.73 2.93-4.64 5.66-4.24 2.73.39 4.63 2.92 4.24 5.66l-.62 4.38c-.72 5.13-1.42 10.3-2.07 15.35C3850.04 1984.28 3847.89 1986.12 3845.41 1986.12zM2897.64 1947.47c-2.76 0-5-2.23-5-4.99 0-2.76 2.23-5 4.99-5.01 6.65-.01 13.3-.04 19.95-.09.01 0 .03 0 .04 0 2.74 0 4.98 2.21 5 4.96.02 2.76-2.2 5.02-4.96 5.04C2911 1947.43 2904.27 1947.46 2897.64 1947.47 2897.65 1947.47 2897.65 1947.47 2897.64 1947.47zM2867.67 1947.37c-.01 0-.03 0-.04 0-6.67-.06-13.4-.14-20.02-.24-2.76-.04-4.96-2.32-4.92-5.08.04-2.76 2.32-4.93 5.08-4.92 6.65.1 13.3.18 19.95.24 2.76.02 4.98 2.28 4.96 5.04C2872.64 1945.16 2870.41 1947.37 2867.67 1947.37zM2947.6 1946.99c-2.72 0-4.95-2.18-5-4.91-.05-2.76 2.15-5.04 4.91-5.09 6.65-.12 13.3-.26 19.95-.43.04 0 .08 0 .13 0 2.7 0 4.93 2.16 5 4.88.07 2.76-2.11 5.05-4.87 5.12-6.67.17-13.34.31-20.01.43C2947.66 1946.99 2947.63 1946.99 2947.6 1946.99zM2817.72 1946.51c-.04 0-.09 0-.13 0-6.64-.17-13.37-.36-20.01-.58-2.76-.09-4.92-2.4-4.84-5.16.09-2.76 2.37-4.93 5.16-4.84 6.62.21 13.33.41 19.94.57 2.76.07 4.94 2.37 4.87 5.13C2822.65 1944.36 2820.42 1946.51 2817.72 1946.51zM2997.54 1945.66c-2.68 0-4.9-2.12-4.99-4.83-.1-2.76 2.06-5.08 4.82-5.17 6.65-.23 13.29-.49 19.94-.76 2.79-.11 5.09 2.03 5.2 4.79.11 2.76-2.03 5.09-4.79 5.2-6.67.28-13.33.53-20 .77C2997.66 1945.66 2997.6 1945.66 2997.54 1945.66zM2767.79 1944.82c-.07 0-.14 0-.21 0-6.64-.28-13.36-.59-20-.91-2.76-.14-4.88-2.48-4.75-5.24.13-2.76 2.48-4.88 5.24-4.75 6.61.32 13.31.63 19.93.91 2.76.12 4.9 2.45 4.79 5.21C2772.67 1942.72 2770.46 1944.82 2767.79 1944.82zM3047.45 1943.49c-2.64 0-4.85-2.07-4.99-4.74-.14-2.76 1.98-5.11 4.73-5.25 6.64-.34 13.28-.71 19.92-1.1 2.74-.16 5.12 1.94 5.28 4.7.16 2.76-1.94 5.12-4.7 5.28-6.66.39-13.32.76-19.99 1.1C3047.63 1943.49 3047.54 1943.49 3047.45 1943.49zM2717.9 1942.29c-.1 0-.2 0-.3-.01-6.6-.39-13.33-.81-19.98-1.25-2.76-.18-4.84-2.56-4.66-5.32s2.58-4.84 5.32-4.66c6.63.44 13.33.85 19.91 1.24 2.76.16 4.86 2.53 4.7 5.29C2722.73 1940.25 2720.53 1942.29 2717.9 1942.29zM3097.32 1940.49c-2.6 0-4.8-2.02-4.98-4.66-.19-2.76 1.89-5.14 4.65-5.33 6.63-.46 13.27-.93 19.9-1.43 2.75-.22 5.15 1.86 5.36 4.61.21 2.75-1.86 5.15-4.61 5.36-6.65.5-13.31.98-19.97 1.44C3097.55 1940.49 3097.43 1940.49 3097.32 1940.49zM2668.06 1938.93c-.13 0-.26-.01-.38-.01-6.64-.5-13.36-1.04-19.95-1.58-2.75-.23-4.8-2.64-4.57-5.4.23-2.75 2.65-4.79 5.4-4.57 6.57.54 13.27 1.08 19.89 1.58 2.75.21 4.82 2.61 4.61 5.36C2672.84 1936.93 2670.65 1938.93 2668.06 1938.93zM631.5 1937.51c-.42 0-.84-.05-1.26-.16-2.67-.7-4.27-3.43-3.58-6.1 1.67-6.43 3.43-12.95 5.23-19.38.74-2.66 3.5-4.21 6.16-3.47 2.66.74 4.21 3.5 3.47 6.16-1.78 6.38-3.53 12.84-5.19 19.2C635.75 1936.02 633.72 1937.51 631.5 1937.51zM3852.63 1936.69c-.27 0-.53-.02-.8-.06-2.73-.44-4.58-3.01-4.14-5.73 1.07-6.6 2.19-13.25 3.32-19.76.47-2.72 3.06-4.54 5.79-4.07 2.72.47 4.54 3.06 4.07 5.78-1.13 6.47-2.24 13.08-3.3 19.64C3857.16 1934.95 3855.04 1936.69 3852.63 1936.69zM3147.13 1936.65c-2.57 0-4.75-1.97-4.98-4.57-.24-2.75 1.8-5.17 4.55-5.41 6.56-.56 13.25-1.16 19.87-1.77 2.76-.25 5.18 1.77 5.44 4.52.25 2.75-1.77 5.18-4.52 5.44-6.65.61-13.35 1.21-19.94 1.78C3147.42 1936.64 3147.27 1936.65 3147.13 1936.65zM2618.28 1934.72c-.16 0-.31-.01-.47-.02-6.64-.62-13.34-1.26-19.92-1.92-2.75-.27-4.75-2.72-4.48-5.47.27-2.75 2.72-4.76 5.47-4.48 6.56.65 13.24 1.3 19.86 1.91 2.75.26 4.77 2.69 4.52 5.44C2623.01 1932.78 2620.83 1934.72 2618.28 1934.72zM3196.87 1931.97c-2.53 0-4.7-1.92-4.97-4.49-.28-2.75 1.72-5.2 4.46-5.48 6.56-.67 13.23-1.38 19.84-2.1 2.74-.3 5.21 1.68 5.51 4.43.3 2.75-1.68 5.21-4.43 5.51-6.63.73-13.33 1.44-19.91 2.11C3197.21 1931.96 3197.04 1931.97 3196.87 1931.97zM2568.57 1929.68c-.18 0-.37-.01-.55-.03-6.6-.73-13.29-1.48-19.89-2.26-2.74-.32-4.71-2.8-4.39-5.55.32-2.74 2.81-4.71 5.55-4.39 6.57.77 13.24 1.52 19.82 2.25 2.74.3 4.73 2.77 4.42 5.52C2573.26 1927.79 2571.09 1929.68 2568.57 1929.68zM3246.53 1926.45c-2.5 0-4.65-1.87-4.96-4.41-.33-2.74 1.63-5.23 4.37-5.56 6.6-.79 13.26-1.61 19.8-2.44 2.74-.34 5.24 1.59 5.59 4.33.35 2.74-1.59 5.24-4.33 5.59-6.57.83-13.25 1.66-19.87 2.45C3246.92 1926.43 3246.72 1926.45 3246.53 1926.45zM2518.96 1923.8c-.21 0-.42-.01-.64-.04-6.59-.84-13.27-1.71-19.85-2.59-2.74-.37-4.66-2.88-4.29-5.62.37-2.74 2.88-4.65 5.62-4.29 6.56.88 13.22 1.75 19.78 2.58 2.74.35 4.68 2.85 4.33 5.59C2523.6 1921.96 2521.45 1923.8 2518.96 1923.8zM3296.08 1920.08c-2.46 0-4.6-1.82-4.95-4.32-.38-2.74 1.54-5.26 4.28-5.63 6.53-.9 13.18-1.83 19.76-2.78 2.74-.39 5.27 1.5 5.66 4.24.39 2.73-1.5 5.27-4.24 5.66-6.6.95-13.27 1.89-19.82 2.78C3296.53 1920.07 3296.3 1920.08 3296.08 1920.08zM2469.46 1917.08c-.24 0-.48-.02-.72-.05-6.55-.95-13.21-1.93-19.8-2.93-2.73-.41-4.61-2.96-4.2-5.69.41-2.73 2.96-4.61 5.69-4.2 6.57.99 13.21 1.97 19.73 2.92 2.73.39 4.63 2.93 4.23 5.66C2474.04 1915.29 2471.91 1917.08 2469.46 1917.08zM3345.52 1912.88c-2.42 0-4.55-1.77-4.93-4.24-.42-2.73 1.45-5.28 4.18-5.7 6.54-1.01 13.17-2.06 19.71-3.11 2.71-.44 5.29 1.41 5.73 4.14.44 2.73-1.41 5.29-4.14 5.73-6.56 1.06-13.21 2.11-19.77 3.12C3346.03 1912.86 3345.77 1912.88 3345.52 1912.88zM2420.08 1909.53c-.27 0-.53-.02-.8-.07-6.53-1.06-13.17-2.15-19.75-3.26-2.72-.46-4.56-3.04-4.1-5.76.46-2.72 3.04-4.56 5.76-4.1 6.55 1.11 13.18 2.2 19.68 3.25 2.73.44 4.58 3.01 4.14 5.73C2424.61 1907.78 2422.49 1909.53 2420.08 1909.53zM3394.82 1904.84c-2.39 0-4.5-1.72-4.92-4.15-.47-2.72 1.36-5.31 4.08-5.77 6.57-1.13 13.18-2.29 19.65-3.45 2.72-.49 5.32 1.32 5.8 4.04.49 2.72-1.32 5.32-4.04 5.8-6.49 1.16-13.13 2.33-19.72 3.46C3395.39 1904.82 3395.11 1904.84 3394.82 1904.84zM2370.83 1901.13c-.29 0-.59-.03-.89-.08-6.58-1.18-13.2-2.39-19.69-3.6-2.71-.51-4.51-3.12-4-5.83s3.11-4.51 5.83-4c6.46 1.2 13.07 2.41 19.62 3.59 2.72.49 4.53 3.09 4.04 5.8C2375.31 1899.44 2373.21 1901.13 2370.83 1901.13zM3443.99 1895.96c-2.35 0-4.45-1.67-4.91-4.07-.51-2.71 1.27-5.33 3.98-5.84 6.53-1.24 13.12-2.51 19.59-3.78 2.71-.53 5.34 1.23 5.87 3.94.53 2.71-1.23 5.34-3.94 5.87-6.49 1.28-13.1 2.55-19.66 3.8C3444.61 1895.93 3444.3 1895.96 3443.99 1895.96zM2321.74 1891.9c-.32 0-.65-.03-.97-.1-6.54-1.29-13.15-2.61-19.63-3.93-2.71-.55-4.45-3.19-3.9-5.9.55-2.71 3.19-4.45 5.9-3.9 6.46 1.32 13.04 2.64 19.56 3.92 2.71.53 4.47 3.16 3.94 5.87C2326.17 1890.25 2324.08 1891.9 2321.74 1891.9zM645.18 1889.47c-.49 0-1-.07-1.49-.23-2.64-.82-4.11-3.63-3.28-6.26 1.99-6.37 4.11-12.8 6.32-19.12.91-2.61 3.76-3.98 6.37-3.07 2.61.91 3.98 3.76 3.07 6.37-2.17 6.22-4.26 12.55-6.22 18.81C649.29 1888.1 647.31 1889.47 645.18 1889.47zM3861.36 1887.51c-.32 0-.63-.03-.96-.09-2.71-.52-4.48-3.15-3.96-5.86 1.27-6.54 2.59-13.15 3.93-19.65.56-2.71 3.21-4.44 5.91-3.89 2.71.56 4.44 3.2 3.89 5.91-1.33 6.46-2.65 13.03-3.9 19.53C3865.8 1885.85 3863.71 1887.51 3861.36 1887.51zM3492.99 1886.24c-2.32 0-4.4-1.62-4.89-3.99-.56-2.7 1.18-5.35 3.88-5.91 6.45-1.34 13.02-2.72 19.52-4.12 2.7-.58 5.36 1.14 5.94 3.84.58 2.7-1.14 5.36-3.84 5.94-6.53 1.4-13.12 2.79-19.59 4.13C3493.67 1886.2 3493.33 1886.24 3492.99 1886.24zM2272.8 1881.83c-.35 0-.7-.04-1.05-.11-6.52-1.4-13.1-2.84-19.56-4.27-2.7-.6-4.4-3.27-3.8-5.96.6-2.7 3.27-4.4 5.96-3.8 6.43 1.43 12.99 2.86 19.49 4.26 2.7.58 4.42 3.24 3.84 5.94C2277.18 1880.23 2275.11 1881.83 2272.8 1881.83zM3541.82 1875.67c-2.29 0-4.35-1.58-4.87-3.9-.61-2.69 1.08-5.37 3.78-5.98 6.48-1.46 13.02-2.96 19.45-4.45 2.69-.63 5.38 1.05 6 3.74.63 2.69-1.05 5.38-3.74 6-6.45 1.5-13.01 3-19.51 4.47C3542.56 1875.63 3542.19 1875.67 3541.82 1875.67zM2224.05 1870.92c-.38 0-.76-.04-1.14-.13-6.5-1.51-13.05-3.06-19.48-4.61-2.69-.64-4.34-3.34-3.69-6.03.64-2.68 3.34-4.34 6.03-3.69 6.41 1.54 12.94 3.08 19.41 4.59 2.69.63 4.36 3.31 3.74 6C2228.38 1869.36 2226.32 1870.92 2224.05 1870.92zM3590.47 1864.27c-2.25 0-4.3-1.53-4.85-3.82-.65-2.68.99-5.39 3.67-6.04 6.44-1.57 12.96-3.18 19.37-4.79 2.67-.67 5.39.95 6.07 3.63.67 2.68-.95 5.39-3.63 6.07-6.43 1.61-12.97 3.23-19.43 4.81C3591.26 1864.22 3590.86 1864.27 3590.47 1864.27zM2175.5 1859.17c-.4 0-.81-.05-1.22-.15-6.47-1.62-13-3.29-19.4-4.94-2.67-.69-4.28-3.42-3.59-6.09.69-2.67 3.42-4.28 6.09-3.59 6.38 1.65 12.88 3.31 19.33 4.93 2.68.67 4.3 3.39 3.63 6.07C2179.77 1857.66 2177.73 1859.17 2175.5 1859.17zM3638.9 1852.02c-2.22 0-4.24-1.49-4.83-3.73-.7-2.67.9-5.4 3.57-6.1 6.37-1.67 12.85-3.39 19.28-5.12 2.67-.72 5.41.86 6.13 3.53.72 2.67-.86 5.41-3.53 6.13-6.45 1.74-12.96 3.47-19.35 5.14C3639.75 1851.97 3639.32 1852.02 3638.9 1852.02zM2127.15 1846.59c-.43 0-.87-.06-1.3-.17-6.41-1.73-12.91-3.5-19.31-5.28-2.66-.74-4.22-3.49-3.48-6.15.74-2.66 3.5-4.22 6.15-3.48 6.38 1.77 12.85 3.54 19.24 5.26 2.67.72 4.25 3.46 3.53 6.13C2131.37 1845.12 2129.35 1846.59 2127.15 1846.59zM662.02 1842.46c-.63 0-1.26-.12-1.88-.37-2.56-1.04-3.79-3.95-2.75-6.51 2.51-6.2 5.17-12.44 7.88-18.54 1.12-2.52 4.08-3.66 6.6-2.54 2.52 1.12 3.66 4.08 2.54 6.6-2.67 6-5.28 12.14-7.75 18.24C665.87 1841.28 664 1842.46 662.02 1842.46zM3687.12 1838.94c-2.19 0-4.19-1.44-4.81-3.65-.75-2.66.8-5.42 3.46-6.17 6.37-1.79 12.82-3.63 19.19-5.46 2.66-.77 5.43.77 6.19 3.42.76 2.65-.77 5.42-3.42 6.19-6.39 1.84-12.86 3.68-19.25 5.48C3688.02 1838.88 3687.56 1838.94 3687.12 1838.94zM3871.6 1838.63c-.37 0-.74-.04-1.11-.12-2.69-.61-4.38-3.29-3.77-5.98 1.48-6.55 3.01-13.12 4.54-19.52.64-2.69 3.34-4.34 6.03-3.7 2.69.64 4.34 3.34 3.7 6.03-1.52 6.37-3.04 12.89-4.51 19.4C3875.95 1837.06 3873.89 1838.63 3871.6 1838.63zM2079.03 1833.16c-.46 0-.92-.06-1.39-.2-6.39-1.84-12.85-3.73-19.22-5.61-2.65-.78-4.16-3.57-3.37-6.21.78-2.65 3.56-4.16 6.21-3.38 6.34 1.88 12.78 3.76 19.15 5.59 2.65.77 4.18 3.54 3.42 6.19C2083.2 1831.74 2081.2 1833.16 2079.03 1833.16zM3735.09 1825.01c-2.15 0-4.14-1.4-4.79-3.56-.79-2.65.71-5.43 3.35-6.23 6.34-1.9 12.77-3.85 19.09-5.8 2.64-.81 5.44.67 6.25 3.31.81 2.64-.67 5.44-3.31 6.25-6.34 1.95-12.79 3.91-19.15 5.82C3736.05 1824.94 3735.57 1825.01 3735.09 1825.01zM2031.15 1818.9c-.49 0-.98-.07-1.47-.22-6.39-1.96-12.82-3.97-19.11-5.95-2.63-.83-4.1-3.64-3.27-6.27.83-2.63 3.64-4.09 6.27-3.27 6.27 1.98 12.68 3.97 19.05 5.93 2.64.81 4.12 3.61 3.31 6.25C2035.26 1817.52 2033.29 1818.9 2031.15 1818.9zM3782.82 1810.24c-2.12 0-4.08-1.36-4.76-3.48-.84-2.63.61-5.44 3.24-6.28 6.35-2.03 12.74-4.09 18.98-6.13 2.62-.86 5.45.57 6.31 3.2.86 2.62-.57 5.45-3.2 6.31-6.27 2.05-12.67 4.12-19.05 6.15C3783.83 1810.17 3783.32 1810.24 3782.82 1810.24zM1983.52 1803.8c-.51 0-1.04-.08-1.55-.25-6.32-2.07-12.72-4.18-19.01-6.29-2.62-.88-4.03-3.71-3.16-6.33.88-2.62 3.71-4.03 6.33-3.16 6.27 2.1 12.64 4.21 18.94 6.26 2.62.86 4.06 3.68 3.2 6.31C1987.59 1802.46 1985.63 1803.8 1983.52 1803.8zM682.68 1796.99c-.76 0-1.53-.17-2.25-.54-2.46-1.25-3.45-4.25-2.21-6.72 3.02-5.98 6.18-11.98 9.38-17.83 1.33-2.42 4.36-3.31 6.79-1.98 2.42 1.33 3.31 4.37 1.98 6.79-3.15 5.76-6.26 11.66-9.23 17.54C686.27 1795.98 684.51 1796.99 682.68 1796.99zM3830.27 1794.63c-2.08 0-4.03-1.31-4.74-3.4-.89-2.62.52-5.45 3.13-6.34 6.27-2.13 12.62-4.3 18.87-6.47 2.61-.91 5.46.48 6.36 3.09.9 2.61-.48 5.46-3.09 6.36-6.27 2.17-12.64 4.36-18.94 6.49C3831.35 1794.55 3830.8 1794.63 3830.27 1794.63zM3883.37 1790.09c-.42 0-.84-.05-1.26-.16-2.67-.69-4.28-3.42-3.59-6.09.54-2.1 1.09-4.21 1.65-6.32-.35.12-.7.25-1.04.37-2.6.93-5.46-.42-6.39-3.02-.93-2.6.42-5.46 3.02-6.39 2.52-.9 5.04-1.81 7.56-2.73.12-.43.23-.86.35-1.29.72-2.67 3.47-4.24 6.14-3.51.99.27 1.83.82 2.46 1.54.75-.27 1.49-.55 2.24-.82 2.6-.95 5.47.38 6.42 2.97.95 2.59-.38 5.47-2.97 6.42-2.1.77-4.21 1.54-6.33 2.31-1.16 4.33-2.3 8.67-3.42 12.96C3887.62 1788.6 3885.59 1790.09 3883.37 1790.09zM1936.18 1787.87c-.54 0-1.1-.09-1.64-.28-6.29-2.18-12.65-4.41-18.89-6.62-2.6-.92-3.97-3.78-3.04-6.38.92-2.6 3.78-3.97 6.38-3.04 6.22 2.21 12.56 4.43 18.83 6.6 2.61.9 3.99 3.75 3.09 6.36C1940.18 1786.57 1938.25 1787.87 1936.18 1787.87zM1889.11 1771.1c-.57 0-1.15-.1-1.72-.31-6.21-2.28-12.52-4.62-18.77-6.96-2.59-.97-3.9-3.85-2.93-6.44.97-2.59 3.85-3.9 6.44-2.93 6.23 2.33 12.52 4.66 18.71 6.93 2.59.95 3.92 3.82 2.97 6.41C1893.07 1769.84 1891.15 1771.1 1889.11 1771.1zM3924.31 1760.9c-2.02 0-3.92-1.23-4.68-3.23-.98-2.58.32-5.47 2.9-6.45 6.19-2.34 12.45-4.75 18.63-7.14 2.58-1 5.47.28 6.47 2.86 1 2.58-.28 5.47-2.86 6.47-6.19 2.4-12.48 4.81-18.69 7.16C3925.5 1760.8 3924.9 1760.9 3924.31 1760.9zM1842.36 1753.49c-.6 0-1.21-.11-1.8-.34-6.22-2.4-12.49-4.86-18.65-7.29-2.57-1.01-3.83-3.92-2.81-6.49 1.02-2.57 3.92-3.83 6.49-2.81 6.14 2.42 12.39 4.87 18.58 7.26 2.58 1 3.86 3.89 2.86 6.47C1846.26 1752.27 1844.36 1753.49 1842.36 1753.49zM707.04 1753.38c-.89 0-1.8-.24-2.61-.74-2.35-1.45-3.09-4.53-1.64-6.88 3.51-5.71 7.16-11.43 10.85-16.99 1.52-2.3 4.63-2.93 6.93-1.41 2.3 1.53 2.93 4.63 1.41 6.93-3.62 5.47-7.21 11.09-10.66 16.7C710.36 1752.53 708.72 1753.38 707.04 1753.38zM3970.86 1742.78c-1.99 0-3.86-1.19-4.64-3.15-1.03-2.56.22-5.47 2.79-6.5 6.16-2.46 12.38-4.98 18.49-7.47 2.55-1.04 5.47.18 6.52 2.74 1.04 2.56-.18 5.48-2.74 6.52-6.13 2.5-12.38 5.02-18.56 7.5C3972.11 1742.67 3971.48 1742.78 3970.86 1742.78zM3896.62 1741.99c-.46 0-.94-.07-1.41-.2-2.65-.77-4.17-3.55-3.4-6.2 1.86-6.37 3.79-12.82 5.73-19.15.81-2.64 3.6-4.13 6.24-3.32 2.64.81 4.13 3.6 3.32 6.24-1.92 6.3-3.84 12.7-5.69 19.04C3900.78 1740.58 3898.78 1741.99 3896.62 1741.99zM1795.92 1735.05c-.63 0-1.27-.12-1.88-.37-6.15-2.51-12.38-5.07-18.51-7.62-2.55-1.06-3.76-3.99-2.7-6.54 1.06-2.55 3.99-3.76 6.54-2.7 6.11 2.54 12.32 5.1 18.45 7.6 2.56 1.04 3.79 3.96 2.74 6.52C1799.76 1733.87 1797.89 1735.05 1795.92 1735.05zM4017.08 1723.82c-1.95 0-3.81-1.15-4.61-3.06-1.07-2.54.12-5.48 2.67-6.55 4.83-2.03 9.66-4.08 14.48-6.14l3.87-1.66c2.54-1.09 5.48.08 6.57 2.62 1.09 2.54-.08 5.48-2.62 6.57l-3.88 1.66c-4.84 2.07-9.69 4.12-14.54 6.17C4018.39 1723.7 4017.73 1723.82 4017.08 1723.82zM1749.83 1715.77c-.66 0-1.33-.13-1.97-.41-6.1-2.61-12.28-5.29-18.37-7.96-2.53-1.11-3.68-4.05-2.58-6.58 1.11-2.53 4.05-3.68 6.58-2.58 6.07 2.66 12.23 5.32 18.31 7.93 2.54 1.09 3.71 4.03 2.63 6.57C1753.61 1714.64 1751.76 1715.77 1749.83 1715.77zM734.99 1711.98c-1.03 0-2.08-.32-2.97-.98-2.22-1.64-2.69-4.77-1.05-6.99 3.99-5.4 8.12-10.78 12.28-16 1.72-2.16 4.86-2.52 7.03-.8 2.16 1.72 2.52 4.87.8 7.03-4.08 5.13-8.14 10.42-12.06 15.72C738.03 1711.28 736.52 1711.98 734.99 1711.98zM4062.93 1704.02c-1.92 0-3.75-1.11-4.57-2.97-1.12-2.52.02-5.48 2.54-6.6 6.12-2.71 12.24-5.46 18.18-8.16 2.51-1.14 5.48-.03 6.62 2.49 1.14 2.51.03 5.48-2.49 6.62-5.98 2.71-12.12 5.47-18.26 8.19C4064.3 1703.88 4063.61 1704.02 4062.93 1704.02zM1704.08 1695.68c-.68 0-1.38-.14-2.04-.44-6.07-2.72-12.15-5.46-18.24-8.21-2.52-1.14-3.63-4.1-2.5-6.62 1.14-2.52 4.1-3.63 6.62-2.5 6.08 2.75 12.15 5.48 18.21 8.2 2.52 1.13 3.65 4.09 2.52 6.61C1707.81 1694.58 1705.99 1695.68 1704.08 1695.68zM3911.34 1694.36c-.51 0-1.04-.08-1.55-.25-2.63-.86-4.06-3.68-3.21-6.3 2.05-6.28 4.17-12.67 6.31-18.98.89-2.62 3.73-4.02 6.34-3.13 2.62.89 4.02 3.73 3.13 6.34-2.13 6.28-4.24 12.63-6.27 18.87C3915.4 1693.02 3913.45 1694.36 3911.34 1694.36zM4108.37 1683.28c-1.88 0-3.68-1.06-4.53-2.87-1.17-2.5-.1-5.48 2.4-6.65 6.05-2.84 12.11-5.73 18-8.56 2.49-1.2 5.48-.15 6.67 2.33 1.2 2.49.15 5.48-2.33 6.67-5.92 2.85-12 5.75-18.08 8.6C4109.8 1683.13 4109.08 1683.28 4108.37 1683.28zM1658.55 1675.09c-.69 0-1.4-.14-2.07-.45l-18.23-8.31c-2.51-1.15-3.62-4.11-2.48-6.62 1.15-2.51 4.11-3.62 6.62-2.47l18.23 8.31c2.51 1.15 3.62 4.11 2.48 6.62C1662.27 1674 1660.45 1675.09 1658.55 1675.09zM766.45 1673.17c-1.18 0-2.37-.42-3.32-1.26-2.06-1.83-2.25-4.99-.42-7.06 4.46-5.03 9.07-10.02 13.68-14.84 1.91-1.99 5.07-2.07 7.07-.16 2 1.91 2.07 5.07.16 7.07-4.52 4.73-9.04 9.63-13.42 14.56C769.2 1672.61 767.83 1673.17 766.45 1673.17zM4153.32 1661.49c-1.83 0-3.6-1.01-4.48-2.76-1.24-2.47-.24-5.47 2.23-6.71 5.96-2.98 11.94-6.02 17.78-9.01 2.46-1.26 5.47-.29 6.73 2.16 1.26 2.46.29 5.47-2.16 6.73-5.87 3.01-11.88 6.06-17.87 9.06C4154.83 1661.32 4154.07 1661.49 4153.32 1661.49zM1613.01 1654.34c-.69 0-1.39-.14-2.07-.45-6.06-2.76-12.14-5.51-18.22-8.26-2.52-1.14-3.63-4.1-2.5-6.62 1.14-2.52 4.1-3.63 6.62-2.5 6.09 2.75 12.17 5.51 18.24 8.27 2.51 1.14 3.62 4.11 2.48 6.62C1616.73 1653.25 1614.91 1654.34 1613.01 1654.34zM3927.5 1647.16c-.56 0-1.13-.1-1.69-.3-2.6-.93-3.95-3.8-3.02-6.4 2.25-6.27 4.56-12.6 6.87-18.8.96-2.59 3.84-3.9 6.43-2.94 2.59.96 3.91 3.84 2.94 6.43-2.3 6.17-4.6 12.46-6.83 18.69C3931.47 1645.89 3929.55 1647.16 3927.5 1647.16zM4197.7 1638.54c-1.79 0-3.51-.96-4.41-2.64-1.3-2.43-.38-5.46 2.05-6.77 5.88-3.14 11.77-6.34 17.52-9.51 2.42-1.33 5.46-.45 6.79 1.97 1.33 2.42.45 5.46-1.97 6.79-5.78 3.18-11.71 6.4-17.62 9.56C4199.3 1638.34 4198.49 1638.54 4197.7 1638.54zM801.32 1637.41c-1.34 0-2.67-.53-3.66-1.59-1.88-2.02-1.77-5.18.25-7.07 4.92-4.59 9.97-9.12 15.03-13.48 2.09-1.8 5.25-1.57 7.05.52 1.8 2.09 1.57 5.25-.52 7.05-4.95 4.27-9.91 8.72-14.73 13.22C803.77 1636.97 802.55 1637.41 801.32 1637.41zM1567.43 1633.78c-.68 0-1.37-.14-2.03-.44-6.08-2.71-12.16-5.41-18.26-8.1-2.53-1.11-3.67-4.06-2.56-6.59 1.11-2.53 4.06-3.67 6.59-2.56 6.11 2.69 12.21 5.4 18.3 8.12 2.52 1.12 3.65 4.08 2.53 6.6C1571.16 1632.68 1569.34 1633.78 1567.43 1633.78zM4241.4 1614.31c-1.73 0-3.42-.9-4.34-2.51-1.38-2.39-.55-5.45 1.84-6.83 5.77-3.31 11.56-6.69 17.21-10.04 2.37-1.41 5.44-.62 6.85 1.75 1.41 2.38.62 5.44-1.75 6.85-5.69 3.37-11.52 6.77-17.33 10.11C4243.1 1614.09 4242.24 1614.31 4241.4 1614.31zM1521.66 1613.69c-.66 0-1.33-.13-1.98-.41-6.25-2.69-12.42-5.32-18.35-7.83-2.54-1.07-3.74-4.01-2.66-6.55 1.07-2.54 4.01-3.73 6.55-2.66 5.95 2.51 12.14 5.15 18.41 7.85 2.54 1.09 3.71 4.03 2.62 6.57C1525.44 1612.56 1523.6 1613.69 1521.66 1613.69zM839.48 1605.19c-1.51 0-3-.68-3.98-1.97-1.67-2.2-1.25-5.33.95-7.01 5.35-4.08 10.84-8.08 16.31-11.9 2.26-1.58 5.38-1.03 6.96 1.24 1.58 2.26 1.03 5.38-1.24 6.96-5.36 3.74-10.73 7.67-15.97 11.66C841.61 1604.85 840.54 1605.19 839.48 1605.19zM3945.04 1600.42c-.61 0-1.22-.11-1.82-.35-2.57-1.01-3.84-3.91-2.83-6.48 2.41-6.16 4.91-12.42 7.41-18.61 1.04-2.56 3.95-3.79 6.51-2.76 2.56 1.04 3.79 3.95 2.76 6.51-2.49 6.16-4.97 12.38-7.37 18.51C3948.92 1599.22 3947.04 1600.42 3945.04 1600.42zM1475.59 1594.36c-.63 0-1.27-.12-1.89-.37-6.25-2.55-12.46-5.05-18.48-7.43-2.57-1.02-3.82-3.92-2.81-6.49 1.02-2.57 3.92-3.82 6.49-2.81 6.05 2.4 12.3 4.91 18.57 7.47 2.56 1.04 3.79 3.96 2.74 6.52C1479.44 1593.18 1477.57 1594.36 1475.59 1594.36zM4284.31 1588.69c-1.67 0-3.31-.84-4.25-2.37-1.46-2.35-.73-5.43 1.61-6.88 5.64-3.5 11.32-7.07 16.86-10.62 2.32-1.49 5.42-.81 6.91 1.51 1.49 2.33.81 5.42-1.51 6.91-5.58 3.57-11.29 7.17-16.98 10.7C4286.12 1588.45 4285.21 1588.69 4284.31 1588.69zM880.73 1577.04c-1.69 0-3.34-.86-4.28-2.41-1.43-2.36-.68-5.44 1.68-6.87 5.75-3.49 11.63-6.89 17.49-10.1 2.42-1.33 5.46-.44 6.79 1.98 1.33 2.42.44 5.46-1.98 6.79-5.73 3.14-11.48 6.47-17.11 9.88C882.51 1576.8 881.61 1577.04 880.73 1577.04zM1429.13 1576.09c-.59 0-1.18-.1-1.76-.32-6.27-2.37-12.55-4.69-18.66-6.91-2.6-.94-3.94-3.81-2.99-6.41.94-2.6 3.81-3.94 6.41-2.99 6.15 2.23 12.47 4.57 18.77 6.95 2.58.97 3.89 3.86 2.91 6.44C1433.05 1574.86 1431.15 1576.09 1429.13 1576.09zM4326.29 1561.58c-1.61 0-3.19-.77-4.15-2.21-1.54-2.29-.93-5.4 1.36-6.94 5.53-3.72 11.06-7.5 16.44-11.24 2.27-1.58 5.38-1.02 6.96 1.25 1.58 2.27 1.02 5.38-1.25 6.96-5.42 3.77-11 7.58-16.57 11.33C4328.22 1561.3 4327.25 1561.58 4326.29 1561.58zM1382.15 1559.23c-.53 0-1.08-.09-1.61-.27-6.34-2.15-12.68-4.25-18.86-6.24-2.63-.85-4.07-3.66-3.23-6.29.85-2.63 3.66-4.08 6.29-3.23 6.23 2.01 12.63 4.12 19.01 6.29 2.61.89 4.01 3.73 3.13 6.34C1386.18 1557.92 1384.24 1559.23 1382.15 1559.23zM3963.9 1554.17c-.65 0-1.31-.13-1.95-.4-2.54-1.08-3.73-4.01-2.65-6.55 2.59-6.11 5.26-12.31 7.92-18.41 1.1-2.53 4.05-3.69 6.58-2.58 2.53 1.1 3.69 4.05 2.58 6.58-2.65 6.07-5.3 12.23-7.88 18.32C3967.7 1553.03 3965.84 1554.17 3963.9 1554.17zM924.76 1553.53c-1.89 0-3.69-1.07-4.54-2.9-1.16-2.5-.07-5.48 2.43-6.64 6.09-2.83 12.32-5.54 18.5-8.08 2.56-1.05 5.48.18 6.52 2.73 1.05 2.56-.18 5.48-2.73 6.52-6.05 2.48-12.13 5.13-18.08 7.89C926.18 1553.38 925.47 1553.53 924.76 1553.53zM1334.6 1544.14c-.47 0-.94-.07-1.41-.2-6.4-1.88-12.82-3.7-19.09-5.41-2.66-.73-4.23-3.48-3.51-6.14.73-2.66 3.48-4.23 6.14-3.51 6.33 1.73 12.82 3.57 19.28 5.46 2.65.78 4.17 3.56 3.39 6.21C1338.76 1542.73 1336.76 1544.14 1334.6 1544.14zM971.17 1535.15c-2.1 0-4.05-1.33-4.74-3.42-.87-2.62.55-5.45 3.17-6.32 6.36-2.11 12.85-4.12 19.3-5.96 2.66-.76 5.42.78 6.18 3.44.76 2.66-.78 5.42-3.44 6.18-6.31 1.8-12.67 3.76-18.89 5.83C972.22 1535.07 971.69 1535.15 971.17 1535.15zM4367.2 1532.86c-1.54 0-3.06-.71-4.04-2.04-1.63-2.23-1.15-5.36 1.08-6.99 5.36-3.93 10.73-7.93 15.96-11.9 2.2-1.67 5.34-1.24 7.01.96 1.67 2.2 1.24 5.34-.96 7.01-5.28 4.01-10.69 8.05-16.09 12.01C4369.26 1532.55 4368.22 1532.86 4367.2 1532.86zM1286.42 1531.26c-.39 0-.78-.04-1.17-.14-6.46-1.55-12.97-3.03-19.33-4.4-2.7-.58-4.42-3.24-3.83-5.94.58-2.7 3.24-4.42 5.94-3.83 6.44 1.39 13.01 2.88 19.55 4.45 2.69.64 4.34 3.34 3.7 6.03C1290.72 1529.72 1288.68 1531.26 1286.42 1531.26zM1019.33 1521.97c-2.3 0-4.37-1.6-4.88-3.94-.59-2.7 1.13-5.36 3.83-5.95 6.53-1.42 13.2-2.72 19.82-3.87 2.71-.48 5.31 1.35 5.78 4.07.47 2.72-1.35 5.31-4.07 5.78-6.48 1.12-13.01 2.4-19.41 3.79C1020.04 1521.93 1019.68 1521.97 1019.33 1521.97zM1237.6 1521.07c-.29 0-.58-.03-.87-.08-6.54-1.15-13.12-2.23-19.54-3.18-2.73-.41-4.62-2.95-4.21-5.68.41-2.73 2.96-4.62 5.68-4.21 6.51.97 13.18 2.05 19.81 3.22 2.72.48 4.54 3.07 4.06 5.79C1242.09 1519.37 1239.98 1521.07 1237.6 1521.07zM1188.21 1514.11c-.17 0-.35-.01-.52-.03-6.59-.68-13.22-1.27-19.71-1.74-2.75-.2-4.83-2.59-4.63-5.35.2-2.75 2.6-4.82 5.35-4.63 6.59.48 13.33 1.07 20.02 1.77 2.75.29 4.74 2.74 4.46 5.49C1192.91 1512.2 1190.74 1514.11 1188.21 1514.11zM1068.62 1513.94c-2.52 0-4.68-1.89-4.96-4.45-.3-2.74 1.67-5.22 4.42-5.52 6.62-.73 13.39-1.35 20.1-1.82 2.75-.19 5.15 1.88 5.34 4.63.19 2.75-1.88 5.15-4.63 5.34-6.58.47-13.21 1.07-19.7 1.79C1068.99 1513.93 1068.8 1513.94 1068.62 1513.94zM1138.43 1510.94c-.04 0-.07 0-.11 0-6.61-.14-13.23-.17-19.78-.08-2.77.08-5.03-2.17-5.07-4.93-.04-2.76 2.17-5.03 4.93-5.07 6.67-.09 13.41-.07 20.14.08 2.76.06 4.95 2.35 4.89 5.11C1143.37 1508.78 1141.14 1510.94 1138.43 1510.94zM3984 1508.42c-.69 0-1.4-.14-2.07-.45-2.51-1.14-3.62-4.11-2.48-6.62 2.73-6.01 5.56-12.14 8.39-18.21 1.17-2.5 4.14-3.59 6.65-2.42 2.5 1.17 3.58 4.14 2.42 6.65-2.82 6.04-5.63 12.14-8.35 18.12C3987.72 1507.33 3985.9 1508.42 3984 1508.42zM4406.85 1502.46c-1.46 0-2.91-.64-3.9-1.87-1.73-2.15-1.38-5.3.77-7.03 5.19-4.17 10.37-8.41 15.4-12.6 2.12-1.77 5.27-1.48 7.04.64 1.77 2.12 1.48 5.27-.64 7.04-5.07 4.23-10.3 8.51-15.54 12.72C4409.06 1502.1 4407.95 1502.46 4406.85 1502.46zM4445.07 1470.27c-1.38 0-2.76-.57-3.75-1.69-1.83-2.07-1.63-5.23.43-7.06 4.97-4.4 9.94-8.88 14.76-13.32 2.03-1.87 5.2-1.74 7.07.29 1.87 2.03 1.74 5.19-.29 7.06-4.87 4.49-9.89 9.01-14.91 13.45C4447.43 1469.86 4446.25 1470.27 4445.07 1470.27zM4005.26 1463.16c-.73 0-1.47-.16-2.18-.5-2.48-1.2-3.52-4.19-2.32-6.68 2.92-6.03 5.89-12.09 8.83-18.01 1.23-2.47 4.23-3.49 6.7-2.26 2.47 1.23 3.48 4.23 2.26 6.7-2.93 5.9-5.88 11.93-8.79 17.93C4008.9 1462.12 4007.11 1463.16 4005.26 1463.16zM4481.65 1436.25c-1.3 0-2.59-.5-3.57-1.5-1.93-1.97-1.9-5.14.07-7.07 4.73-4.63 9.45-9.36 14.04-14.05 1.93-1.97 5.1-2.01 7.07-.08 1.98 1.93 2.01 5.1.08 7.07-4.64 4.75-9.42 9.53-14.2 14.21C4484.17 1435.78 4482.91 1436.25 4481.65 1436.25zM4027.58 1418.39c-.77 0-1.55-.18-2.28-.55-2.46-1.26-3.43-4.27-2.17-6.73 3.01-5.88 6.12-11.87 9.23-17.82 1.28-2.45 4.3-3.39 6.75-2.11 2.45 1.28 3.39 4.3 2.11 6.75-3.1 5.92-6.19 11.89-9.19 17.74C4031.15 1417.4 4029.4 1418.39 4027.58 1418.39zM4516.36 1400.36c-1.21 0-2.42-.43-3.38-1.31-2.04-1.86-2.18-5.03-.31-7.06 4.47-4.88 8.92-9.86 13.24-14.8 1.82-2.08 4.98-2.29 7.06-.47 2.08 1.82 2.29 4.98.47 7.05-4.36 4.99-8.87 10.03-13.39 14.97C4519.06 1399.81 4517.71 1400.36 4516.36 1400.36zM4050.88 1374.1c-.8 0-1.61-.19-2.37-.6-2.43-1.31-3.34-4.34-2.03-6.77 3.15-5.84 6.38-11.78 9.6-17.63 1.33-2.42 4.37-3.3 6.79-1.98 2.42 1.33 3.31 4.37 1.98 6.79-3.21 5.84-6.42 11.75-9.56 17.57C4054.38 1373.14 4052.66 1374.1 4050.88 1374.1zM4548.99 1362.58c-1.11 0-2.23-.37-3.15-1.12-2.14-1.74-2.46-4.89-.72-7.03 4.18-5.13 8.33-10.36 12.35-15.54 1.69-2.18 4.83-2.58 7.01-.89 2.18 1.69 2.58 4.83.89 7.02-4.07 5.25-8.27 10.54-12.5 15.73C4551.88 1361.95 4550.44 1362.58 4548.99 1362.58zM4075.06 1330.25c-.83 0-1.67-.21-2.45-.65-2.41-1.36-3.26-4.41-1.9-6.81 3.28-5.82 6.61-11.68 9.89-17.4 1.37-2.4 4.43-3.23 6.82-1.85 2.4 1.37 3.23 4.43 1.85 6.82-3.27 5.7-6.58 11.54-9.86 17.34C4078.5 1329.33 4076.81 1330.25 4075.06 1330.25zM4579.31 1322.9c-1 0-2.01-.3-2.89-.92-2.25-1.6-2.78-4.72-1.18-6.97 3.9-5.48 7.67-10.98 11.21-16.34 1.52-2.3 4.63-2.93 6.93-1.41 2.3 1.52 2.93 4.63 1.41 6.93-3.61 5.45-7.44 11.04-11.4 16.61C4582.42 1322.17 4580.87 1322.9 4579.31 1322.9zM4099.96 1286.94c-.86 0-1.73-.22-2.52-.69-2.38-1.4-3.18-4.46-1.79-6.84 3.36-5.74 6.76-11.49 10.17-17.24 1.41-2.37 4.48-3.15 6.85-1.74 2.37 1.41 3.15 4.48 1.74 6.85-3.41 5.73-6.79 11.46-10.14 17.18C4103.35 1286.06 4101.68 1286.94 4099.96 1286.94zM4606.44 1280.96c-.85 0-1.71-.22-2.51-.68-2.39-1.39-3.2-4.45-1.81-6.83 3.36-5.79 6.56-11.61 9.53-17.31 1.28-2.45 4.29-3.4 6.75-2.12 2.45 1.28 3.4 4.3 2.12 6.74-3.04 5.83-6.32 11.79-9.75 17.71C4609.84 1280.07 4608.17 1280.96 4606.44 1280.96zM4125.54 1244.04c-.88 0-1.78-.23-2.59-.73-2.36-1.43-3.12-4.51-1.68-6.87 3.45-5.69 6.92-11.38 10.42-17.08 1.45-2.35 4.52-3.09 6.88-1.65 2.35 1.44 3.09 4.52 1.65 6.88-3.49 5.68-6.95 11.36-10.39 17.03C4128.88 1243.18 4127.23 1244.04 4125.54 1244.04zM4628.91 1236.37c-.65 0-1.32-.13-1.95-.4-2.54-1.08-3.73-4.02-2.65-6.56 2.6-6.11 5.01-12.28 7.17-18.33.93-2.6 3.79-3.96 6.39-3.03 2.6.93 3.96 3.79 3.03 6.39-2.22 6.24-4.71 12.6-7.38 18.89C4632.71 1235.23 4630.86 1236.37 4628.91 1236.37zM4151.73 1201.5c-.91 0-1.82-.25-2.64-.76-2.34-1.46-3.05-4.55-1.59-6.89 1.48-2.37 2.97-4.75 4.46-7.12 2-3.18 4.15-6.5 6.4-9.85 1.54-2.29 4.65-2.9 6.94-1.36 2.29 1.54 2.9 4.65 1.36 6.94-2.19 3.27-4.29 6.49-6.23 9.59-1.49 2.37-2.97 4.74-4.45 7.11C4155.02 1200.66 4153.39 1201.5 4151.73 1201.5zM4644.85 1189.08c-.4 0-.8-.05-1.2-.15-2.68-.66-4.32-3.37-3.66-6.05 1.58-6.39 2.92-12.85 4-19.19.46-2.72 3.04-4.56 5.77-4.09 2.72.46 4.55 3.04 4.09 5.77-1.12 6.58-2.52 13.28-4.15 19.91C4649.13 1187.55 4647.09 1189.08 4644.85 1189.08zM4180.02 1160.32c-1.06 0-2.12-.33-3.03-1.03-2.2-1.68-2.62-4.81-.94-7.01 3.93-5.15 8.13-10.47 12.48-15.82 1.74-2.14 4.89-2.47 7.03-.73 2.14 1.74 2.47 4.89.72 7.03-4.28 5.27-8.42 10.51-12.29 15.58C4183.02 1159.64 4181.53 1160.32 4180.02 1160.32zM4652.11 1139.74c-.07 0-.14 0-.2 0-2.76-.11-4.91-2.44-4.8-5.2.11-2.87.17-5.78.17-8.67 0-3.6-.09-7.25-.27-10.86-.14-2.76 1.99-5.1 4.75-5.24 2.76-.14 5.1 1.99 5.24 4.75.19 3.77.28 7.58.28 11.35 0 3.02-.06 6.08-.18 9.07C4656.99 1137.63 4654.78 1139.74 4652.11 1139.74zM4211.78 1121.72c-1.17 0-2.35-.41-3.3-1.24-2.08-1.82-2.28-4.98-.46-7.06 4.34-4.94 8.86-9.98 13.43-14.96 1.87-2.03 5.03-2.17 7.06-.3 2.03 1.87 2.17 5.03.3 7.06-4.52 4.93-8.99 9.91-13.28 14.8C4214.55 1121.15 4213.17 1121.72 4211.78 1121.72zM4648.5 1090.01c-2.36 0-4.46-1.68-4.91-4.08-1.2-6.42-2.71-12.81-4.48-18.99-.76-2.65.77-5.42 3.43-6.19 2.66-.76 5.42.77 6.19 3.43 1.86 6.48 3.44 13.18 4.7 19.9.51 2.71-1.28 5.33-3.99 5.84C4649.11 1089.98 4648.8 1090.01 4648.5 1090.01zM4245.76 1085.07c-1.26 0-2.52-.47-3.49-1.42-1.98-1.93-2.01-5.1-.08-7.07 4.68-4.79 9.45-9.58 14.19-14.24 1.97-1.94 5.13-1.91 7.07.06 1.94 1.97 1.91 5.13-.06 7.07-4.69 4.61-9.41 9.35-14.04 14.09C4248.36 1084.56 4247.06 1085.07 4245.76 1085.07zM4281.57 1050.21c-1.35 0-2.69-.54-3.67-1.61-1.87-2.03-1.75-5.19.28-7.06 4.96-4.59 9.98-9.12 14.92-13.48 2.07-1.83 5.23-1.63 7.06.44 1.83 2.07 1.63 5.23-.44 7.06-4.88 4.31-9.84 8.79-14.75 13.33C4284 1049.77 4282.79 1050.21 4281.57 1050.21zM4633.54 1042.47c-1.89 0-3.71-1.08-4.55-2.92-2.73-5.95-5.77-11.73-9.05-17.19-1.42-2.37-.65-5.44 1.71-6.86 2.37-1.42 5.44-.65 6.86 1.71 3.46 5.77 6.68 11.88 9.56 18.16 1.15 2.51.05 5.48-2.46 6.63C4634.95 1042.32 4634.24 1042.47 4633.54 1042.47zM4319.27 1017.39c-1.45 0-2.89-.63-3.88-1.84-1.74-2.14-1.42-5.29.72-7.03 5.37-4.38 10.69-8.58 15.83-12.49 2.2-1.67 5.33-1.25 7.01.95 1.67 2.2 1.25 5.33-.95 7.01-5.04 3.84-10.28 7.98-15.57 12.29C4321.5 1017.02 4320.38 1017.39 4319.27 1017.39zM4606.62 1000.59c-1.39 0-2.77-.57-3.76-1.7-4.28-4.87-8.88-9.46-13.66-13.65-2.08-1.82-2.29-4.98-.47-7.06 1.82-2.08 4.98-2.29 7.06-.47 5.11 4.47 10.02 9.38 14.58 14.57 1.82 2.07 1.62 5.23-.45 7.06C4608.97 1000.18 4607.79 1000.59 4606.62 1000.59zM4359.39 987.6c-1.64 0-3.24-.8-4.2-2.28-1.5-2.32-.85-5.41 1.47-6.92 5.65-3.67 11.55-7.17 17.54-10.4 2.43-1.31 5.46-.4 6.77 2.03 1.31 2.43.4 5.46-2.03 6.77-5.75 3.1-11.42 6.46-16.84 9.98C4361.27 987.34 4360.32 987.6 4359.39 987.6zM4568.09 969.18c-.83 0-1.68-.21-2.46-.65-5.55-3.14-11.4-5.95-17.4-8.36-2.56-1.03-3.81-3.94-2.78-6.5 1.03-2.56 3.94-3.81 6.5-2.78 6.41 2.57 12.66 5.58 18.6 8.93 2.4 1.36 3.25 4.41 1.89 6.81C4571.53 968.26 4569.83 969.18 4568.09 969.18zM4403.77 964.83c-2 0-3.88-1.2-4.66-3.18-1.01-2.57.26-5.47 2.83-6.48 6.33-2.48 12.81-4.72 19.27-6.66 2.64-.79 5.43.71 6.23 3.35.79 2.65-.71 5.43-3.35 6.23-6.2 1.86-12.42 4.01-18.5 6.39C4404.99 964.71 4404.37 964.83 4403.77 964.83zM4521.39 952.07c-.32 0-.65-.03-.98-.1-6.24-1.23-12.7-2.13-19.22-2.67-2.75-.23-4.8-2.64-4.57-5.39.23-2.75 2.65-4.8 5.4-4.57 6.89.57 13.73 1.52 20.34 2.82 2.71.54 4.47 3.17 3.94 5.88C4525.82 950.42 4523.73 952.07 4521.39 952.07zM4451.82 951.53c-2.41 0-4.53-1.74-4.93-4.19-.45-2.72 1.4-5.3 4.12-5.74 6.78-1.11 13.6-1.92 20.3-2.39 2.73-.21 5.14 1.88 5.34 4.64.19 2.75-1.88 5.14-4.64 5.34-6.39.45-12.91 1.22-19.38 2.28C4452.36 951.5 4452.09 951.53 4451.82 951.53zM4900.58 3112.55c-.02 0-.04 0-.06 0-3.34-.04-6.69-.09-10.03-.15-2.76-.05-4.96-2.33-4.91-5.09.05-2.73 2.28-4.91 5-4.91.03 0 .06 0 .09 0 3.32.06 6.65.11 9.97.15 2.76.04 4.97 2.3 4.94 5.06C4905.55 3110.35 4903.31 3112.55 4900.58 3112.55z" class="color85c74c svgShape"/><g fill="#000000" class="color000 svgShape"><path fill="#ffc057" d="M4020.03 2179.09c-20.56 0-37.28-16.72-37.28-37.28s16.72-37.28 37.28-37.28 37.28 16.72 37.28 37.28S4040.59 2179.09 4020.03 2179.09zM4020.03 2119.82c-12.13 0-21.99 9.87-21.99 21.99 0 12.13 9.86 21.99 21.99 21.99s21.99-9.86 21.99-21.99C4042.02 2129.68 4032.16 2119.82 4020.03 2119.82zM1513.75 1407c-20.59 0-37.33-16.75-37.33-37.33 0-20.59 16.75-37.33 37.33-37.33 20.58 0 37.33 16.75 37.33 37.33C1551.08 1390.25 1534.33 1407 1513.75 1407zM1513.75 1347.65c-12.14 0-22.02 9.88-22.02 22.02 0 12.14 9.88 22.02 22.02 22.02 12.14 0 22.02-9.88 22.02-22.02C1535.77 1357.52 1525.89 1347.65 1513.75 1347.65z" class="colorffc057 svgShape"/><path fill="#85c74c" d="M1088.95 3005.93h-19.66v-27.72c0-3.08-2.5-5.58-5.58-5.58s-5.58 2.5-5.58 5.58v27.72h-19.66c-3.08 0-5.58 2.5-5.58 5.58 0 3.08 2.5 5.58 5.58 5.58h19.66v27.72c0 3.08 2.5 5.58 5.58 5.58s5.58-2.5 5.58-5.58v-27.72h19.66c3.08 0 5.58-2.5 5.58-5.58C1094.53 3008.43 1092.04 3005.93 1088.95 3005.93zM3774.83 745.57h-29.51v-41.61c0-4.62-3.75-8.37-8.37-8.37-4.62 0-8.37 3.75-8.37 8.37v41.61h-29.51c-4.62 0-8.37 3.75-8.37 8.37 0 4.62 3.75 8.37 8.37 8.37h29.51v41.61c0 4.62 3.75 8.37 8.37 8.37 4.62 0 8.37-3.75 8.37-8.37v-41.61h29.51c4.62 0 8.37-3.75 8.37-8.37C3783.2 749.32 3779.46 745.57 3774.83 745.57z" class="color85c74c svgShape"/></g><g fill="#000000" class="color000 svgShape"><path fill="#85c74c" d="M1571.09 1155.21l-91.24 4.59c-6.94.35-12.84-4.99-13.19-11.93-.35-6.94 4.99-12.84 11.93-13.19l91.24-4.59c6.94-.35 12.84 4.99 13.19 11.93C1583.37 1148.95 1578.03 1154.86 1571.09 1155.21zM1681.07 1033.58c-6.94.35-12.84-4.99-13.19-11.93l-4.59-91.24c-.35-6.94 4.99-12.84 11.93-13.19 6.94-.35 12.84 4.99 13.19 11.93l4.59 91.24C1693.34 1027.32 1688 1033.23 1681.07 1033.58zM1598.96 1069.87c-3.21.16-6.49-.9-9.07-3.23l-65.83-59.52c-5.15-4.66-5.55-12.61-.89-17.76 4.66-5.15 12.61-5.55 17.76-.89l65.83 59.52c5.15 4.66 5.55 12.61.89 17.76C1605.33 1068.32 1602.17 1069.71 1598.96 1069.87z" class="color85c74c svgShape"/></g><g fill="#000000" class="color000 svgShape"><path fill="#ffc057" d="M3841.58,1518.67l-148.31-39.74l33.36-124.48c7.2-26.85-8.74-54.46-35.59-61.65L2452.46,960.91   c-26.79-7.18-54.33,8.72-61.51,35.51l-466.48,1740.91c-7.18,26.79,8.72,54.33,35.51,61.51l1238.61,331.89    c26.83,7.19,54.41-8.73,61.6-35.56l242.09-903.51l148.31,39.74c35.53,9.52,72.05-11.57,81.57-47.1l156.5-584.07    C3898.2,1564.71,3877.11,1528.19,3841.58,1518.67z" class="colorffc057 svgShape"/><path fill="#f2f2f2" d="M3043.71,2884.98l-1209.93,60.89c-27.58,1.39-51.07-19.85-52.45-47.42l-85.67-1702.43    c-1.39-27.58,19.84-51.06,47.42-52.45l212.82-10.71l997.12-50.18c27.58-1.39,51.06,19.85,52.45,47.43l85.32,1695.47l0.35,6.95    C3092.53,2860.11,3071.29,2883.6,3043.71,2884.98z" class="colorf2f2f2 svgShape"/><path fill="#f2f2f2" d="M3090.79,2825.58l-657.96-43.77l-534.15-35.53c-27.56-1.84-48.41-25.66-46.57-53.21l103.79-1560.21    l997.12-50.18c27.58-1.39,51.06,19.85,52.45,47.43L3090.79,2825.58z" opacity=".5" class="colorf2f2f2 svgShape"/><path fill="#f7f7f7" d="M3321.03,1126.67l-3.9,58.58L3207.89,2827.5c-1.83,27.55-25.65,48.4-53.2,46.57l-674.65-44.88l-534.15-35.53    c-27.56-1.84-48.41-25.66-46.57-53.21l113.14-1700.82c1.83-27.56,25.65-48.41,53.2-46.57l285.66,19l424.93,28.26l498.21,33.14    C3302.02,1075.3,3322.87,1099.12,3321.03,1126.67z" class="colorf7f7f7 svgShape"/><path fill="#f7f7f7" d="M3317.13,1185.25L3207.89,2827.5c-1.83,27.55-25.65,48.4-53.2,46.57l-674.65-44.88l-529.96-142    c-24.53-6.58-39.09-31.79-32.51-56.32l433.75-1618.81l424.93,28.26L3317.13,1185.25z" opacity=".5" class="colorf7f7f7 svgShape"/><path fill="#ffffff" d="M3162.43,3067.53L1984.49,2751.9c-24.53-6.57-39.09-31.79-32.52-56.32l442.22-1650.38    c7.15-26.67,34.56-42.5,61.24-35.36l1174.07,314.59c24.53,6.57,39.09,31.79,32.52,56.32l-443.26,1654.26    C3212.18,3059.55,3186.97,3074.11,3162.43,3067.53z" class="colorfff svgShape"/><g fill="#000000" class="color000 svgShape"><circle cx="2806.99" cy="2038.17" r="302.43" fill="#85c74c" class="color85c74c svgShape"/><path fill="#ffc057" d="M2907.33,1663.7c-1.26-0.34-2.01-1.64-1.68-2.9l27.8-103.75c0.34-1.26,1.64-2.01,2.9-1.67         c1.26,0.34,2.01,1.64,1.68,2.9l-27.8,103.75C2909.89,1663.29,2908.59,1664.04,2907.33,1663.7z" class="colorffc057 svgShape"/><path fill="#ffc057" d="M2907.94 1668.34c-.59 0-1.19-.08-1.79-.24l0 0c-3.69-.99-5.88-4.79-4.9-8.48l27.8-103.75c.99-3.69 4.79-5.88 8.48-4.9 1.79.48 3.28 1.62 4.2 3.23.93 1.6 1.17 3.47.69 5.25l-27.8 103.74C2913.8 1666.29 2911 1668.34 2907.94 1668.34zM2677.63 2520.97c-1.26-.34-2.01-1.64-1.68-2.9l27.8-103.75c.34-1.26 1.64-2.01 2.9-1.68s2.01 1.64 1.68 2.9l-27.8 103.75C2680.19 2520.56 2678.89 2521.31 2677.63 2520.97z" class="colorffc057 svgShape"/><path fill="#ffc057" d="M2678.25 2525.61c-.6 0-1.21-.08-1.8-.24-3.69-.99-5.88-4.79-4.89-8.48l27.8-103.75c.99-3.69 4.79-5.89 8.48-4.9 3.69.99 5.88 4.79 4.89 8.48l-27.8 103.75c-.48 1.79-1.62 3.28-3.23 4.2C2680.63 2525.29 2679.45 2525.61 2678.25 2525.61zM2429.62 1939.51l-103.75-27.8c-1.26-.34-2.01-1.64-1.68-2.9.34-1.26 1.64-2.01 2.9-1.68l103.75 27.8c1.26.34 2.01 1.64 1.68 2.9C2432.18 1939.1 2430.88 1939.85 2429.62 1939.51z" class="colorffc057 svgShape"/><path fill="#ffc057" d="M2430.24 1944.15c-.6 0-1.21-.08-1.8-.24l-103.75-27.8c-1.79-.48-3.28-1.62-4.2-3.23-.92-1.6-1.17-3.47-.69-5.25.99-3.69 4.79-5.88 8.48-4.9l103.75 27.8c1.79.48 3.28 1.62 4.2 3.23.92 1.6 1.17 3.47.69 5.25-.48 1.79-1.62 3.28-3.23 4.2C2432.62 1943.84 2431.44 1944.15 2430.24 1944.15zM3286.89 2169.21l-103.75-27.8c-1.26-.34-2.01-1.64-1.68-2.9.34-1.26 1.64-2.01 2.9-1.68l103.75 27.8c1.26.34 2.01 1.64 1.68 2.9C3289.45 2168.8 3288.15 2169.55 3286.89 2169.21z" class="colorffc057 svgShape"/><path fill="#ffc057" d="M3287.51 2173.85c-.6 0-1.21-.08-1.8-.24l-103.75-27.8c-3.69-.99-5.88-4.79-4.9-8.48.99-3.69 4.79-5.88 8.48-4.9l103.75 27.8c1.79.48 3.28 1.63 4.2 3.23.93 1.6 1.17 3.47.69 5.25-.48 1.78-1.62 3.28-3.22 4.2C3289.89 2173.53 3288.71 2173.85 3287.51 2173.85zM2375.57 2289.19c-.59-.16-1.11-.54-1.44-1.1-.65-1.13-.27-2.58.87-3.24l93.01-53.7c1.13-.65 2.58-.27 3.24.87.65 1.13.27 2.58-.87 3.24l-93.01 53.7C2376.8 2289.28 2376.15 2289.35 2375.57 2289.19z" class="colorffc057 svgShape"/><path fill="#ffc057" d="M2376.19 2293.83c-.6 0-1.21-.08-1.8-.24h0c-1.79-.48-3.28-1.62-4.21-3.23-.92-1.6-1.17-3.47-.69-5.25.48-1.79 1.62-3.28 3.23-4.2l93.01-53.7c3.31-1.91 7.55-.77 9.46 2.53.92 1.6 1.17 3.47.69 5.25-.48 1.79-1.62 3.28-3.23 4.2l-93.01 53.7C2378.58 2293.51 2377.39 2293.83 2376.19 2293.83zM3144.17 1845.44c-.59-.16-1.11-.54-1.44-1.1-.65-1.13-.27-2.58.87-3.24l93.01-53.7c1.13-.65 2.58-.27 3.24.87.65 1.13.27 2.58-.87 3.24l-93.01 53.7C3145.4 1845.53 3144.76 1845.59 3144.17 1845.44z" class="colorffc057 svgShape"/><path fill="#ffc057" d="M3144.8 1850.07c-.6 0-1.21-.08-1.8-.24l0 0c-1.79-.48-3.28-1.62-4.2-3.22-1.91-3.31-.77-7.55 2.53-9.46l93.01-53.7c3.3-1.91 7.55-.77 9.46 2.53.93 1.6 1.17 3.47.69 5.26-.48 1.79-1.62 3.28-3.23 4.21l-93.01 53.7C3147.18 1849.76 3146 1850.07 3144.8 1850.07zM2611.35 1702.67c-.59-.16-1.11-.54-1.44-1.1l-53.7-93.02c-.65-1.13-.27-2.58.87-3.24 1.13-.65 2.58-.27 3.24.87l53.7 93.02c.65 1.13.27 2.58-.87 3.24C2612.58 1702.76 2611.94 1702.82 2611.35 1702.67z" class="colorffc057 svgShape"/><path fill="#ffc057" d="M2611.98 1707.31c-.6 0-1.2-.08-1.8-.24l0 0c-1.79-.48-3.28-1.62-4.2-3.23l-53.7-93.02c-.92-1.6-1.17-3.47-.69-5.25.48-1.79 1.63-3.28 3.23-4.2 3.3-1.91 7.55-.77 9.46 2.53l53.7 93.02c1.91 3.31.77 7.55-2.53 9.46C2614.36 1706.99 2613.18 1707.31 2611.98 1707.31zM3055.1 2471.27c-.59-.16-1.11-.54-1.44-1.1l-53.7-93.02c-.65-1.13-.27-2.58.87-3.24 1.13-.65 2.58-.27 3.24.87l53.7 93.02c.65 1.13.27 2.58-.87 3.24C3056.34 2471.36 3055.69 2471.43 3055.1 2471.27z" class="colorffc057 svgShape"/><path fill="#ffc057" d="M3055.73,2475.91c-0.6,0-1.2-0.08-1.8-0.24l-0.01,0c-1.78-0.48-3.28-1.62-4.2-3.22l-53.7-93.02         c-0.92-1.6-1.17-3.47-0.69-5.25c0.48-1.79,1.62-3.28,3.23-4.21c3.31-1.91,7.55-0.77,9.46,2.54l53.7,93.01         c0.93,1.6,1.17,3.47,0.69,5.25c-0.48,1.79-1.62,3.28-3.23,4.2C3058.11,2475.6,3056.93,2475.91,3055.73,2475.91z" class="colorffc057 svgShape"/><g fill="#000000" class="color000 svgShape"><path fill="#ffc057" d="M2907.33,1663.7c-1.26-0.34-2.01-1.64-1.68-2.9l27.8-103.75c0.34-1.26,1.64-2.01,2.9-1.67         c1.26,0.34,2.01,1.64,1.68,2.9l-27.8,103.75C2909.89,1663.29,2908.59,1664.04,2907.33,1663.7z" class="colorffc057 svgShape"/><path fill="#ffc057" d="M2907.94,1668.34c-0.59,0-1.19-0.08-1.79-0.24l0,0c-3.69-0.99-5.88-4.79-4.9-8.48l27.8-103.75         c0.99-3.69,4.79-5.88,8.48-4.9c1.79,0.48,3.28,1.62,4.2,3.23c0.93,1.6,1.17,3.47,0.69,5.25l-27.8,103.74         C2913.8,1666.29,2911,1668.34,2907.94,1668.34z" class="colorffc057 svgShape"/></g><g fill="#000000" class="color000 svgShape"><path fill="#ffc057" d="M2677.63,2520.97c-1.26-0.34-2.01-1.64-1.68-2.9l27.8-103.75c0.34-1.26,1.64-2.01,2.9-1.68         s2.01,1.64,1.68,2.9l-27.8,103.75C2680.19,2520.56,2678.89,2521.31,2677.63,2520.97z" class="colorffc057 svgShape"/><path fill="#ffc057" d="M2678.25,2525.61c-0.6,0-1.21-0.08-1.8-0.24c-3.69-0.99-5.88-4.79-4.89-8.48l27.8-103.75         c0.99-3.69,4.79-5.89,8.48-4.9c3.69,0.99,5.88,4.79,4.89,8.48l-27.8,103.75c-0.48,1.79-1.62,3.28-3.23,4.2         C2680.63,2525.29,2679.45,2525.61,2678.25,2525.61z" class="colorffc057 svgShape"/></g><g fill="#000000" class="color000 svgShape"><path fill="#ffc057" d="M2429.62,1939.51l-103.75-27.8c-1.26-0.34-2.01-1.64-1.68-2.9c0.34-1.26,1.64-2.01,2.9-1.68l103.75,27.8         c1.26,0.34,2.01,1.64,1.68,2.9C2432.18,1939.1,2430.88,1939.85,2429.62,1939.51z" class="colorffc057 svgShape"/><path fill="#ffc057" d="M2430.24,1944.15c-0.6,0-1.21-0.08-1.8-0.24l-103.75-27.8c-1.79-0.48-3.28-1.62-4.2-3.23         c-0.92-1.6-1.17-3.47-0.69-5.25c0.99-3.69,4.79-5.88,8.48-4.9l103.75,27.8c1.79,0.48,3.28,1.62,4.2,3.23         c0.92,1.6,1.17,3.47,0.69,5.25c-0.48,1.79-1.62,3.28-3.23,4.2C2432.62,1943.84,2431.44,1944.15,2430.24,1944.15z" class="colorffc057 svgShape"/></g><g fill="#000000" class="color000 svgShape"><path fill="#ffc057" d="M3286.89,2169.21l-103.75-27.8c-1.26-0.34-2.01-1.64-1.68-2.9c0.34-1.26,1.64-2.01,2.9-1.68l103.75,27.8         c1.26,0.34,2.01,1.64,1.68,2.9C3289.45,2168.8,3288.15,2169.55,3286.89,2169.21z" class="colorffc057 svgShape"/><path fill="#ffc057" d="M3287.51,2173.85c-0.6,0-1.21-0.08-1.8-0.24l-103.75-27.8c-3.69-0.99-5.88-4.79-4.9-8.48         c0.99-3.69,4.79-5.88,8.48-4.9l103.75,27.8c1.79,0.48,3.28,1.63,4.2,3.23c0.93,1.6,1.17,3.47,0.69,5.25         c-0.48,1.78-1.62,3.28-3.22,4.2C3289.89,2173.53,3288.71,2173.85,3287.51,2173.85z" class="colorffc057 svgShape"/></g><g fill="#000000" class="color000 svgShape"><path fill="#ffc057" d="M2375.57,2289.19c-0.59-0.16-1.11-0.54-1.44-1.1c-0.65-1.13-0.27-2.58,0.87-3.24l93.01-53.7         c1.13-0.65,2.58-0.27,3.24,0.87c0.65,1.13,0.27,2.58-0.87,3.24l-93.01,53.7C2376.8,2289.28,2376.15,2289.35,2375.57,2289.19z         " class="colorffc057 svgShape"/><path fill="#ffc057" d="M2376.19,2293.83c-0.6,0-1.21-0.08-1.8-0.24h0c-1.79-0.48-3.28-1.62-4.21-3.23         c-0.92-1.6-1.17-3.47-0.69-5.25c0.48-1.79,1.62-3.28,3.23-4.2l93.01-53.7c3.31-1.91,7.55-0.77,9.46,2.53         c0.92,1.6,1.17,3.47,0.69,5.25c-0.48,1.79-1.62,3.28-3.23,4.2l-93.01,53.7C2378.58,2293.51,2377.39,2293.83,2376.19,2293.83z         " class="colorffc057 svgShape"/></g><g fill="#000000" class="color000 svgShape"><path fill="#ffc057" d="M3144.17,1845.44c-0.59-0.16-1.11-0.54-1.44-1.1c-0.65-1.13-0.27-2.58,0.87-3.24l93.01-53.7         c1.13-0.65,2.58-0.27,3.24,0.87c0.65,1.13,0.27,2.58-0.87,3.24l-93.01,53.7C3145.4,1845.53,3144.76,1845.59,3144.17,1845.44z         " class="colorffc057 svgShape"/><path fill="#ffc057" d="M3144.8,1850.07c-0.6,0-1.21-0.08-1.8-0.24l0,0c-1.79-0.48-3.28-1.62-4.2-3.22         c-1.91-3.31-0.77-7.55,2.53-9.46l93.01-53.7c3.3-1.91,7.55-0.77,9.46,2.53c0.93,1.6,1.17,3.47,0.69,5.26         c-0.48,1.79-1.62,3.28-3.23,4.21l-93.01,53.7C3147.18,1849.76,3146,1850.07,3144.8,1850.07z" class="colorffc057 svgShape"/></g><g fill="#000000" class="color000 svgShape"><path fill="#ffc057" d="M2611.35,1702.67c-0.59-0.16-1.11-0.54-1.44-1.1l-53.7-93.02c-0.65-1.13-0.27-2.58,0.87-3.24         c1.13-0.65,2.58-0.27,3.24,0.87l53.7,93.02c0.65,1.13,0.27,2.58-0.87,3.24C2612.58,1702.76,2611.94,1702.82,2611.35,1702.67z         " class="colorffc057 svgShape"/><path fill="#ffc057" d="M2611.98,1707.31c-0.6,0-1.2-0.08-1.8-0.24l0,0c-1.79-0.48-3.28-1.62-4.2-3.23l-53.7-93.02         c-0.92-1.6-1.17-3.47-0.69-5.25c0.48-1.79,1.63-3.28,3.23-4.2c3.3-1.91,7.55-0.77,9.46,2.53l53.7,93.02         c1.91,3.31,0.77,7.55-2.53,9.46C2614.36,1706.99,2613.18,1707.31,2611.98,1707.31z" class="colorffc057 svgShape"/></g><g fill="#000000" class="color000 svgShape"><path fill="#ffc057" d="M3055.1,2471.27c-0.59-0.16-1.11-0.54-1.44-1.1l-53.7-93.02c-0.65-1.13-0.27-2.58,0.87-3.24         c1.13-0.65,2.58-0.27,3.24,0.87l53.7,93.02c0.65,1.13,0.27,2.58-0.87,3.24C3056.34,2471.36,3055.69,2471.43,3055.1,2471.27z" class="colorffc057 svgShape"/><path fill="#ffc057" d="M3055.73,2475.91c-0.6,0-1.2-0.08-1.8-0.24l-0.01,0c-1.78-0.48-3.28-1.62-4.2-3.22l-53.7-93.02         c-0.92-1.6-1.17-3.47-0.69-5.25c0.48-1.79,1.62-3.28,3.23-4.21c3.31-1.91,7.55-0.77,9.46,2.54l53.7,93.01         c0.93,1.6,1.17,3.47,0.69,5.25c-0.48,1.79-1.62,3.28-3.23,4.2C3058.11,2475.6,3056.93,2475.91,3055.73,2475.91z" class="colorffc057 svgShape"/></g><g fill="#000000" class="color000 svgShape"><path fill="#ffc057" d="M2496.39,1803.55c-0.29-0.08-0.57-0.21-0.82-0.41l-85.26-65.16c-1.04-0.79-1.24-2.28-0.44-3.32         c0.79-1.04,2.28-1.24,3.32-0.44l85.26,65.16c1.04,0.79,1.24,2.28,0.44,3.32C2498.29,1803.49,2497.29,1803.79,2496.39,1803.55         z" class="colorffc057 svgShape"/><path fill="#ffc057" d="M2497.02 1808.19c-.6 0-1.2-.08-1.8-.24l0 0c-.88-.24-1.69-.64-2.41-1.19l-85.25-65.16c-3.03-2.32-3.62-6.67-1.3-9.71 1.12-1.47 2.75-2.41 4.58-2.66 1.83-.24 3.65.24 5.12 1.36l85.26 65.16c3.03 2.32 3.62 6.67 1.3 9.7C2501.17 1807.21 2499.14 1808.19 2497.02 1808.19zM3201.62 2342.53c-.29-.08-.57-.21-.82-.41l-85.26-65.16c-1.04-.79-1.24-2.28-.44-3.32s2.28-1.24 3.32-.44l85.26 65.16c1.04.79 1.24 2.28.44 3.32C3203.51 2342.47 3202.52 2342.77 3201.62 2342.53z" class="colorffc057 svgShape"/><path fill="#ffc057" d="M3202.24 2347.17c-.6 0-1.2-.08-1.8-.24l0 0c-.88-.24-1.69-.63-2.42-1.19l-85.26-65.16c-3.03-2.32-3.61-6.67-1.3-9.71 1.12-1.47 2.75-2.41 4.58-2.66 1.83-.24 3.65.24 5.12 1.36l85.25 65.16c1.47 1.12 2.41 2.75 2.66 4.58.24 1.83-.24 3.65-1.36 5.12C3206.4 2346.19 3204.37 2347.17 3202.24 2347.17zM2504.31 2435.71c-.29-.08-.57-.21-.82-.41-1.04-.79-1.24-2.28-.44-3.32l65.16-85.26c.79-1.04 2.28-1.24 3.32-.44 1.04.79 1.24 2.28.44 3.32l-65.16 85.26C2506.21 2435.64 2505.21 2435.95 2504.31 2435.71z" class="colorffc057 svgShape"/><path fill="#ffc057" d="M2504.94 2440.34c-.6 0-1.21-.08-1.8-.24l-.01 0c-.88-.24-1.69-.64-2.41-1.19-3.03-2.32-3.61-6.67-1.3-9.7l65.16-85.26c1.12-1.47 2.75-2.41 4.58-2.66 1.83-.25 3.65.24 5.12 1.36 1.47 1.12 2.41 2.75 2.66 4.58.25 1.83-.24 3.65-1.36 5.12l-65.16 85.26C2509.09 2439.37 2507.06 2440.34 2504.94 2440.34zM3043.29 1730.47c-.29-.08-.57-.21-.82-.41-1.04-.79-1.24-2.28-.44-3.32l65.16-85.26c.79-1.04 2.28-1.24 3.32-.44 1.04.79 1.24 2.28.44 3.32l-65.16 85.26C3045.18 1730.41 3044.19 1730.71 3043.29 1730.47z" class="colorffc057 svgShape"/><path fill="#ffc057" d="M3043.91 1735.11c-.6 0-1.2-.08-1.8-.24l0 0c-.88-.23-1.69-.63-2.42-1.19-3.03-2.32-3.61-6.67-1.3-9.7l65.16-85.26c1.12-1.47 2.75-2.41 4.58-2.66 1.84-.24 3.65.24 5.12 1.36 1.47 1.12 2.41 2.75 2.66 4.58.24 1.83-.24 3.65-1.36 5.12l-65.16 85.26C3048.07 1734.13 3046.03 1735.11 3043.91 1735.11zM2872.26 2533.54c-.9-.24-1.61-1-1.74-1.98l-14.21-106.36c-.17-1.3.74-2.49 2.03-2.66 1.3-.17 2.49.74 2.66 2.03l14.21 106.36c.17 1.3-.74 2.49-2.03 2.66C2872.87 2533.64 2872.55 2533.62 2872.26 2533.54z" class="colorffc057 svgShape"/><path fill="#ffc057" d="M2872.87 2538.17c-.6 0-1.19-.08-1.78-.23l-.01 0c-2.71-.73-4.7-2.99-5.07-5.77l-14.21-106.36c-.24-1.83.24-3.65 1.36-5.12 1.12-1.47 2.75-2.41 4.58-2.66 1.83-.25 3.65.24 5.12 1.36 1.47 1.12 2.41 2.75 2.66 4.58l14.21 106.36c.51 3.78-2.16 7.27-5.94 7.78C2873.48 2538.15 2873.17 2538.17 2872.87 2538.17zM2754.71 1653.75c-.9-.24-1.6-1-1.74-1.98l-14.21-106.36c-.17-1.3.74-2.49 2.03-2.66 1.3-.17 2.49.74 2.66 2.03l14.21 106.36c.17 1.3-.74 2.49-2.03 2.66C2755.31 1653.85 2755 1653.82 2754.71 1653.75z" class="colorffc057 svgShape"/><path fill="#ffc057" d="M2755.31 1658.38c-.6 0-1.2-.08-1.78-.23l0 0c-2.71-.73-4.7-2.99-5.07-5.77l-14.21-106.36c-.5-3.78 2.16-7.27 5.95-7.78 1.83-.24 3.65.24 5.12 1.36 1.47 1.12 2.41 2.75 2.66 4.58l14.21 106.36c.5 3.79-2.16 7.27-5.95 7.78C2755.93 1658.36 2755.62 1658.38 2755.31 1658.38zM2313.3 2106.34c-.9-.24-1.6-1-1.74-1.98-.17-1.3.74-2.49 2.03-2.66l106.36-14.21c1.3-.17 2.49.74 2.66 2.03.17 1.3-.74 2.49-2.03 2.66l-106.36 14.21C2313.91 2106.45 2313.6 2106.42 2313.3 2106.34z" class="colorffc057 svgShape"/><path fill="#ffc057" d="M2313.91 2110.98c-.6 0-1.2-.08-1.78-.23l0 0c-2.71-.73-4.7-2.99-5.07-5.77-.5-3.78 2.16-7.27 5.95-7.78l106.36-14.21c1.83-.25 3.65.24 5.12 1.36 1.47 1.12 2.41 2.75 2.66 4.58.5 3.78-2.16 7.27-5.95 7.78l-106.36 14.21C2314.52 2110.96 2314.22 2110.98 2313.91 2110.98zM3193.09 1988.79c-.9-.24-1.61-1-1.74-1.98-.17-1.3.74-2.49 2.03-2.66l106.36-14.21c1.3-.17 2.49.74 2.66 2.03.17 1.3-.74 2.49-2.03 2.66l-106.36 14.21C3193.7 1988.89 3193.39 1988.87 3193.09 1988.79z" class="colorffc057 svgShape"/><path fill="#ffc057" d="M3193.7,1993.43c-0.6,0-1.2-0.08-1.79-0.24c-2.71-0.73-4.7-2.99-5.07-5.77         c-0.24-1.83,0.24-3.65,1.36-5.12c1.12-1.47,2.75-2.41,4.58-2.66l106.36-14.21c1.84-0.24,3.65,0.24,5.12,1.36         c1.47,1.12,2.41,2.75,2.66,4.58c0.25,1.83-0.24,3.65-1.36,5.12c-1.12,1.47-2.75,2.41-4.58,2.66l-106.36,14.21         C3194.32,1993.41,3194.01,1993.43,3193.7,1993.43z" class="colorffc057 svgShape"/><g fill="#000000" class="color000 svgShape"><path fill="#ffc057" d="M2496.39,1803.55c-0.29-0.08-0.57-0.21-0.82-0.41l-85.26-65.16c-1.04-0.79-1.24-2.28-0.44-3.32         c0.79-1.04,2.28-1.24,3.32-0.44l85.26,65.16c1.04,0.79,1.24,2.28,0.44,3.32C2498.29,1803.49,2497.29,1803.79,2496.39,1803.55         z" class="colorffc057 svgShape"/><path fill="#ffc057" d="M2497.02,1808.19c-0.6,0-1.2-0.08-1.8-0.24l0,0c-0.88-0.24-1.69-0.64-2.41-1.19l-85.25-65.16         c-3.03-2.32-3.62-6.67-1.3-9.71c1.12-1.47,2.75-2.41,4.58-2.66c1.83-0.24,3.65,0.24,5.12,1.36l85.26,65.16         c3.03,2.32,3.62,6.67,1.3,9.7C2501.17,1807.21,2499.14,1808.19,2497.02,1808.19z" class="colorffc057 svgShape"/></g><g fill="#000000" class="color000 svgShape"><path fill="#ffc057" d="M3201.62,2342.53c-0.29-0.08-0.57-0.21-0.82-0.41l-85.26-65.16c-1.04-0.79-1.24-2.28-0.44-3.32         s2.28-1.24,3.32-0.44l85.26,65.16c1.04,0.79,1.24,2.28,0.44,3.32C3203.51,2342.47,3202.52,2342.77,3201.62,2342.53z" class="colorffc057 svgShape"/><path fill="#ffc057" d="M3202.24,2347.17c-0.6,0-1.2-0.08-1.8-0.24l0,0c-0.88-0.24-1.69-0.63-2.42-1.19l-85.26-65.16         c-3.03-2.32-3.61-6.67-1.3-9.71c1.12-1.47,2.75-2.41,4.58-2.66c1.83-0.24,3.65,0.24,5.12,1.36l85.25,65.16         c1.47,1.12,2.41,2.75,2.66,4.58c0.24,1.83-0.24,3.65-1.36,5.12C3206.4,2346.19,3204.37,2347.17,3202.24,2347.17z" class="colorffc057 svgShape"/></g><g fill="#000000" class="color000 svgShape"><path fill="#ffc057" d="M2504.31,2435.71c-0.29-0.08-0.57-0.21-0.82-0.41c-1.04-0.79-1.24-2.28-0.44-3.32l65.16-85.26         c0.79-1.04,2.28-1.24,3.32-0.44c1.04,0.79,1.24,2.28,0.44,3.32l-65.16,85.26         C2506.21,2435.64,2505.21,2435.95,2504.31,2435.71z" class="colorffc057 svgShape"/><path fill="#ffc057" d="M2504.94,2440.34c-0.6,0-1.21-0.08-1.8-0.24l-0.01,0c-0.88-0.24-1.69-0.64-2.41-1.19         c-3.03-2.32-3.61-6.67-1.3-9.7l65.16-85.26c1.12-1.47,2.75-2.41,4.58-2.66c1.83-0.25,3.65,0.24,5.12,1.36         c1.47,1.12,2.41,2.75,2.66,4.58c0.25,1.83-0.24,3.65-1.36,5.12l-65.16,85.26         C2509.09,2439.37,2507.06,2440.34,2504.94,2440.34z" class="colorffc057 svgShape"/></g><g fill="#000000" class="color000 svgShape"><path fill="#ffc057" d="M3043.29,1730.47c-0.29-0.08-0.57-0.21-0.82-0.41c-1.04-0.79-1.24-2.28-0.44-3.32l65.16-85.26         c0.79-1.04,2.28-1.24,3.32-0.44c1.04,0.79,1.24,2.28,0.44,3.32l-65.16,85.26         C3045.18,1730.41,3044.19,1730.71,3043.29,1730.47z" class="colorffc057 svgShape"/><path fill="#ffc057" d="M3043.91,1735.11c-0.6,0-1.2-0.08-1.8-0.24l0,0c-0.88-0.23-1.69-0.63-2.42-1.19         c-3.03-2.32-3.61-6.67-1.3-9.7l65.16-85.26c1.12-1.47,2.75-2.41,4.58-2.66c1.84-0.24,3.65,0.24,5.12,1.36         c1.47,1.12,2.41,2.75,2.66,4.58c0.24,1.83-0.24,3.65-1.36,5.12l-65.16,85.26         C3048.07,1734.13,3046.03,1735.11,3043.91,1735.11z" class="colorffc057 svgShape"/></g><g fill="#000000" class="color000 svgShape"><path fill="#ffc057" d="M2872.26,2533.54c-0.9-0.24-1.61-1-1.74-1.98l-14.21-106.36c-0.17-1.3,0.74-2.49,2.03-2.66         c1.3-0.17,2.49,0.74,2.66,2.03l14.21,106.36c0.17,1.3-0.74,2.49-2.03,2.66C2872.87,2533.64,2872.55,2533.62,2872.26,2533.54z         " class="colorffc057 svgShape"/><path fill="#ffc057" d="M2872.87,2538.17c-0.6,0-1.19-0.08-1.78-0.23l-0.01,0c-2.71-0.73-4.7-2.99-5.07-5.77l-14.21-106.36         c-0.24-1.83,0.24-3.65,1.36-5.12c1.12-1.47,2.75-2.41,4.58-2.66c1.83-0.25,3.65,0.24,5.12,1.36         c1.47,1.12,2.41,2.75,2.66,4.58l14.21,106.36c0.51,3.78-2.16,7.27-5.94,7.78         C2873.48,2538.15,2873.17,2538.17,2872.87,2538.17z" class="colorffc057 svgShape"/></g><g fill="#000000" class="color000 svgShape"><path fill="#ffc057" d="M2754.71,1653.75c-0.9-0.24-1.6-1-1.74-1.98l-14.21-106.36c-0.17-1.3,0.74-2.49,2.03-2.66         c1.3-0.17,2.49,0.74,2.66,2.03l14.21,106.36c0.17,1.3-0.74,2.49-2.03,2.66C2755.31,1653.85,2755,1653.82,2754.71,1653.75z" class="colorffc057 svgShape"/><path fill="#ffc057" d="M2755.31,1658.38c-0.6,0-1.2-0.08-1.78-0.23l0,0c-2.71-0.73-4.7-2.99-5.07-5.77l-14.21-106.36         c-0.5-3.78,2.16-7.27,5.95-7.78c1.83-0.24,3.65,0.24,5.12,1.36c1.47,1.12,2.41,2.75,2.66,4.58l14.21,106.36         c0.5,3.79-2.16,7.27-5.95,7.78C2755.93,1658.36,2755.62,1658.38,2755.31,1658.38z" class="colorffc057 svgShape"/></g><g fill="#000000" class="color000 svgShape"><path fill="#ffc057" d="M2313.3,2106.34c-0.9-0.24-1.6-1-1.74-1.98c-0.17-1.3,0.74-2.49,2.03-2.66l106.36-14.21         c1.3-0.17,2.49,0.74,2.66,2.03c0.17,1.3-0.74,2.49-2.03,2.66l-106.36,14.21C2313.91,2106.45,2313.6,2106.42,2313.3,2106.34z" class="colorffc057 svgShape"/><path fill="#ffc057" d="M2313.91,2110.98c-0.6,0-1.2-0.08-1.78-0.23l0,0c-2.71-0.73-4.7-2.99-5.07-5.77         c-0.5-3.78,2.16-7.27,5.95-7.78l106.36-14.21c1.83-0.25,3.65,0.24,5.12,1.36c1.47,1.12,2.41,2.75,2.66,4.58         c0.5,3.78-2.16,7.27-5.95,7.78l-106.36,14.21C2314.52,2110.96,2314.22,2110.98,2313.91,2110.98z" class="colorffc057 svgShape"/></g><g fill="#000000" class="color000 svgShape"><path fill="#ffc057" d="M3193.09,1988.79c-0.9-0.24-1.61-1-1.74-1.98c-0.17-1.3,0.74-2.49,2.03-2.66l106.36-14.21         c1.3-0.17,2.49,0.74,2.66,2.03c0.17,1.3-0.74,2.49-2.03,2.66l-106.36,14.21C3193.7,1988.89,3193.39,1988.87,3193.09,1988.79z         " class="colorffc057 svgShape"/><path fill="#ffc057" d="M3193.7,1993.43c-0.6,0-1.2-0.08-1.79-0.24c-2.71-0.73-4.7-2.99-5.07-5.77         c-0.24-1.83,0.24-3.65,1.36-5.12c1.12-1.47,2.75-2.41,4.58-2.66l106.36-14.21c1.84-0.24,3.65,0.24,5.12,1.36         c1.47,1.12,2.41,2.75,2.66,4.58c0.25,1.83-0.24,3.65-1.36,5.12c-1.12,1.47-2.75,2.41-4.58,2.66l-106.36,14.21         C3194.32,1993.41,3194.01,1993.43,3193.7,1993.43z" class="colorffc057 svgShape"/></g></g><g fill="#000000" class="color000 svgShape"><path fill="#ffffff" d="M2723.01,2141.79c-1.18,0-2.37-0.15-3.54-0.47c-3.5-0.94-6.49-3.23-8.3-6.37l-71.82-124.4     c-3.77-6.54-1.53-14.89,5-18.67c6.54-3.77,14.89-1.53,18.67,5l64.99,112.57l254.25-146.79c6.54-3.77,14.89-1.53,18.67,5     c3.77,6.54,1.53,14.89-5,18.67l-266.08,153.62C2727.74,2141.17,2725.38,2141.79,2723.01,2141.79z" class="colorfff svgShape"/></g></g></g></svg>