<svg version="1.1" id="Layer_1" xmlns="http://www.w3.org/2000/svg" xmlnsXlink="http://www.w3.org/1999/xlink" x="0px" y="0px"
    width="841.889px" height="595.281px" viewBox="0 0 841.889 595.281" enable-background="new 0 0 841.889 595.281"
    xmlSpace="preserve">
    <g>
        <path fill="#DEDDED" d="M732.563,276.384h10.448c1.194,0,2.09,0.896,2.09,2.09v10.448c0,1.193-0.896,2.09-2.09,2.09l0,0h-10.448
            c-1.193,0-2.091-0.896-2.091-2.09l0,0v-10.747C730.473,277.279,731.369,276.384,732.563,276.384z"/>
        <path fill="#DEDDED" d="M732.563,308.329h10.448c1.194,0,2.09,0.896,2.09,2.089v10.448c0,1.194-0.896,2.091-2.09,2.091h-10.448
            c-1.193,0-2.091-0.896-2.091-2.091v-10.448C730.175,309.521,731.369,308.329,732.563,308.329z"/>
        <path fill="#DEDDED" d="M732.563,340.57h10.448c1.194,0,2.09,0.896,2.09,2.09l0,0v10.449c0,1.194-0.896,2.091-2.09,2.091l0,0
            h-10.448c-1.193,0-2.091-0.896-2.091-2.091l0,0v-10.748C730.473,341.466,731.369,340.57,732.563,340.57z"/>
        <path fill="#DEDDED" d="M732.563,372.514h10.448c1.194,0,2.09,0.896,2.09,2.09l0,0v10.449c0,1.193-0.896,2.089-2.09,2.089l0,0
            h-10.448c-1.193,0-2.091-0.896-2.091-2.089l0,0v-10.449C730.473,373.411,731.369,372.514,732.563,372.514z"/>
        <path fill="#DEDDED" d="M732.563,404.459h10.448c1.194,0,2.09,0.896,2.09,2.089l0,0v10.449c0,1.193-0.896,2.09-2.09,2.09l0,0
            h-10.448c-1.193,0-2.091-0.896-2.091-2.09l0,0v-10.449C730.175,405.653,731.369,404.757,732.563,404.459L732.563,404.459z"/>
    </g>
    <g>
        <path fill="#DEDDED" d="M90.563,277.287h10.448c1.194,0,2.09,0.896,2.09,2.09v10.448c0,1.193-0.896,2.09-2.09,2.09l0,0H90.563
            c-1.193,0-2.091-0.896-2.091-2.09l0,0v-10.747C88.473,278.182,89.369,277.287,90.563,277.287z"/>
        <path fill="#DEDDED" d="M90.563,309.232h10.448c1.194,0,2.09,0.896,2.09,2.089v10.448c0,1.194-0.896,2.091-2.09,2.091H90.563
            c-1.193,0-2.091-0.896-2.091-2.091v-10.448C88.175,310.425,89.369,309.232,90.563,309.232z"/>
        <path fill="#DEDDED" d="M90.563,341.473h10.448c1.194,0,2.09,0.896,2.09,2.09l0,0v10.449c0,1.194-0.896,2.091-2.09,2.091l0,0
            H90.563c-1.193,0-2.091-0.896-2.091-2.091l0,0v-10.748C88.473,342.369,89.369,341.473,90.563,341.473z"/>
        <path fill="#DEDDED" d="M90.563,373.418h10.448c1.194,0,2.09,0.896,2.09,2.09l0,0v10.449c0,1.193-0.896,2.089-2.09,2.089l0,0
            H90.563c-1.193,0-2.091-0.896-2.091-2.089l0,0v-10.449C88.473,374.314,89.369,373.418,90.563,373.418z"/>
        <path fill="#DEDDED" d="M90.563,405.362h10.448c1.194,0,2.09,0.896,2.09,2.089l0,0V417.9c0,1.193-0.896,2.09-2.09,2.09l0,0H90.563
            c-1.193,0-2.091-0.896-2.091-2.09l0,0v-10.449C88.175,406.556,89.369,405.66,90.563,405.362L90.563,405.362z"/>
    </g>
    <g>
        <path fill="#DEDDED" d="M732.563,87.168h10.448c1.194,0,2.09,0.896,2.09,2.09v10.448c0,1.193-0.896,2.09-2.09,2.09l0,0h-10.448
            c-1.193,0-2.091-0.896-2.091-2.09l0,0V88.959C730.473,88.063,731.369,87.168,732.563,87.168z"/>
        <path fill="#DEDDED" d="M732.563,119.113h10.448c1.194,0,2.09,0.896,2.09,2.089v10.448c0,1.194-0.896,2.091-2.09,2.091h-10.448
            c-1.193,0-2.091-0.896-2.091-2.091v-10.448C730.175,120.305,731.369,119.113,732.563,119.113z"/>
        <path fill="#DEDDED" d="M732.563,151.354h10.448c1.194,0,2.09,0.896,2.09,2.09l0,0v10.449c0,1.194-0.896,2.091-2.09,2.091l0,0
            h-10.448c-1.193,0-2.091-0.896-2.091-2.091l0,0v-10.748C730.473,152.25,731.369,151.354,732.563,151.354z"/>
        <path fill="#DEDDED" d="M732.563,183.299h10.448c1.194,0,2.09,0.896,2.09,2.09l0,0v10.449c0,1.193-0.896,2.089-2.09,2.089l0,0
            h-10.448c-1.193,0-2.091-0.896-2.091-2.089l0,0v-10.449C730.473,184.195,731.369,183.299,732.563,183.299z"/>
        <path fill="#DEDDED" d="M732.563,215.243h10.448c1.194,0,2.09,0.896,2.09,2.089l0,0v10.449c0,1.193-0.896,2.09-2.09,2.09l0,0
            h-10.448c-1.193,0-2.091-0.896-2.091-2.09l0,0v-10.449C730.175,216.437,731.369,215.541,732.563,215.243L732.563,215.243z"/>
    </g>
    <g>
        <path fill="#DEDDED" d="M90.563,88.071h10.448c1.194,0,2.09,0.896,2.09,2.09v10.448c0,1.193-0.896,2.09-2.09,2.09l0,0H90.563
            c-1.193,0-2.091-0.896-2.091-2.09l0,0V89.862C88.473,88.967,89.369,88.071,90.563,88.071z"/>
        <path fill="#DEDDED" d="M90.563,120.016h10.448c1.194,0,2.09,0.896,2.09,2.089v10.448c0,1.194-0.896,2.091-2.09,2.091H90.563
            c-1.193,0-2.091-0.896-2.091-2.091v-10.448C88.175,121.209,89.369,120.016,90.563,120.016z"/>
        <path fill="#DEDDED" d="M90.563,152.258h10.448c1.194,0,2.09,0.896,2.09,2.09l0,0v10.449c0,1.194-0.896,2.091-2.09,2.091l0,0
            H90.563c-1.193,0-2.091-0.896-2.091-2.091l0,0v-10.748C88.473,153.153,89.369,152.258,90.563,152.258z"/>
        <path fill="#DEDDED" d="M90.563,184.202h10.448c1.194,0,2.09,0.896,2.09,2.09l0,0v10.449c0,1.193-0.896,2.089-2.09,2.089l0,0
            H90.563c-1.193,0-2.091-0.896-2.091-2.089l0,0v-10.449C88.473,185.098,89.369,184.202,90.563,184.202z"/>
        <path fill="#DEDDED" d="M90.563,216.146h10.448c1.194,0,2.09,0.896,2.09,2.089l0,0v10.449c0,1.193-0.896,2.09-2.09,2.09l0,0H90.563
            c-1.193,0-2.091-0.896-2.091-2.09l0,0v-10.449C88.175,217.341,89.369,216.444,90.563,216.146L90.563,216.146z"/>
    </g>
    <g id="egnee10">
        <path id="ubpalace1_10_1" fill="#F3808E" d="M374.352,494.33c-0.896,0-1.791,0-2.389-0.299
            c-5.672-1.493-8.956-6.866-7.463-12.539c1.492-5.672,6.865-8.956,12.538-7.463c5.673,1.492,8.957,6.866,7.464,12.538
            C383.308,491.046,379.128,494.33,374.352,494.33z"/>
        <path className="suudal" id="suudal8_x5F_11_10_" fill="#F3808E" d="M460.929,494.33c-5.673,0-10.15-4.776-10.15-10.449
            c0-4.775,3.284-8.657,7.762-9.852c0.896-0.299,1.792-0.299,2.39-0.299c5.672,0,10.449,4.478,10.449,10.149
            c0,5.374-3.883,9.853-9.256,10.449C461.823,494.33,461.526,494.33,460.929,494.33L460.929,494.33z"/>
        <path className="suudal" id="suudal8_x5F_9_10_" fill="#F3808E" d="M345.692,492.24c-0.896,0-1.791,0-2.389-0.299
            c-5.672-1.493-8.956-6.866-7.463-12.539c1.492-5.672,6.866-8.956,12.538-7.463c5.673,1.492,8.957,6.866,7.464,12.538
            C354.648,488.956,350.468,492.24,345.692,492.24z"/>
        <path className="suudal" id="suudal8_x5F_12_10_" fill="#F3808E" d="M489.887,492.24c-5.672,0-10.448-4.479-10.448-10.15
            c0-4.776,3.284-8.957,7.762-10.149c0.896-0.299,1.791-0.299,2.39-0.299c5.672,0,10.448,4.479,10.448,10.149
            c0,5.374-3.882,9.853-9.255,10.449C490.485,492.24,490.186,492.24,489.887,492.24L489.887,492.24z"/>
        <path className="suudal" id="suudal8_x5F_8_10_" fill="#F3808E" d="M317.031,488.956c-0.896,0-1.79,0-2.389-0.299
            c-5.672-1.492-8.956-6.866-7.463-12.539c1.492-5.672,6.866-8.956,12.539-7.463c5.672,1.492,8.956,6.866,7.463,12.539
            C325.988,485.672,321.808,488.956,317.031,488.956z"/>
        <path className="suudal" id="suudal8_x5F_13_10_" fill="#F3808E" d="M518.547,488.657c-5.672,0-10.448-4.478-10.448-10.15
            c0-4.775,3.284-8.955,7.762-10.149c0.896-0.299,1.791-0.299,2.39-0.299c5.672,0,10.149,4.776,10.149,10.448
            c0,5.075-3.881,9.555-8.956,10.15C519.145,488.657,518.846,488.657,518.547,488.657L518.547,488.657z"/>
        <path className="suudal" id="suudal8_x5F_7_10_" fill="#F3808E" d="M288.67,484.478c-0.598,0-1.194,0-1.791-0.298
            c-5.673-0.896-9.255-6.271-8.359-11.942c0.896-5.672,6.271-9.255,11.941-8.359c5.673,0.896,9.255,6.271,8.358,11.942
            C297.925,480.895,293.745,484.478,288.67,484.478z"/>
        <path className="suudal" id="suudal8_x5F_14_10_" fill="#F3808E" d="M546.908,484.18c-5.673,0-10.448-4.479-10.448-10.449
            c0-5.673,4.478-10.449,10.448-10.449c5.972,0,10.448,4.479,10.448,10.449c0,4.478-2.687,8.358-7.165,9.852
            C549.297,483.881,548.104,484.18,546.908,484.18z"/>
        <path className="suudal" id="suudal8_x5F_6_10_" fill="#F3808E" d="M260.309,478.806c-0.598,0-1.194,0-1.791,0c-5.673-0.896-9.255-6.271-8.358-11.941
            c0.896-5.075,5.074-8.658,10.149-8.658c1.194,0,2.09,0.299,3.284,0.598c5.373,1.792,8.358,7.464,6.567,12.838
            C268.966,476.118,264.786,478.806,260.309,478.806L260.309,478.806z"/>
        <path className="suudal" id="suudal8_x5F_15_10_" fill="#F3808E" d="M575.271,478.208c-5.673,0-10.449-4.478-10.449-10.149s4.479-10.448,10.15-10.448
            c5.673,0,10.449,4.478,10.449,10.15c0,4.478-2.688,8.358-7.165,9.852C577.361,478.208,576.465,478.208,575.271,478.208z"/>
        <path className="suudal" id="suudal8_x5F_5_10_" fill="#F3808E" d="M232.245,471.343c-0.896,0-2.091,0-2.985-0.3
            c-5.374-1.491-8.657-7.165-7.165-12.837c1.493-5.374,7.165-8.358,12.539-7.165l0.896,0.299c5.374,1.791,8.359,7.464,6.568,12.838
            C240.605,468.655,236.724,471.343,232.245,471.343L232.245,471.343z"/>
        <path className="suudal" id="suudal8_x5F_16_10_" fill="#F3808E" d="M603.034,471.043c-5.673,0-10.149-4.775-10.149-10.447
            c0-5.674,4.775-10.15,10.447-10.15c5.674,0,10.15,4.776,10.15,10.448c0,4.479-2.985,8.358-7.165,9.554l-0.896,0.299
            C604.825,470.745,603.931,471.043,603.034,471.043L603.034,471.043z"/>
        <path className="suudal" id="suudal8_x5F_4_10_" fill="#F3808E" d="M204.481,462.982c-0.896,0-2.089,0-2.984-0.298
            c-5.373-1.493-8.657-7.165-7.165-12.838c1.493-5.673,7.165-8.657,12.838-7.165l0.597,0.299c5.374,1.791,8.359,7.762,6.568,13.136
            C212.84,460.296,208.959,462.982,204.481,462.982L204.481,462.982z"/>
        <path className="suudal" id="suudal8_x5F_17_10_" fill="#F3808E" d="M630.799,462.685c-5.672,0-10.448-4.479-10.448-10.449
            c0-5.673,4.478-10.449,10.448-10.449c5.972,0,10.448,4.479,10.448,10.449c0,4.479-2.687,8.359-7.165,9.852l-0.896,0.3
            C632.291,462.386,631.397,462.685,630.799,462.685L630.799,462.685z"/>
        <path className="suudal" id="suudal8_x5F_3_10_" fill="#F3808E" d="M177.314,453.728c-1.193,0-2.09-0.298-3.284-0.598
            c-0.597,0-0.896-0.299-1.491-0.597c-5.075-2.688-7.165-8.658-4.479-13.732c2.688-5.075,8.658-7.165,13.733-4.479
            c5.075,2.688,7.165,8.658,4.478,13.733C184.778,451.34,181.195,453.728,177.314,453.728z"/>
        <path className="suudal" id="suudal8_x5F_18_10_" fill="#F3808E" d="M657.967,452.832c-5.673,0-10.449-4.478-10.449-10.149
            c0-3.881,2.09-7.463,5.672-9.255c0.299-0.299,0.896-0.299,1.493-0.598c5.374-1.791,11.345,1.194,13.136,6.567
            c1.791,5.076-0.896,10.748-5.971,12.838C660.654,452.832,659.16,452.832,657.967,452.832z"/>
        <path className="suudal" id="suudal8_x5F_2_10_" fill="#F3808E" d="M150.743,442.384c-5.673,0-10.15-4.776-10.15-10.448
            c0-5.673,4.776-10.15,10.449-10.15c5.672,0,10.149,4.776,10.149,10.449c0,1.193-0.299,2.089-0.598,3.283
            C159.103,439.696,155.222,442.384,150.743,442.384z"/>
        <path className="suudal" id="suudal8_x5F_19_10_" fill="#F3808E" d="M684.536,441.786c-5.673,0-10.448-4.478-10.448-10.149
            c0-3.582,1.791-6.567,4.479-8.657c0.896-0.599,1.492-0.896,2.388-1.194c5.374-1.791,11.346,0.896,13.137,6.271
            c1.792,5.074-0.598,10.447-5.373,12.837C687.523,441.487,686.03,441.786,684.536,441.786L684.536,441.786z"/>
        <path className="suudal" id="suudal8_x5F_20_10_" fill="#F3808E" d="M710.51,428.949c-5.672,0-10.448-4.777-10.448-10.449s4.776-10.448,10.448-10.448
            c5.673,0,10.449,4.776,10.449,10.448c0,4.479-2.985,8.359-7.165,9.853C712.6,428.949,711.406,428.949,710.51,428.949z"/>
        <path className="suudal" id="suudal8_x5F_1_10_" fill="#F3808E" d="M124.771,429.845c-1.493,0-3.284-0.3-4.479-1.194
            c-5.075-2.688-6.866-8.956-4.181-14.031c2.39-4.479,7.465-6.567,12.24-5.075c0.896,0.298,1.791,0.598,2.389,1.194
            c4.776,3.283,5.972,9.553,2.985,14.33C131.338,428.352,128.353,430.144,124.771,429.845L124.771,429.845z"/>
    </g>
    <g id="egnee9">
        <path className="suudal" id="suudal8_x5F_10_9_" fill="#F3808E" d="M373.455,465.838c-0.896,0-1.791,0-2.389-0.299
            c-5.672-1.493-8.956-6.866-7.463-12.539c1.492-5.672,6.865-8.956,12.538-7.463c5.673,1.492,8.957,6.866,7.464,12.538
            C382.411,462.553,378.232,465.838,373.455,465.838z"/>
        <path className="suudal" id="suudal8_x5F_11_9_" fill="#F3808E" d="M460.032,465.838c-5.673,0-10.15-4.776-10.15-10.449
            c0-4.775,3.284-8.657,7.762-9.852c0.896-0.299,1.792-0.299,2.39-0.299c5.672,0,10.449,4.478,10.449,10.149
            c0,5.374-3.883,9.853-9.256,10.449C460.927,465.838,460.629,465.838,460.032,465.838L460.032,465.838z"/>
        <path className="suudal" id="suudal8_x5F_9_9_" fill="#F3808E" d="M344.795,463.748c-0.896,0-1.791,0-2.389-0.299
            c-5.672-1.493-8.956-6.866-7.463-12.539c1.492-5.672,6.866-8.956,12.538-7.463c5.673,1.492,8.957,6.866,7.464,12.538
            C353.751,460.464,349.572,463.748,344.795,463.748z"/>
        <path className="suudal" id="suudal8_x5F_12_9_" fill="#F3808E" d="M488.99,463.748c-5.672,0-10.448-4.479-10.448-10.15
            c0-4.776,3.284-8.957,7.762-10.149c0.896-0.299,1.791-0.299,2.39-0.299c5.672,0,10.448,4.479,10.448,10.149
            c0,5.374-3.882,9.853-9.255,10.449C489.588,463.748,489.289,463.748,488.99,463.748L488.99,463.748z"/>
        <path className="suudal" id="suudal8_x5F_8_9_" fill="#F3808E" d="M316.135,460.464c-0.896,0-1.79,0-2.389-0.299
            c-5.672-1.492-8.956-6.866-7.463-12.539c1.492-5.672,6.866-8.956,12.539-7.463c5.672,1.492,8.956,6.866,7.463,12.539
            C325.091,457.179,320.911,460.464,316.135,460.464z"/>
        <path className="suudal" id="suudal8_x5F_13_9_" fill="#F3808E" d="M517.651,460.165c-5.672,0-10.448-4.478-10.448-10.15
            c0-4.775,3.284-8.955,7.762-10.149c0.896-0.299,1.791-0.299,2.39-0.299c5.672,0,10.149,4.776,10.149,10.448
            c0,5.075-3.881,9.555-8.956,10.15C518.248,460.165,517.949,460.165,517.651,460.165L517.651,460.165z"/>
        <path className="suudal" id="suudal8_x5F_7_9_" fill="#F3808E" d="M287.774,455.986c-0.598,0-1.194,0-1.791-0.298
            c-5.673-0.896-9.255-6.271-8.359-11.942c0.896-5.672,6.271-9.255,11.941-8.359c5.673,0.896,9.255,6.271,8.358,11.942
            C297.029,452.403,292.849,455.986,287.774,455.986z"/>
        <path className="suudal" id="suudal8_x5F_14_9_" fill="#F3808E" d="M546.012,455.688c-5.673,0-10.448-4.479-10.448-10.449
            c0-5.673,4.478-10.449,10.448-10.449c5.972,0,10.448,4.479,10.448,10.449c0,4.478-2.687,8.358-7.165,9.852
            C548.401,455.388,547.207,455.688,546.012,455.688z"/>
        <path className="suudal" id="suudal8_x5F_6_9_" fill="#F3808E" d="M259.412,450.314c-0.598,0-1.194,0-1.791,0c-5.673-0.896-9.255-6.271-8.358-11.941
            c0.896-5.075,5.074-8.658,10.149-8.658c1.194,0,2.09,0.299,3.284,0.598c5.373,1.792,8.358,7.464,6.567,12.838
            C268.07,447.626,263.89,450.314,259.412,450.314L259.412,450.314z"/>
        <path className="suudal" id="suudal8_x5F_15_9_" fill="#F3808E" d="M574.374,449.716c-5.673,0-10.449-4.478-10.449-10.149s4.479-10.448,10.15-10.448
            c5.673,0,10.449,4.478,10.449,10.15c0,4.478-2.688,8.358-7.165,9.852C576.464,449.716,575.569,449.716,574.374,449.716z"/>
        <path className="suudal" id="suudal8_x5F_5_9_" fill="#F3808E" d="M231.349,442.85c-0.896,0-2.091,0-2.985-0.3c-5.374-1.491-8.657-7.165-7.165-12.837
            c1.493-5.374,7.165-8.358,12.539-7.165l0.896,0.299c5.374,1.791,8.359,7.464,6.568,12.838
            C239.708,440.163,235.827,442.85,231.349,442.85L231.349,442.85z"/>
        <path className="suudal" id="suudal8_x5F_16_9_" fill="#F3808E" d="M602.138,442.551c-5.673,0-10.149-4.775-10.149-10.447
            c0-5.674,4.775-10.15,10.447-10.15c5.674,0,10.15,4.776,10.15,10.448c0,4.479-2.985,8.358-7.165,9.554l-0.896,0.299
            C603.929,442.253,603.034,442.551,602.138,442.551L602.138,442.551z"/>
        <path className="suudal" id="suudal8_x5F_4_9_" fill="#F3808E" d="M203.584,434.49c-0.896,0-2.089,0-2.984-0.298
            c-5.373-1.493-8.657-7.165-7.165-12.838c1.493-5.673,7.165-8.657,12.838-7.165l0.597,0.299c5.374,1.791,8.359,7.762,6.568,13.136
            C211.944,431.803,208.063,434.49,203.584,434.49L203.584,434.49z"/>
        <path className="suudal" id="suudal8_x5F_17_9_" fill="#F3808E" d="M629.903,434.193c-5.672,0-10.448-4.479-10.448-10.449
            c0-5.673,4.478-10.449,10.448-10.449c5.972,0,10.448,4.479,10.448,10.449c0,4.479-2.687,8.359-7.165,9.852l-0.896,0.3
            C631.395,433.894,630.5,434.193,629.903,434.193L629.903,434.193z"/>
        <path className="suudal" id="suudal8_x5F_3_9_" fill="#F3808E" d="M176.417,425.236c-1.193,0-2.09-0.298-3.284-0.598c-0.597,0-0.896-0.299-1.491-0.597
            c-5.075-2.688-7.165-8.658-4.479-13.732c2.688-5.075,8.658-7.165,13.733-4.479c5.075,2.688,7.165,8.658,4.478,13.733
            C183.881,422.847,180.298,425.236,176.417,425.236z"/>
        <path className="suudal" id="suudal8_x5F_18_9_" fill="#F3808E" d="M657.071,424.34c-5.673,0-10.449-4.478-10.449-10.149
            c0-3.881,2.09-7.463,5.672-9.255c0.299-0.299,0.896-0.299,1.493-0.598c5.374-1.791,11.345,1.194,13.136,6.567
            c1.791,5.076-0.896,10.748-5.971,12.838C659.757,424.34,658.264,424.34,657.071,424.34z"/>
        <path className="suudal" id="suudal8_x5F_2_9_" fill="#F3808E" d="M149.847,413.891c-5.673,0-10.15-4.776-10.15-10.448
            c0-5.673,4.776-10.15,10.449-10.15c5.672,0,10.149,4.776,10.149,10.449c0,1.193-0.299,2.089-0.598,3.283
            C158.206,411.204,154.325,413.891,149.847,413.891z"/>
        <path className="suudal" id="suudal8_x5F_19_9_" fill="#F3808E" d="M683.64,413.294c-5.673,0-10.448-4.478-10.448-10.149
            c0-3.582,1.791-6.567,4.479-8.657c0.896-0.599,1.492-0.896,2.388-1.194c5.374-1.791,11.346,0.896,13.137,6.271
            c1.792,5.074-0.598,10.447-5.373,12.837C686.626,412.995,685.133,413.294,683.64,413.294L683.64,413.294z"/>
        <path className="suudal" id="suudal8_x5F_20_9_" fill="#F3808E" d="M709.614,400.457c-5.672,0-10.448-4.777-10.448-10.449s4.776-10.448,10.448-10.448
            c5.673,0,10.449,4.776,10.449,10.448c0,4.479-2.985,8.359-7.165,9.853C711.703,400.457,710.51,400.457,709.614,400.457z"/>
        <path className="suudal" id="suudal8_x5F_1_9_" fill="#F3808E" d="M123.874,401.353c-1.493,0-3.284-0.3-4.479-1.194
            c-5.075-2.688-6.866-8.956-4.181-14.031c2.39-4.479,7.465-6.567,12.24-5.075c0.896,0.298,1.791,0.598,2.389,1.194
            c4.776,3.283,5.972,9.553,2.985,14.33C130.442,399.86,127.456,401.652,123.874,401.353L123.874,401.353z"/>
    </g>
    <g id="egnee8">
        <path className="suudal" id="suudal8_x5F_10_8_" fill="#F3808E" d="M373.455,432.998c-0.896,0-1.791,0-2.389-0.299
            c-5.672-1.493-8.956-6.866-7.463-12.539c1.492-5.672,6.865-8.956,12.538-7.463c5.673,1.492,8.957,6.866,7.464,12.538
            C382.411,429.714,378.232,432.998,373.455,432.998z"/>
        <path className="suudal" id="suudal8_x5F_11_8_" fill="#F3808E" d="M460.032,432.998c-5.673,0-10.15-4.776-10.15-10.449
            c0-4.775,3.284-8.657,7.762-9.852c0.896-0.299,1.792-0.299,2.39-0.299c5.672,0,10.449,4.478,10.449,10.149
            c0,5.374-3.883,9.853-9.256,10.449C460.927,432.998,460.629,432.998,460.032,432.998L460.032,432.998z"/>
        <path className="suudal" id="suudal8_x5F_9_8_" fill="#F3808E" d="M344.795,430.908c-0.896,0-1.791,0-2.389-0.299
            c-5.672-1.493-8.956-6.866-7.463-12.539c1.492-5.672,6.866-8.956,12.538-7.463c5.673,1.492,8.957,6.866,7.464,12.538
            C353.751,427.624,349.572,430.908,344.795,430.908z"/>
        <path className="suudal" id="suudal8_x5F_12_8_" fill="#F3808E" d="M488.99,430.908c-5.672,0-10.448-4.479-10.448-10.15
            c0-4.776,3.284-8.957,7.762-10.149c0.896-0.299,1.791-0.299,2.39-0.299c5.672,0,10.448,4.479,10.448,10.149
            c0,5.374-3.882,9.853-9.255,10.449C489.588,430.908,489.289,430.908,488.99,430.908L488.99,430.908z"/>
        <path className="suudal" id="suudal8_x5F_8_8_" fill="#F3808E" d="M316.135,427.624c-0.896,0-1.79,0-2.389-0.299
            c-5.672-1.492-8.956-6.866-7.463-12.539c1.492-5.672,6.866-8.956,12.539-7.463c5.672,1.492,8.956,6.866,7.463,12.539
            C325.091,424.34,320.911,427.624,316.135,427.624z"/>
        <path className="suudal" id="suudal8_x5F_13_8_" fill="#F3808E" d="M517.651,427.325c-5.672,0-10.448-4.478-10.448-10.15
            c0-4.775,3.284-8.955,7.762-10.149c0.896-0.299,1.791-0.299,2.39-0.299c5.672,0,10.149,4.776,10.149,10.448
            c0,5.075-3.881,9.555-8.956,10.15C518.248,427.325,517.949,427.325,517.651,427.325L517.651,427.325z"/>
        <path className="suudal" id="suudal8_x5F_7_8_" fill="#F3808E" d="M287.774,423.146c-0.598,0-1.194,0-1.791-0.298
            c-5.673-0.896-9.255-6.271-8.359-11.942c0.896-5.672,6.271-9.255,11.941-8.359c5.673,0.896,9.255,6.271,8.358,11.942
            C297.029,419.563,292.849,423.146,287.774,423.146z"/>
        <path className="suudal" id="suudal8_x5F_14_8_" fill="#F3808E" d="M546.012,422.848c-5.673,0-10.448-4.479-10.448-10.449
            c0-5.673,4.478-10.449,10.448-10.449c5.972,0,10.448,4.479,10.448,10.449c0,4.478-2.687,8.358-7.165,9.852
            C548.401,422.549,547.207,422.848,546.012,422.848z"/>
        <path className="suudal" id="suudal8_x5F_6_8_" fill="#F3808E" d="M259.412,417.474c-0.598,0-1.194,0-1.791,0c-5.673-0.896-9.255-6.271-8.358-11.941
            c0.896-5.075,5.074-8.658,10.149-8.658c1.194,0,2.09,0.299,3.284,0.598c5.373,1.792,8.358,7.464,6.567,12.838
            C268.07,414.786,263.89,417.474,259.412,417.474L259.412,417.474z"/>
        <path className="suudal" id="suudal8_x5F_15_8_" fill="#F3808E" d="M574.374,416.876c-5.673,0-10.449-4.478-10.449-10.149s4.479-10.448,10.15-10.448
            c5.673,0,10.449,4.478,10.449,10.15c0,4.478-2.688,8.358-7.165,9.852C576.464,416.876,575.569,416.876,574.374,416.876z"/>
        <path className="suudal" id="suudal8_x5F_5_8_" fill="#F3808E" d="M231.349,410.01c-0.896,0-2.091,0-2.985-0.3c-5.374-1.491-8.657-7.165-7.165-12.837
            c1.493-5.374,7.165-8.358,12.539-7.165l0.896,0.299c5.374,1.791,8.359,7.464,6.568,12.838
            C239.708,407.323,235.827,410.01,231.349,410.01L231.349,410.01z"/>
        <path className="suudal" id="suudal8_x5F_16_8_" fill="#F3808E" d="M602.138,409.711c-5.673,0-10.149-4.775-10.149-10.447
            c0-5.674,4.775-10.15,10.447-10.15c5.674,0,10.15,4.776,10.15,10.448c0,4.479-2.985,8.358-7.165,9.554l-0.896,0.299
            C603.929,409.413,603.034,409.711,602.138,409.711L602.138,409.711z"/>
        <path className="suudal" id="suudal8_x5F_4_8_" fill="#F3808E" d="M203.584,401.65c-0.896,0-2.089,0-2.984-0.298
            c-5.373-1.493-8.657-7.165-7.165-12.838c1.493-5.673,7.165-8.657,12.838-7.165l0.597,0.299c5.374,1.791,8.359,7.762,6.568,13.136
            C211.944,398.964,208.063,401.65,203.584,401.65L203.584,401.65z"/>
        <path className="suudal" id="suudal8_x5F_17_8_" fill="#F3808E" d="M629.903,401.353c-5.672,0-10.448-4.479-10.448-10.449
            c0-5.673,4.478-10.449,10.448-10.449c5.972,0,10.448,4.479,10.448,10.449c0,4.479-2.687,8.359-7.165,9.852l-0.896,0.3
            C631.395,401.054,630.5,401.353,629.903,401.353L629.903,401.353z"/>
        <path className="suudal" id="suudal8_x5F_3_8_" fill="#F3808E" d="M176.417,392.396c-1.193,0-2.09-0.298-3.284-0.598c-0.597,0-0.896-0.299-1.491-0.597
            c-5.075-2.688-7.165-8.658-4.479-13.732c2.688-5.075,8.658-7.165,13.733-4.479c5.075,2.688,7.165,8.658,4.478,13.733
            C183.881,390.008,180.298,392.396,176.417,392.396z"/>
        <path className="suudal" id="suudal8_x5F_18_8_" fill="#F3808E" d="M657.071,391.5c-5.673,0-10.449-4.478-10.449-10.149
            c0-3.881,2.09-7.463,5.672-9.255c0.299-0.299,0.896-0.299,1.493-0.598c5.374-1.791,11.345,1.194,13.136,6.567
            c1.791,5.076-0.896,10.748-5.971,12.838C659.757,391.5,658.264,391.5,657.071,391.5z"/>
        <path className="suudal" id="suudal8_x5F_2_8_" fill="#F3808E" d="M149.847,381.052c-5.673,0-10.15-4.776-10.15-10.448
            c0-5.673,4.776-10.15,10.449-10.15c5.672,0,10.149,4.776,10.149,10.449c0,1.193-0.299,2.089-0.598,3.283
            C158.206,378.364,154.325,381.052,149.847,381.052z"/>
        <path className="suudal" id="suudal8_x5F_19_8_" fill="#F3808E" d="M683.64,380.454c-5.673,0-10.448-4.478-10.448-10.149
            c0-3.582,1.791-6.567,4.479-8.657c0.896-0.599,1.492-0.896,2.388-1.194c5.374-1.791,11.346,0.896,13.137,6.271
            c1.792,5.074-0.598,10.447-5.373,12.837C686.626,380.155,685.133,380.454,683.64,380.454L683.64,380.454z"/>
        <path className="suudal" id="suudal8_x5F_20_8_" fill="#F3808E" d="M709.614,367.617c-5.672,0-10.448-4.777-10.448-10.449s4.776-10.448,10.448-10.448
            c5.673,0,10.449,4.776,10.449,10.448c0,4.479-2.985,8.359-7.165,9.853C711.703,367.617,710.51,367.617,709.614,367.617z"/>
        <path className="suudal" id="suudal8_x5F_1_8_" fill="#F3808E" d="M123.874,368.513c-1.493,0-3.284-0.3-4.479-1.194
            c-5.075-2.688-6.866-8.956-4.181-14.031c2.39-4.479,7.465-6.567,12.24-5.075c0.896,0.298,1.791,0.598,2.389,1.194
            c4.776,3.283,5.972,9.553,2.985,14.33C130.442,367.02,127.456,368.812,123.874,368.513L123.874,368.513z"/>
    </g>
    <g id="egnee7">
        <path className="suudal" id="suudal2_x5F_10" fill="#F3808E" d="M373.455,402.697c-0.896,0-1.791,0-2.389-0.299c-5.672-1.494-8.956-6.867-7.463-12.539
            c1.492-5.672,6.865-8.957,12.538-7.463c5.673,1.492,8.957,6.865,7.464,12.537C382.411,399.412,378.232,402.697,373.455,402.697z"/>
        <path className="suudal" id="suudal2_x5F_11" fill="#F3808E" d="M460.032,402.697c-5.673,0-10.15-4.777-10.15-10.449c0-4.775,3.284-8.658,7.762-9.852
            c0.896-0.299,1.792-0.299,2.39-0.299c5.672,0,10.449,4.477,10.449,10.148c0,5.375-3.883,9.854-9.256,10.449
            C460.927,402.697,460.629,402.697,460.032,402.697L460.032,402.697z"/>
        <path className="suudal" id="suudal2_x5F_9" fill="#F3808E" d="M344.795,400.607c-0.896,0-1.791,0-2.389-0.299c-5.672-1.494-8.956-6.867-7.463-12.539
            c1.492-5.672,6.866-8.957,12.538-7.463c5.673,1.492,8.957,6.865,7.464,12.537C353.751,397.322,349.572,400.607,344.795,400.607z"/>
        <path className="suudal" id="suudal2_x5F_12" fill="#F3808E" d="M488.99,400.607c-5.672,0-10.448-4.479-10.448-10.15c0-4.777,3.284-8.957,7.762-10.15
            c0.896-0.299,1.791-0.299,2.39-0.299c5.672,0,10.448,4.479,10.448,10.15c0,5.373-3.882,9.852-9.255,10.449
            C489.588,400.607,489.289,400.607,488.99,400.607L488.99,400.607z"/>
        <path className="suudal" id="suudal2_x5F_8" fill="#F3808E" d="M316.135,397.322c-0.896,0-1.79,0-2.389-0.299c-5.672-1.492-8.956-6.865-7.463-12.539
            c1.492-5.672,6.866-8.955,12.539-7.463c5.672,1.492,8.956,6.867,7.463,12.539C325.091,394.039,320.911,397.322,316.135,397.322z"/>
        <path className="suudal" id="suudal2_x5F_13" fill="#F3808E" d="M517.651,397.023c-5.672,0-10.448-4.477-10.448-10.15
            c0-4.775,3.284-8.955,7.762-10.148c0.896-0.299,1.791-0.299,2.39-0.299c5.672,0,10.149,4.775,10.149,10.447
            c0,5.076-3.881,9.555-8.956,10.15C518.248,397.023,517.949,397.023,517.651,397.023L517.651,397.023z"/>
        <path className="suudal" id="suudal2_x5F_7" fill="#F3808E" d="M287.774,392.845c-0.598,0-1.194,0-1.791-0.299c-5.673-0.896-9.255-6.27-8.359-11.941
            c0.896-5.672,6.271-9.256,11.941-8.359c5.673,0.896,9.255,6.27,8.358,11.941C297.029,389.261,292.849,392.845,287.774,392.845z"/>
        <path className="suudal" id="suudal2_x5F_14" fill="#F3808E" d="M546.012,392.547c-5.673,0-10.448-4.479-10.448-10.449
            c0-5.672,4.478-10.449,10.448-10.449c5.972,0,10.448,4.48,10.448,10.449c0,4.479-2.687,8.359-7.165,9.852
            C548.401,392.248,547.207,392.547,546.012,392.547z"/>
        <path className="suudal" id="suudal2_x5F_6" fill="#F3808E" d="M259.412,387.174c-0.598,0-1.194,0-1.791,0c-5.673-0.896-9.255-6.271-8.358-11.941
            c0.896-5.076,5.074-8.658,10.149-8.658c1.194,0,2.09,0.299,3.284,0.598c5.373,1.791,8.358,7.463,6.567,12.838
            C268.07,384.484,263.89,387.174,259.412,387.174L259.412,387.174z"/>
        <path className="suudal" id="suudal2_x5F_15" fill="#F3808E" d="M574.374,386.574c-5.673,0-10.449-4.477-10.449-10.148s4.479-10.449,10.15-10.449
            c5.673,0,10.449,4.479,10.449,10.15c0,4.479-2.688,8.359-7.165,9.852C576.464,386.574,575.569,386.574,574.374,386.574z"/>
        <path className="suudal" id="suudal2_x5F_5" fill="#F3808E" d="M231.349,379.709c-0.896,0-2.091,0-2.985-0.299c-5.374-1.492-8.657-7.166-7.165-12.838
            c1.493-5.373,7.165-8.357,12.539-7.164l0.896,0.299c5.374,1.791,8.359,7.463,6.568,12.838
            C239.708,377.021,235.827,379.709,231.349,379.709L231.349,379.709z"/>
        <path className="suudal" id="suudal2_x5F_16" fill="#F3808E" d="M602.138,379.41c-5.673,0-10.149-4.775-10.149-10.447
            c0-5.674,4.775-10.15,10.447-10.15c5.674,0,10.15,4.775,10.15,10.447c0,4.479-2.985,8.359-7.165,9.555l-0.896,0.299
            C603.929,379.111,603.034,379.41,602.138,379.41L602.138,379.41z"/>
        <path className="suudal" id="suudal2_x5F_4" fill="#F3808E" d="M203.584,371.349c-0.896,0-2.089,0-2.984-0.299c-5.373-1.492-8.657-7.164-7.165-12.838
            c1.493-5.672,7.165-8.656,12.838-7.164l0.597,0.299c5.374,1.791,8.359,7.762,6.568,13.135
            C211.944,368.662,208.063,371.349,203.584,371.349L203.584,371.349z"/>
        <path className="suudal" id="suudal2_x5F_17" fill="#F3808E" d="M629.903,371.052c-5.672,0-10.448-4.48-10.448-10.449
            c0-5.674,4.478-10.449,10.448-10.449c5.972,0,10.448,4.479,10.448,10.449c0,4.479-2.687,8.359-7.165,9.852l-0.896,0.299
            C631.395,370.754,630.5,371.052,629.903,371.052L629.903,371.052z"/>
        <path className="suudal" id="suudal2_x5F_3" fill="#F3808E" d="M176.417,362.095c-1.193,0-2.09-0.299-3.284-0.598c-0.597,0-0.896-0.299-1.491-0.598
            c-5.075-2.688-7.165-8.658-4.479-13.731c2.688-5.076,8.658-7.166,13.733-4.48c5.075,2.689,7.165,8.659,4.478,13.733
            C183.881,359.707,180.298,362.095,176.417,362.095z"/>
        <path className="suudal" id="suudal2_x5F_18" fill="#F3808E" d="M657.071,361.199c-5.673,0-10.449-4.479-10.449-10.15c0-3.88,2.09-7.462,5.672-9.255
            c0.299-0.299,0.896-0.299,1.493-0.598c5.374-1.791,11.345,1.195,13.136,6.568c1.791,5.075-0.896,10.747-5.971,12.837
            C659.757,361.199,658.264,361.199,657.071,361.199z"/>
        <path className="suudal" id="suudal2_x5F_2" fill="#F3808E" d="M149.847,350.75c-5.673,0-10.15-4.776-10.15-10.448s4.776-10.15,10.449-10.15
            c5.672,0,10.149,4.777,10.149,10.449c0,1.193-0.299,2.09-0.598,3.283C158.206,348.063,154.325,350.75,149.847,350.75z"/>
        <path className="suudal" id="suudal2_x5F_19" fill="#F3808E" d="M683.64,350.152c-5.673,0-10.448-4.478-10.448-10.149c0-3.582,1.791-6.566,4.479-8.656
            c0.896-0.6,1.492-0.896,2.388-1.195c5.374-1.791,11.346,0.896,13.137,6.271c1.792,5.074-0.598,10.447-5.373,12.837
            C686.626,349.853,685.133,350.152,683.64,350.152L683.64,350.152z"/>
        <path className="suudal" id="suudal2_x5F_20" fill="#F3808E" d="M709.614,337.315c-5.672,0-10.448-4.777-10.448-10.449s4.776-10.447,10.448-10.447
            c5.673,0,10.449,4.775,10.449,10.447c0,4.48-2.985,8.359-7.165,9.854C711.703,337.315,710.51,337.315,709.614,337.315z"/>
        <path className="suudal" id="suudal2_x5F_1" fill="#F3808E" d="M123.874,338.212c-1.493,0-3.284-0.299-4.479-1.193
            c-5.075-2.688-6.866-8.957-4.181-14.031c2.39-4.479,7.465-6.568,12.24-5.076c0.896,0.299,1.791,0.598,2.389,1.195
            c4.776,3.283,5.972,9.553,2.985,14.33C130.442,336.719,127.456,338.51,123.874,338.212L123.874,338.212z"/>
    </g>
    <g id="egnee6">
        <path className="suudal" id="suudal1_x5F_10" fill="#F3808E" d="M374.16,372.611c-0.896,0-1.791,0-2.389-0.299c-5.672-1.493-8.956-6.866-7.463-12.539
            c1.492-5.672,6.865-8.956,12.538-7.463c5.673,1.492,8.957,6.866,7.464,12.538C383.116,369.327,378.937,372.611,374.16,372.611z"/>
        <path className="suudal" id="suudal1_x5F_11" fill="#F3808E" d="M459.716,372.761c-5.673,0-10.15-4.776-10.15-10.449c0-4.775,3.284-8.657,7.762-9.852
            c0.896-0.299,1.792-0.299,2.39-0.299c5.672,0,10.449,4.478,10.449,10.149c0,5.374-3.883,9.853-9.256,10.449
            C460.611,372.761,460.313,372.761,459.716,372.761L459.716,372.761z"/>
        <path className="suudal" id="suudal1_x5F_9" fill="#F3808E" d="M345.5,370.521c-0.896,0-1.791,0-2.389-0.299c-5.672-1.493-8.956-6.866-7.463-12.539
            c1.492-5.672,6.866-8.956,12.538-7.463c5.673,1.492,8.957,6.866,7.464,12.538C354.456,367.237,350.277,370.521,345.5,370.521z"/>
        <path className="suudal" id="suudal1_x5F_12" fill="#F3808E" d="M489.696,370.521c-5.672,0-10.448-4.479-10.448-10.15
            c0-4.776,3.284-8.957,7.762-10.149c0.896-0.299,1.791-0.299,2.39-0.299c5.672,0,10.448,4.479,10.448,10.149
            c0,5.374-3.882,9.853-9.255,10.449C490.293,370.521,489.994,370.521,489.696,370.521L489.696,370.521z"/>
        <path className="suudal" id="suudal1_x5F_8" fill="#F3808E" d="M316.84,367.237c-0.896,0-1.79,0-2.389-0.299c-5.672-1.492-8.956-6.866-7.463-12.539
            c1.492-5.672,6.866-8.956,12.539-7.463c5.672,1.492,8.956,6.866,7.463,12.539C325.796,363.953,321.616,367.237,316.84,367.237z"/>
        <path className="suudal" id="suudal1_x5F_13" fill="#F3808E" d="M518.356,366.938c-5.672,0-10.448-4.478-10.448-10.15
            c0-4.775,3.284-8.955,7.762-10.149c0.896-0.299,1.791-0.299,2.39-0.299c5.672,0,10.149,4.776,10.149,10.448
            c0,5.075-3.881,9.555-8.956,10.15C518.953,366.938,518.655,366.938,518.356,366.938L518.356,366.938z"/>
        <path className="suudal" id="suudal1_x5F_7" fill="#F3808E" d="M288.479,362.76c-0.598,0-1.194,0-1.791-0.298c-5.673-0.896-9.255-6.271-8.359-11.942
            c0.896-5.672,6.271-9.255,11.941-8.359c5.673,0.896,9.255,6.271,8.358,11.942C297.734,359.177,293.554,362.76,288.479,362.76z"/>
        <path className="suudal" id="suudal1_x5F_14" fill="#F3808E" d="M546.717,362.462c-5.673,0-10.448-4.479-10.448-10.449
            c0-5.673,4.478-10.449,10.448-10.449c5.972,0,10.448,4.479,10.448,10.449c0,4.478-2.687,8.358-7.165,9.852
            C549.106,362.162,547.912,362.462,546.717,362.462z"/>
        <path className="suudal" id="suudal1_x5F_6" fill="#F3808E" d="M260.117,357.088c-0.598,0-1.194,0-1.791,0c-5.673-0.896-9.255-6.271-8.358-11.941
            c0.896-5.075,5.074-8.658,10.149-8.658c1.194,0,2.09,0.299,3.284,0.598c5.373,1.792,8.358,7.464,6.567,12.838
            C268.775,354.399,264.595,357.088,260.117,357.088L260.117,357.088z"/>
        <path className="suudal" id="suudal1_x5F_15" fill="#F3808E" d="M575.079,356.489c-5.673,0-10.449-4.478-10.449-10.149s4.479-10.448,10.15-10.448
            c5.673,0,10.449,4.478,10.449,10.15c0,4.478-2.688,8.358-7.165,9.852C577.169,356.489,576.274,356.489,575.079,356.489z"/>
        <path className="suudal" id="suudal1_x5F_5" fill="#F3808E" d="M232.054,349.624c-0.896,0-2.091,0-2.985-0.3c-5.374-1.491-8.657-7.165-7.165-12.837
            c1.493-5.374,7.165-8.358,12.539-7.165l0.896,0.299c5.374,1.791,8.359,7.464,6.568,12.838
            C240.413,346.936,236.532,349.624,232.054,349.624L232.054,349.624z"/>
        <path className="suudal" id="suudal1_x5F_16" fill="#F3808E" d="M602.843,349.324c-5.673,0-10.149-4.775-10.149-10.447
            c0-5.674,4.775-10.15,10.447-10.15c5.674,0,10.15,4.776,10.15,10.448c0,4.479-2.985,8.358-7.165,9.554l-0.896,0.299
            C604.634,349.026,603.74,349.324,602.843,349.324L602.843,349.324z"/>
        <path className="suudal" id="suudal1_x5F_4" fill="#F3808E" d="M204.289,341.263c-0.896,0-2.089,0-2.984-0.298c-5.373-1.493-8.657-7.165-7.165-12.838
            c1.493-5.673,7.165-8.657,12.838-7.165l0.597,0.299c5.374,1.791,8.359,7.762,6.568,13.136
            C212.649,338.577,208.768,341.263,204.289,341.263L204.289,341.263z"/>
        <path className="suudal" id="suudal1_x5F_17" fill="#F3808E" d="M630.608,340.967c-5.672,0-10.448-4.479-10.448-10.449
            c0-5.673,4.478-10.449,10.448-10.449c5.972,0,10.448,4.479,10.448,10.449c0,4.479-2.687,8.359-7.165,9.852l-0.896,0.3
            C632.1,340.668,631.205,340.967,630.608,340.967L630.608,340.967z"/>
        <path className="suudal" id="suudal1_x5F_3" fill="#F3808E" d="M177.122,332.01c-1.193,0-2.09-0.298-3.284-0.598c-0.597,0-0.896-0.299-1.491-0.597
            c-5.075-2.688-7.165-8.658-4.479-13.732c2.688-5.075,8.658-7.165,13.733-4.479c5.075,2.688,7.165,8.658,4.478,13.733
            C184.586,329.621,181.003,332.01,177.122,332.01z"/>
        <path className="suudal" id="suudal1_x5F_18" fill="#F3808E" d="M657.776,331.113c-5.673,0-10.449-4.478-10.449-10.149c0-3.881,2.09-7.463,5.672-9.255
            c0.299-0.299,0.896-0.299,1.493-0.598c5.374-1.791,11.345,1.194,13.136,6.567c1.791,5.076-0.896,10.748-5.971,12.838
            C660.462,331.113,658.969,331.113,657.776,331.113z"/>
        <path className="suudal" id="suudal1_x5F_2" fill="#F3808E" d="M150.552,320.665c-5.673,0-10.15-4.776-10.15-10.448c0-5.673,4.776-10.15,10.449-10.15
            c5.672,0,10.149,4.776,10.149,10.449c0,1.193-0.299,2.089-0.598,3.283C158.911,317.977,155.031,320.665,150.552,320.665z"/>
        <path className="suudal" id="suudal1_x5F_19" fill="#F3808E" d="M684.345,320.067c-5.673,0-10.448-4.478-10.448-10.149
            c0-3.582,1.791-6.567,4.479-8.657c0.896-0.599,1.492-0.896,2.388-1.194c5.374-1.791,11.346,0.896,13.137,6.271
            c1.792,5.074-0.598,10.447-5.373,12.837C687.331,319.768,685.838,320.067,684.345,320.067L684.345,320.067z"/>
        <path className="suudal" id="suudal1_x5F_20" fill="#F3808E" d="M710.319,307.23c-5.672,0-10.448-4.777-10.448-10.449s4.776-10.448,10.448-10.448
            c5.673,0,10.449,4.776,10.449,10.448c0,4.479-2.985,8.359-7.165,9.853C712.408,307.23,711.215,307.23,710.319,307.23z"/>
        <path className="suudal" id="suudal1_x5F_1" fill="#F3808E" d="M124.579,308.127c-1.493,0-3.284-0.3-4.479-1.194
            c-5.075-2.688-6.866-8.956-4.181-14.031c2.39-4.479,7.465-6.567,12.24-5.075c0.896,0.298,1.791,0.598,2.389,1.194
            c4.776,3.283,5.972,9.553,2.985,14.33C131.147,306.634,128.161,308.426,124.579,308.127L124.579,308.127z"/>
    </g>
    <g id="egnee5">
        <path className="suudal" id="suudal8_x5F_10_4_" fill="#F3808E" d="M374.352,305.114c-0.896,0-1.791,0-2.389-0.299
            c-5.672-1.493-8.956-6.866-7.463-12.539c1.492-5.672,6.865-8.956,12.538-7.463c5.673,1.492,8.957,6.866,7.464,12.538
            C383.308,301.83,379.128,305.114,374.352,305.114z"/>
        <path className="suudal" id="suudal8_x5F_11_4_" fill="#F3808E" d="M460.929,305.114c-5.673,0-10.15-4.776-10.15-10.449
            c0-4.775,3.284-8.657,7.762-9.852c0.896-0.299,1.792-0.299,2.39-0.299c5.672,0,10.449,4.478,10.449,10.149
            c0,5.374-3.883,9.853-9.256,10.449C461.823,305.114,461.526,305.114,460.929,305.114L460.929,305.114z"/>
        <path className="suudal" id="suudal8_x5F_9_5_" fill="#F3808E" d="M345.692,303.024c-0.896,0-1.791,0-2.389-0.299
            c-5.672-1.493-8.956-6.866-7.463-12.539c1.492-5.672,6.866-8.956,12.538-7.463c5.673,1.492,8.957,6.866,7.464,12.538
            C354.648,299.74,350.468,303.024,345.692,303.024z"/>
        <path className="suudal" id="suudal8_x5F_12_4_" fill="#F3808E" d="M489.887,303.024c-5.672,0-10.448-4.479-10.448-10.15
            c0-4.776,3.284-8.957,7.762-10.149c0.896-0.299,1.791-0.299,2.39-0.299c5.672,0,10.448,4.479,10.448,10.149
            c0,5.374-3.882,9.853-9.255,10.449C490.485,303.024,490.186,303.024,489.887,303.024L489.887,303.024z"/>
        <path className="suudal" id="suudal8_x5F_8_4_" fill="#F3808E" d="M317.031,299.74c-0.896,0-1.79,0-2.389-0.299c-5.672-1.492-8.956-6.866-7.463-12.539
            c1.492-5.672,6.866-8.956,12.539-7.463c5.672,1.492,8.956,6.866,7.463,12.539C325.988,296.456,321.808,299.74,317.031,299.74z"/>
        <path className="suudal" id="suudal8_x5F_13_4_" fill="#F3808E" d="M518.547,299.441c-5.672,0-10.448-4.478-10.448-10.15
            c0-4.775,3.284-8.955,7.762-10.149c0.896-0.299,1.791-0.299,2.39-0.299c5.672,0,10.149,4.776,10.149,10.448
            c0,5.075-3.881,9.555-8.956,10.15C519.145,299.441,518.846,299.441,518.547,299.441L518.547,299.441z"/>
        <path className="suudal" id="suudal8_x5F_7_4_" fill="#F3808E" d="M288.67,295.262c-0.598,0-1.194,0-1.791-0.298
            c-5.673-0.896-9.255-6.271-8.359-11.942c0.896-5.672,6.271-9.255,11.941-8.359c5.673,0.896,9.255,6.271,8.358,11.942
            C297.925,291.679,293.745,295.262,288.67,295.262z"/>
        <path className="suudal" id="suudal8_x5F_14_4_" fill="#F3808E" d="M546.908,294.965c-5.673,0-10.448-4.479-10.448-10.449
            c0-5.673,4.478-10.449,10.448-10.449c5.972,0,10.448,4.479,10.448,10.449c0,4.478-2.687,8.358-7.165,9.852
            C549.297,294.665,548.104,294.965,546.908,294.965z"/>
        <path className="suudal" id="suudal8_x5F_6_4_" fill="#F3808E" d="M260.309,289.591c-0.598,0-1.194,0-1.791,0c-5.673-0.896-9.255-6.271-8.358-11.941
            c0.896-5.075,5.074-8.658,10.149-8.658c1.194,0,2.09,0.299,3.284,0.598c5.373,1.792,8.358,7.464,6.567,12.838
            C268.966,286.902,264.786,289.591,260.309,289.591L260.309,289.591z"/>
        <path className="suudal" id="suudal8_x5F_15_4_" fill="#F3808E" d="M575.271,288.992c-5.673,0-10.449-4.478-10.449-10.149s4.479-10.448,10.15-10.448
            c5.673,0,10.449,4.478,10.449,10.15c0,4.478-2.688,8.358-7.165,9.852C577.361,288.992,576.465,288.992,575.271,288.992z"/>
        <path className="suudal" id="suudal8_x5F_5_4_" fill="#F3808E" d="M232.245,282.127c-0.896,0-2.091,0-2.985-0.3c-5.374-1.491-8.657-7.165-7.165-12.837
            c1.493-5.374,7.165-8.358,12.539-7.165l0.896,0.299c5.374,1.791,8.359,7.464,6.568,12.838
            C240.605,279.439,236.724,282.127,232.245,282.127L232.245,282.127z"/>
        <path className="suudal" id="suudal8_x5F_16_4_" fill="#F3808E" d="M603.034,281.827c-5.673,0-10.149-4.775-10.149-10.447
            c0-5.674,4.775-10.15,10.447-10.15c5.674,0,10.15,4.776,10.15,10.448c0,4.479-2.985,8.358-7.165,9.554l-0.896,0.299
            C604.825,281.529,603.931,281.827,603.034,281.827L603.034,281.827z"/>
        <path className="suudal" id="suudal8_x5F_4_4_" fill="#F3808E" d="M204.481,273.766c-0.896,0-2.089,0-2.984-0.298
            c-5.373-1.493-8.657-7.165-7.165-12.838c1.493-5.673,7.165-8.657,12.838-7.165l0.597,0.299c5.374,1.791,8.359,7.762,6.568,13.136
            C212.84,271.08,208.959,273.766,204.481,273.766L204.481,273.766z"/>
        <path className="suudal" id="suudal8_x5F_17_4_" fill="#F3808E" d="M630.799,273.469c-5.672,0-10.448-4.479-10.448-10.449
            c0-5.673,4.478-10.449,10.448-10.449c5.972,0,10.448,4.479,10.448,10.449c0,4.479-2.687,8.359-7.165,9.852l-0.896,0.3
            C632.291,273.171,631.397,273.469,630.799,273.469L630.799,273.469z"/>
        <path className="suudal" id="suudal8_x5F_3_4_" fill="#F3808E" d="M177.314,264.512c-1.193,0-2.09-0.298-3.284-0.598c-0.597,0-0.896-0.299-1.491-0.597
            c-5.075-2.688-7.165-8.658-4.479-13.732c2.688-5.075,8.658-7.165,13.733-4.479c5.075,2.688,7.165,8.658,4.478,13.733
            C184.778,262.124,181.195,264.512,177.314,264.512z"/>
        <path className="suudal" id="suudal8_x5F_18_4_" fill="#F3808E" d="M657.967,263.616c-5.673,0-10.449-4.478-10.449-10.149
            c0-3.881,2.09-7.463,5.672-9.255c0.299-0.299,0.896-0.299,1.493-0.598c5.374-1.791,11.345,1.194,13.136,6.567
            c1.791,5.076-0.896,10.748-5.971,12.838C660.654,263.616,659.16,263.616,657.967,263.616z"/>
        <path className="suudal" id="suudal8_x5F_2_4_" fill="#F3808E" d="M150.743,253.168c-5.673,0-10.15-4.776-10.15-10.448
            c0-5.673,4.776-10.15,10.449-10.15c5.672,0,10.149,4.776,10.149,10.449c0,1.193-0.299,2.089-0.598,3.283
            C159.103,250.48,155.222,253.168,150.743,253.168z"/>
        <path className="suudal" id="suudal8_x5F_19_4_" fill="#F3808E" d="M684.536,252.57c-5.673,0-10.448-4.478-10.448-10.149
            c0-3.582,1.791-6.567,4.479-8.657c0.896-0.599,1.492-0.896,2.388-1.194c5.374-1.791,11.346,0.896,13.137,6.271
            c1.792,5.074-0.598,10.447-5.373,12.837C687.523,252.271,686.03,252.57,684.536,252.57L684.536,252.57z"/>
        <path className="suudal" id="suudal8_x5F_20_4_" fill="#F3808E" d="M710.51,239.733c-5.672,0-10.448-4.777-10.448-10.449s4.776-10.448,10.448-10.448
            c5.673,0,10.449,4.776,10.449,10.448c0,4.479-2.985,8.359-7.165,9.853C712.6,239.733,711.406,239.733,710.51,239.733z"/>
        <path className="suudal" id="suudal8_x5F_1_4_" fill="#F3808E" d="M124.771,240.63c-1.493,0-3.284-0.3-4.479-1.194
            c-5.075-2.688-6.866-8.956-4.181-14.031c2.39-4.479,7.465-6.567,12.24-5.075c0.896,0.298,1.791,0.598,2.389,1.194
            c4.776,3.283,5.972,9.553,2.985,14.33C131.338,239.136,128.353,240.928,124.771,240.63L124.771,240.63z"/>
    </g>
    <g id="egnee4">
        <path className="suudal" id="suudal8_x5F_10_1_" fill="#F3808E" d="M373.455,276.622c-0.896,0-1.791,0-2.389-0.299
            c-5.672-1.493-8.956-6.866-7.463-12.539c1.492-5.672,6.865-8.956,12.538-7.463c5.673,1.492,8.957,6.866,7.464,12.538
            C382.411,273.338,378.232,276.622,373.455,276.622z"/>
        <path className="suudal" id="suudal8_x5F_11_1_" fill="#F3808E" d="M460.032,276.622c-5.673,0-10.15-4.776-10.15-10.449
            c0-4.775,3.284-8.657,7.762-9.852c0.896-0.299,1.792-0.299,2.39-0.299c5.672,0,10.449,4.478,10.449,10.149
            c0,5.374-3.883,9.853-9.256,10.449C460.927,276.622,460.629,276.622,460.032,276.622L460.032,276.622z"/>
        <path className="suudal" id="suudal8_x5F_9_2_" fill="#F3808E" d="M344.795,274.532c-0.896,0-1.791,0-2.389-0.299
            c-5.672-1.493-8.956-6.866-7.463-12.539c1.492-5.672,6.866-8.956,12.538-7.463c5.673,1.492,8.957,6.866,7.464,12.538
            C353.751,271.248,349.572,274.532,344.795,274.532z"/>
        <path className="suudal" id="suudal8_x5F_12_1_" fill="#F3808E" d="M488.99,274.532c-5.672,0-10.448-4.479-10.448-10.15
            c0-4.776,3.284-8.957,7.762-10.149c0.896-0.299,1.791-0.299,2.39-0.299c5.672,0,10.448,4.479,10.448,10.149
            c0,5.374-3.882,9.853-9.255,10.449C489.588,274.532,489.289,274.532,488.99,274.532L488.99,274.532z"/>
        <path className="suudal" id="suudal8_x5F_8_1_" fill="#F3808E" d="M316.135,271.248c-0.896,0-1.79,0-2.389-0.299
            c-5.672-1.492-8.956-6.866-7.463-12.539c1.492-5.672,6.866-8.956,12.539-7.463c5.672,1.492,8.956,6.866,7.463,12.539
            C325.091,267.964,320.911,271.248,316.135,271.248z"/>
        <path className="suudal" id="suudal8_x5F_13_1_" fill="#F3808E" d="M517.651,270.949c-5.672,0-10.448-4.478-10.448-10.15
            c0-4.775,3.284-8.955,7.762-10.149c0.896-0.299,1.791-0.299,2.39-0.299c5.672,0,10.149,4.776,10.149,10.448
            c0,5.075-3.881,9.555-8.956,10.15C518.248,270.949,517.949,270.949,517.651,270.949L517.651,270.949z"/>
        <path className="suudal" id="suudal8_x5F_7_1_" fill="#F3808E" d="M287.774,266.77c-0.598,0-1.194,0-1.791-0.298
            c-5.673-0.896-9.255-6.271-8.359-11.942c0.896-5.672,6.271-9.255,11.941-8.359c5.673,0.896,9.255,6.271,8.358,11.942
            C297.029,263.187,292.849,266.77,287.774,266.77z"/>
        <path className="suudal" id="suudal8_x5F_14_1_" fill="#F3808E" d="M546.012,266.472c-5.673,0-10.448-4.479-10.448-10.449
            c0-5.673,4.478-10.449,10.448-10.449c5.972,0,10.448,4.479,10.448,10.449c0,4.478-2.687,8.358-7.165,9.852
            C548.401,266.173,547.207,266.472,546.012,266.472z"/>
        <path className="suudal" id="suudal8_x5F_6_1_" fill="#F3808E" d="M259.412,261.098c-0.598,0-1.194,0-1.791,0c-5.673-0.896-9.255-6.271-8.358-11.941
            c0.896-5.075,5.074-8.658,10.149-8.658c1.194,0,2.09,0.299,3.284,0.598c5.373,1.792,8.358,7.464,6.567,12.838
            C268.07,258.41,263.89,261.098,259.412,261.098L259.412,261.098z"/>
        <path className="suudal" id="suudal8_x5F_15_1_" fill="#F3808E" d="M574.374,260.5c-5.673,0-10.449-4.478-10.449-10.149s4.479-10.448,10.15-10.448
            c5.673,0,10.449,4.478,10.449,10.15c0,4.478-2.688,8.358-7.165,9.852C576.464,260.5,575.569,260.5,574.374,260.5z"/>
        <path className="suudal" id="suudal8_x5F_5_1_" fill="#F3808E" d="M231.349,253.635c-0.896,0-2.091,0-2.985-0.3c-5.374-1.491-8.657-7.165-7.165-12.837
            c1.493-5.374,7.165-8.358,12.539-7.165l0.896,0.299c5.374,1.791,8.359,7.464,6.568,12.838
            C239.708,250.947,235.827,253.635,231.349,253.635L231.349,253.635z"/>
        <path className="suudal" id="suudal8_x5F_16_1_" fill="#F3808E" d="M602.138,253.335c-5.673,0-10.149-4.775-10.149-10.447
            c0-5.674,4.775-10.15,10.447-10.15c5.674,0,10.15,4.776,10.15,10.448c0,4.479-2.985,8.358-7.165,9.554l-0.896,0.299
            C603.929,253.037,603.034,253.335,602.138,253.335L602.138,253.335z"/>
        <path className="suudal" id="suudal8_x5F_4_1_" fill="#F3808E" d="M203.584,245.274c-0.896,0-2.089,0-2.984-0.298
            c-5.373-1.493-8.657-7.165-7.165-12.838c1.493-5.673,7.165-8.657,12.838-7.165l0.597,0.299c5.374,1.791,8.359,7.762,6.568,13.136
            C211.944,242.588,208.063,245.274,203.584,245.274L203.584,245.274z"/>
        <path className="suudal" id="suudal8_x5F_17_1_" fill="#F3808E" d="M629.903,244.977c-5.672,0-10.448-4.479-10.448-10.449
            c0-5.673,4.478-10.449,10.448-10.449c5.972,0,10.448,4.479,10.448,10.449c0,4.479-2.687,8.359-7.165,9.852l-0.896,0.3
            C631.395,244.678,630.5,244.977,629.903,244.977L629.903,244.977z"/>
        <path className="suudal" id="suudal8_x5F_3_1_" fill="#F3808E" d="M176.417,236.02c-1.193,0-2.09-0.298-3.284-0.598c-0.597,0-0.896-0.299-1.491-0.597
            c-5.075-2.688-7.165-8.658-4.479-13.732c2.688-5.075,8.658-7.165,13.733-4.479c5.075,2.688,7.165,8.658,4.478,13.733
            C183.881,233.632,180.298,236.02,176.417,236.02z"/>
        <path className="suudal" id="suudal8_x5F_18_1_" fill="#F3808E" d="M657.071,235.124c-5.673,0-10.449-4.478-10.449-10.149
            c0-3.881,2.09-7.463,5.672-9.255c0.299-0.299,0.896-0.299,1.493-0.598c5.374-1.791,11.345,1.194,13.136,6.567
            c1.791,5.076-0.896,10.748-5.971,12.838C659.757,235.124,658.264,235.124,657.071,235.124z"/>
        <path className="suudal" id="suudal8_x5F_2_1_" fill="#F3808E" d="M149.847,224.676c-5.673,0-10.15-4.776-10.15-10.448
            c0-5.673,4.776-10.15,10.449-10.15c5.672,0,10.149,4.776,10.149,10.449c0,1.193-0.299,2.089-0.598,3.283
            C158.206,221.988,154.325,224.676,149.847,224.676z"/>
        <path className="suudal" id="suudal8_x5F_19_1_" fill="#F3808E" d="M683.64,224.078c-5.673,0-10.448-4.478-10.448-10.149
            c0-3.582,1.791-6.567,4.479-8.657c0.896-0.599,1.492-0.896,2.388-1.194c5.374-1.791,11.346,0.896,13.137,6.271
            c1.792,5.074-0.598,10.447-5.373,12.837C686.626,223.779,685.133,224.078,683.64,224.078L683.64,224.078z"/>
        <path className="suudal" id="suudal8_x5F_20_1_" fill="#F3808E" d="M709.614,211.241c-5.672,0-10.448-4.777-10.448-10.449s4.776-10.448,10.448-10.448
            c5.673,0,10.449,4.776,10.449,10.448c0,4.479-2.985,8.359-7.165,9.853C711.703,211.241,710.51,211.241,709.614,211.241z"/>
        <path className="suudal" id="suudal8_x5F_1_1_" fill="#F3808E" d="M123.874,212.137c-1.493,0-3.284-0.3-4.479-1.194
            c-5.075-2.688-6.866-8.956-4.181-14.031c2.39-4.479,7.465-6.567,12.24-5.075c0.896,0.298,1.791,0.598,2.389,1.194
            c4.776,3.283,5.972,9.553,2.985,14.33C130.442,210.644,127.456,212.436,123.874,212.137L123.874,212.137z"/>
    </g>
    <g id="egnee3">
        <path className="suudal" id="suudal8_x5F_10_3_" fill="#F3808E" d="M373.455,243.782c-0.896,0-1.791,0-2.389-0.299
            c-5.672-1.493-8.956-6.866-7.463-12.539c1.492-5.672,6.865-8.956,12.538-7.463c5.673,1.492,8.957,6.866,7.464,12.538
            C382.411,240.498,378.232,243.782,373.455,243.782z"/>
        <path className="suudal" id="suudal8_x5F_11_3_" fill="#F3808E" d="M460.032,243.782c-5.673,0-10.15-4.776-10.15-10.449
            c0-4.775,3.284-8.657,7.762-9.852c0.896-0.299,1.792-0.299,2.39-0.299c5.672,0,10.449,4.478,10.449,10.149
            c0,5.374-3.883,9.853-9.256,10.449C460.927,243.782,460.629,243.782,460.032,243.782L460.032,243.782z"/>
        <path className="suudal" id="suudal8_x5F_9_4_" fill="#F3808E" d="M344.795,241.692c-0.896,0-1.791,0-2.389-0.299
            c-5.672-1.493-8.956-6.866-7.463-12.539c1.492-5.672,6.866-8.956,12.538-7.463c5.673,1.492,8.957,6.866,7.464,12.538
            C353.751,238.408,349.572,241.692,344.795,241.692z"/>
        <path className="suudal" id="suudal8_x5F_12_3_" fill="#F3808E" d="M488.99,241.692c-5.672,0-10.448-4.479-10.448-10.15
            c0-4.776,3.284-8.957,7.762-10.149c0.896-0.299,1.791-0.299,2.39-0.299c5.672,0,10.448,4.479,10.448,10.149
            c0,5.374-3.882,9.853-9.255,10.449C489.588,241.692,489.289,241.692,488.99,241.692L488.99,241.692z"/>
        <path className="suudal" id="suudal8_x5F_8_3_" fill="#F3808E" d="M316.135,238.408c-0.896,0-1.79,0-2.389-0.299
            c-5.672-1.492-8.956-6.866-7.463-12.539c1.492-5.672,6.866-8.956,12.539-7.463c5.672,1.492,8.956,6.866,7.463,12.539
            C325.091,235.124,320.911,238.408,316.135,238.408z"/>
        <path className="suudal" id="suudal8_x5F_13_3_" fill="#F3808E" d="M517.651,238.109c-5.672,0-10.448-4.478-10.448-10.15
            c0-4.775,3.284-8.955,7.762-10.149c0.896-0.299,1.791-0.299,2.39-0.299c5.672,0,10.149,4.776,10.149,10.448
            c0,5.075-3.881,9.555-8.956,10.15C518.248,238.109,517.949,238.109,517.651,238.109L517.651,238.109z"/>
        <path className="suudal" id="suudal8_x5F_7_3_" fill="#F3808E" d="M287.774,233.93c-0.598,0-1.194,0-1.791-0.298
            c-5.673-0.896-9.255-6.271-8.359-11.942c0.896-5.672,6.271-9.255,11.941-8.359c5.673,0.896,9.255,6.271,8.358,11.942
            C297.029,230.347,292.849,233.93,287.774,233.93z"/>
        <path className="suudal" id="suudal8_x5F_14_3_" fill="#F3808E" d="M546.012,233.633c-5.673,0-10.448-4.479-10.448-10.449
            c0-5.673,4.478-10.449,10.448-10.449c5.972,0,10.448,4.479,10.448,10.449c0,4.478-2.687,8.358-7.165,9.852
            C548.401,233.333,547.207,233.633,546.012,233.633z"/>
        <path className="suudal" id="suudal8_x5F_6_3_" fill="#F3808E" d="M259.412,228.259c-0.598,0-1.194,0-1.791,0c-5.673-0.896-9.255-6.271-8.358-11.941
            c0.896-5.075,5.074-8.658,10.149-8.658c1.194,0,2.09,0.299,3.284,0.598c5.373,1.792,8.358,7.464,6.567,12.838
            C268.07,225.57,263.89,228.259,259.412,228.259L259.412,228.259z"/>
        <path className="suudal" id="suudal8_x5F_15_3_" fill="#F3808E" d="M574.374,227.66c-5.673,0-10.449-4.478-10.449-10.149s4.479-10.448,10.15-10.448
            c5.673,0,10.449,4.478,10.449,10.15c0,4.478-2.688,8.358-7.165,9.852C576.464,227.66,575.569,227.66,574.374,227.66z"/>
        <path className="suudal" id="suudal8_x5F_5_3_" fill="#F3808E" d="M231.349,220.795c-0.896,0-2.091,0-2.985-0.3c-5.374-1.491-8.657-7.165-7.165-12.837
            c1.493-5.374,7.165-8.358,12.539-7.165l0.896,0.299c5.374,1.791,8.359,7.464,6.568,12.838
            C239.708,218.107,235.827,220.795,231.349,220.795L231.349,220.795z"/>
        <path className="suudal" id="suudal8_x5F_16_3_" fill="#F3808E" d="M602.138,220.495c-5.673,0-10.149-4.775-10.149-10.447
            c0-5.674,4.775-10.15,10.447-10.15c5.674,0,10.15,4.776,10.15,10.448c0,4.479-2.985,8.358-7.165,9.554l-0.896,0.299
            C603.929,220.197,603.034,220.495,602.138,220.495L602.138,220.495z"/>
        <path className="suudal" id="suudal8_x5F_4_3_" fill="#F3808E" d="M203.584,212.434c-0.896,0-2.089,0-2.984-0.298
            c-5.373-1.493-8.657-7.165-7.165-12.838c1.493-5.673,7.165-8.657,12.838-7.165l0.597,0.299c5.374,1.791,8.359,7.762,6.568,13.136
            C211.944,209.748,208.063,212.434,203.584,212.434L203.584,212.434z"/>
        <path className="suudal" id="suudal8_x5F_17_3_" fill="#F3808E" d="M629.903,212.137c-5.672,0-10.448-4.479-10.448-10.449
            c0-5.673,4.478-10.449,10.448-10.449c5.972,0,10.448,4.479,10.448,10.449c0,4.479-2.687,8.359-7.165,9.852l-0.896,0.3
            C631.395,211.839,630.5,212.137,629.903,212.137L629.903,212.137z"/>
        <path className="suudal" id="suudal8_x5F_3_3_" fill="#F3808E" d="M176.417,203.18c-1.193,0-2.09-0.298-3.284-0.598c-0.597,0-0.896-0.299-1.491-0.597
            c-5.075-2.688-7.165-8.658-4.479-13.732c2.688-5.075,8.658-7.165,13.733-4.479c5.075,2.688,7.165,8.658,4.478,13.733
            C183.881,200.792,180.298,203.18,176.417,203.18z"/>
        <path className="suudal" id="suudal8_x5F_18_3_" fill="#F3808E" d="M657.071,202.284c-5.673,0-10.449-4.478-10.449-10.149
            c0-3.881,2.09-7.463,5.672-9.255c0.299-0.299,0.896-0.299,1.493-0.598c5.374-1.791,11.345,1.194,13.136,6.567
            c1.791,5.076-0.896,10.748-5.971,12.838C659.757,202.284,658.264,202.284,657.071,202.284z"/>
        <path className="suudal" id="suudal8_x5F_2_3_" fill="#F3808E" d="M149.847,191.836c-5.673,0-10.15-4.776-10.15-10.448
            c0-5.673,4.776-10.15,10.449-10.15c5.672,0,10.149,4.776,10.149,10.449c0,1.193-0.299,2.089-0.598,3.283
            C158.206,189.148,154.325,191.836,149.847,191.836z"/>
        <path className="suudal" id="suudal8_x5F_19_3_" fill="#F3808E" d="M683.64,191.238c-5.673,0-10.448-4.478-10.448-10.149
            c0-3.582,1.791-6.567,4.479-8.657c0.896-0.599,1.492-0.896,2.388-1.194c5.374-1.791,11.346,0.896,13.137,6.271
            c1.792,5.074-0.598,10.447-5.373,12.837C686.626,190.939,685.133,191.238,683.64,191.238L683.64,191.238z"/>
        <path className="suudal" id="suudal8_x5F_20_3_" fill="#F3808E" d="M709.614,178.401c-5.672,0-10.448-4.777-10.448-10.449s4.776-10.448,10.448-10.448
            c5.673,0,10.449,4.776,10.449,10.448c0,4.479-2.985,8.359-7.165,9.853C711.703,178.401,710.51,178.401,709.614,178.401z"/>
        <path className="suudal" id="suudal8_x5F_1_3_" fill="#F3808E" d="M123.874,179.298c-1.493,0-3.284-0.3-4.479-1.194
            c-5.075-2.688-6.866-8.956-4.181-14.031c2.39-4.479,7.465-6.567,12.24-5.075c0.896,0.298,1.791,0.598,2.389,1.194
            c4.776,3.283,5.972,9.553,2.985,14.33C130.442,177.804,127.456,179.596,123.874,179.298L123.874,179.298z"/>
    </g>
    <g id="egnee2">
        <path className="suudal" id="suudal8_x5F_10_5_" fill="#F3808E" d="M373.455,213.481c-0.896,0-1.791,0-2.389-0.299
            c-5.672-1.494-8.956-6.867-7.463-12.539c1.492-5.672,6.865-8.957,12.538-7.463c5.673,1.492,8.957,6.865,7.464,12.537
            C382.411,210.196,378.232,213.481,373.455,213.481z"/>
        <path className="suudal" id="suudal8_x5F_11_5_" fill="#F3808E" d="M460.032,213.481c-5.673,0-10.15-4.777-10.15-10.449
            c0-4.775,3.284-8.658,7.762-9.852c0.896-0.299,1.792-0.299,2.39-0.299c5.672,0,10.449,4.477,10.449,10.148
            c0,5.375-3.883,9.854-9.256,10.449C460.927,213.481,460.629,213.481,460.032,213.481L460.032,213.481z"/>
        <path className="suudal" id="suudal8_x5F_9_1_" fill="#F3808E" d="M344.795,211.391c-0.896,0-1.791,0-2.389-0.299
            c-5.672-1.494-8.956-6.867-7.463-12.539c1.492-5.672,6.866-8.957,12.538-7.463c5.673,1.492,8.957,6.865,7.464,12.537
            C353.751,208.106,349.572,211.391,344.795,211.391z"/>
        <path className="suudal" id="suudal8_x5F_12_5_" fill="#F3808E" d="M488.99,211.391c-5.672,0-10.448-4.479-10.448-10.15
            c0-4.777,3.284-8.957,7.762-10.15c0.896-0.299,1.791-0.299,2.39-0.299c5.672,0,10.448,4.479,10.448,10.15
            c0,5.373-3.882,9.852-9.255,10.449C489.588,211.391,489.289,211.391,488.99,211.391L488.99,211.391z"/>
        <path className="suudal" id="suudal8_x5F_8_5_" fill="#F3808E" d="M316.135,208.106c-0.896,0-1.79,0-2.389-0.299
            c-5.672-1.492-8.956-6.865-7.463-12.539c1.492-5.672,6.866-8.955,12.539-7.463c5.672,1.492,8.956,6.867,7.463,12.539
            C325.091,204.823,320.911,208.106,316.135,208.106z"/>
        <path className="suudal" id="suudal8_x5F_13_5_" fill="#F3808E" d="M517.651,207.807c-5.672,0-10.448-4.477-10.448-10.15
            c0-4.775,3.284-8.955,7.762-10.148c0.896-0.299,1.791-0.299,2.39-0.299c5.672,0,10.149,4.775,10.149,10.447
            c0,5.076-3.881,9.555-8.956,10.15C518.248,207.807,517.949,207.807,517.651,207.807L517.651,207.807z"/>
        <path className="suudal" id="suudal8_x5F_7_5_" fill="#F3808E" d="M287.774,203.63c-0.598,0-1.194,0-1.791-0.299c-5.673-0.896-9.255-6.27-8.359-11.941
            c0.896-5.672,6.271-9.256,11.941-8.359c5.673,0.896,9.255,6.27,8.358,11.941C297.029,200.046,292.849,203.63,287.774,203.63z"/>
        <path className="suudal" id="suudal8_x5F_14_5_" fill="#F3808E" d="M546.012,203.331c-5.673,0-10.448-4.479-10.448-10.449
            c0-5.672,4.478-10.449,10.448-10.449c5.972,0,10.448,4.48,10.448,10.449c0,4.479-2.687,8.359-7.165,9.852
            C548.401,203.032,547.207,203.331,546.012,203.331z"/>
        <path className="suudal" id="suudal8_x5F_6_5_" fill="#F3808E" d="M259.412,197.958c-0.598,0-1.194,0-1.791,0c-5.673-0.896-9.255-6.271-8.358-11.941
            c0.896-5.076,5.074-8.658,10.149-8.658c1.194,0,2.09,0.299,3.284,0.598c5.373,1.791,8.358,7.463,6.567,12.838
            C268.07,195.268,263.89,197.958,259.412,197.958L259.412,197.958z"/>
        <path className="suudal" id="suudal8_x5F_15_5_" fill="#F3808E" d="M574.374,197.358c-5.673,0-10.449-4.477-10.449-10.148s4.479-10.449,10.15-10.449
            c5.673,0,10.449,4.479,10.449,10.15c0,4.479-2.688,8.359-7.165,9.852C576.464,197.358,575.569,197.358,574.374,197.358z"/>
        <path className="suudal" id="suudal8_x5F_5_5_" fill="#F3808E" d="M231.349,190.493c-0.896,0-2.091,0-2.985-0.299
            c-5.374-1.492-8.657-7.166-7.165-12.838c1.493-5.373,7.165-8.357,12.539-7.164l0.896,0.299c5.374,1.791,8.359,7.463,6.568,12.838
            C239.708,187.805,235.827,190.493,231.349,190.493L231.349,190.493z"/>
        <path className="suudal" id="suudal8_x5F_16_5_" fill="#F3808E" d="M602.138,190.194c-5.673,0-10.149-4.775-10.149-10.447
            c0-5.674,4.775-10.15,10.447-10.15c5.674,0,10.15,4.775,10.15,10.447c0,4.479-2.985,8.359-7.165,9.555l-0.896,0.299
            C603.929,189.895,603.034,190.194,602.138,190.194L602.138,190.194z"/>
        <path className="suudal" id="suudal8_x5F_4_5_" fill="#F3808E" d="M203.584,182.134c-0.896,0-2.089,0-2.984-0.299
            c-5.373-1.492-8.657-7.164-7.165-12.838c1.493-5.672,7.165-8.656,12.838-7.164l0.597,0.299c5.374,1.791,8.359,7.762,6.568,13.135
            C211.944,179.446,208.063,182.134,203.584,182.134L203.584,182.134z"/>
        <path className="suudal" id="suudal8_x5F_17_5_" fill="#F3808E" d="M629.903,181.837c-5.672,0-10.448-4.48-10.448-10.449
            c0-5.674,4.478-10.449,10.448-10.449c5.972,0,10.448,4.479,10.448,10.449c0,4.479-2.687,8.359-7.165,9.852l-0.896,0.299
            C631.395,181.538,630.5,181.837,629.903,181.837L629.903,181.837z"/>
        <path className="suudal" id="suudal8_x5F_3_5_" fill="#F3808E" d="M176.417,172.88c-1.193,0-2.09-0.299-3.284-0.598c-0.597,0-0.896-0.299-1.491-0.598
            c-5.075-2.688-7.165-8.658-4.479-13.731c2.688-5.076,8.658-7.166,13.733-4.48c5.075,2.688,7.165,8.659,4.478,13.733
            C183.881,170.491,180.298,172.88,176.417,172.88z"/>
        <path className="suudal" id="suudal8_x5F_18_5_" fill="#F3808E" d="M657.071,171.983c-5.673,0-10.449-4.479-10.449-10.15
            c0-3.88,2.09-7.462,5.672-9.254c0.299-0.299,0.896-0.299,1.493-0.598c5.374-1.791,11.345,1.194,13.136,6.568
            c1.791,5.075-0.896,10.747-5.971,12.837C659.757,171.983,658.264,171.983,657.071,171.983z"/>
        <path className="suudal" id="suudal8_x5F_2_5_" fill="#F3808E" d="M149.847,161.534c-5.673,0-10.15-4.776-10.15-10.448
            c0-5.673,4.776-10.15,10.449-10.15c5.672,0,10.149,4.776,10.149,10.449c0,1.193-0.299,2.089-0.598,3.283
            C158.206,158.847,154.325,161.534,149.847,161.534z"/>
        <path className="suudal" id="suudal8_x5F_19_5_" fill="#F3808E" d="M683.64,160.936c-5.673,0-10.448-4.477-10.448-10.149
            c0-3.582,1.791-6.567,4.479-8.657c0.896-0.599,1.492-0.896,2.388-1.194c5.374-1.791,11.346,0.896,13.137,6.271
            c1.792,5.074-0.598,10.448-5.373,12.837C686.626,160.637,685.133,160.936,683.64,160.936L683.64,160.936z"/>
        <path className="suudal" id="suudal8_x5F_20_5_" fill="#F3808E" d="M709.614,148.1c-5.672,0-10.448-4.777-10.448-10.449s4.776-10.448,10.448-10.448
            c5.673,0,10.449,4.776,10.449,10.448c0,4.479-2.985,8.359-7.165,9.853C711.703,148.1,710.51,148.1,709.614,148.1z"/>
        <path className="suudal" id="suudal8_x5F_1_5_" fill="#F3808E" d="M123.874,148.996c-1.493,0-3.284-0.3-4.479-1.194
            c-5.075-2.688-6.866-8.956-4.181-14.031c2.39-4.479,7.465-6.567,12.24-5.075c0.896,0.298,1.791,0.598,2.389,1.194
            c4.776,3.283,5.972,9.553,2.985,14.33C130.442,147.503,127.456,149.295,123.874,148.996L123.874,148.996z"/>
    </g>
    <g id="egnee1">
        <path className="suudal" id="suudal8_x5F_10_2_" fill="#F3808E" d="M374.16,183.395c-0.896,0-1.791,0-2.389-0.299
            c-5.672-1.493-8.956-6.866-7.463-12.539c1.492-5.672,6.865-8.956,12.538-7.463c5.673,1.492,8.957,6.866,7.464,12.538
            C383.116,180.111,378.937,183.395,374.16,183.395z"/>
        <path className="suudal" id="suudal8_x5F_11_2_" fill="#F3808E" d="M459.716,183.546c-5.673,0-10.15-4.776-10.15-10.449
            c0-4.775,3.284-8.657,7.762-9.852c0.896-0.299,1.792-0.299,2.39-0.299c5.672,0,10.449,4.478,10.449,10.149
            c0,5.374-3.883,9.853-9.256,10.449C460.611,183.546,460.313,183.546,459.716,183.546L459.716,183.546z"/>
        <path className="suudal" id="suudal8_x5F_9_3_" fill="#F3808E" d="M345.5,181.305c-0.896,0-1.791,0-2.389-0.299c-5.672-1.493-8.956-6.866-7.463-12.539
            c1.492-5.672,6.866-8.956,12.538-7.463c5.673,1.492,8.957,6.866,7.464,12.538C354.456,178.021,350.277,181.305,345.5,181.305z"/>
        <path className="suudal" id="suudal8_x5F_12_2_" fill="#F3808E" d="M489.696,181.305c-5.672,0-10.448-4.479-10.448-10.15
            c0-4.776,3.284-8.957,7.762-10.149c0.896-0.299,1.791-0.299,2.39-0.299c5.672,0,10.448,4.479,10.448,10.149
            c0,5.374-3.882,9.853-9.255,10.449C490.293,181.305,489.994,181.305,489.696,181.305L489.696,181.305z"/>
        <path className="suudal" id="suudal8_x5F_8_2_" fill="#F3808E" d="M316.84,178.021c-0.896,0-1.79,0-2.389-0.299c-5.672-1.492-8.956-6.866-7.463-12.539
            c1.492-5.672,6.866-8.956,12.539-7.463c5.672,1.492,8.956,6.866,7.463,12.539C325.796,174.737,321.616,178.021,316.84,178.021z"/>
        <path className="suudal" id="suudal8_x5F_13_2_" fill="#F3808E" d="M518.356,177.722c-5.672,0-10.448-4.478-10.448-10.15
            c0-4.775,3.284-8.955,7.762-10.149c0.896-0.299,1.791-0.299,2.39-0.299c5.672,0,10.149,4.776,10.149,10.448
            c0,5.075-3.881,9.555-8.956,10.15C518.953,177.722,518.655,177.722,518.356,177.722L518.356,177.722z"/>
        <path className="suudal" id="suudal8_x5F_7_2_" fill="#F3808E" d="M288.479,173.544c-0.598,0-1.194,0-1.791-0.298
            c-5.673-0.896-9.255-6.271-8.359-11.942c0.896-5.672,6.271-9.255,11.941-8.359c5.673,0.896,9.255,6.271,8.358,11.942
            C297.734,169.961,293.554,173.544,288.479,173.544z"/>
        <path className="suudal" id="suudal8_x5F_14_2_" fill="#F3808E" d="M546.717,173.246c-5.673,0-10.448-4.479-10.448-10.449
            c0-5.673,4.478-10.449,10.448-10.449c5.972,0,10.448,4.479,10.448,10.449c0,4.478-2.687,8.358-7.165,9.852
            C549.106,172.946,547.912,173.246,546.717,173.246z"/>
        <path className="suudal" id="suudal8_x5F_6_2_" fill="#F3808E" d="M260.117,167.872c-0.598,0-1.194,0-1.791,0c-5.673-0.896-9.255-6.271-8.358-11.941
            c0.896-5.075,5.074-8.658,10.149-8.658c1.194,0,2.09,0.299,3.284,0.598c5.373,1.792,8.358,7.464,6.567,12.838
            C268.775,165.183,264.595,167.872,260.117,167.872L260.117,167.872z"/>
        <path className="suudal" id="suudal8_x5F_15_2_" fill="#F3808E" d="M575.079,167.273c-5.673,0-10.449-4.478-10.449-10.149s4.479-10.448,10.15-10.448
            c5.673,0,10.449,4.478,10.449,10.15c0,4.478-2.688,8.358-7.165,9.852C577.169,167.273,576.274,167.273,575.079,167.273z"/>
        <path className="suudal" id="suudal8_x5F_5_2_" fill="#F3808E" d="M232.054,160.408c-0.896,0-2.091,0-2.985-0.3c-5.374-1.491-8.657-7.165-7.165-12.837
            c1.493-5.374,7.165-8.358,12.539-7.165l0.896,0.299c5.374,1.791,8.359,7.464,6.568,12.838
            C240.413,157.72,236.532,160.408,232.054,160.408L232.054,160.408z"/>
        <path className="suudal" id="suudal8_x5F_16_2_" fill="#F3808E" d="M602.843,160.108c-5.673,0-10.149-4.775-10.149-10.447
            c0-5.674,4.775-10.15,10.447-10.15c5.674,0,10.15,4.776,10.15,10.448c0,4.479-2.985,8.358-7.165,9.554l-0.896,0.299
            C604.634,159.81,603.74,160.108,602.843,160.108L602.843,160.108z"/>
        <path className="suudal" id="suudal8_x5F_4_2_" fill="#F3808E" d="M204.289,152.048c-0.896,0-2.089,0-2.984-0.298
            c-5.373-1.493-8.657-7.165-7.165-12.838c1.493-5.673,7.165-8.657,12.838-7.165l0.597,0.299c5.374,1.791,8.359,7.762,6.568,13.136
            C212.649,149.361,208.768,152.048,204.289,152.048L204.289,152.048z"/>
        <path className="suudal" id="suudal8_x5F_17_2_" fill="#F3808E" d="M630.608,151.751c-5.672,0-10.448-4.479-10.448-10.449
            c0-5.673,4.478-10.449,10.448-10.449c5.972,0,10.448,4.479,10.448,10.449c0,4.479-2.687,8.359-7.165,9.852l-0.896,0.3
            C632.1,151.452,631.205,151.751,630.608,151.751L630.608,151.751z"/>
        <path className="suudal" id="suudal8_x5F_3_2_" fill="#F3808E" d="M177.122,142.794c-1.193,0-2.09-0.298-3.284-0.598c-0.597,0-0.896-0.299-1.491-0.597
            c-5.075-2.688-7.165-8.658-4.479-13.732c2.688-5.075,8.658-7.165,13.733-4.479c5.075,2.688,7.165,8.658,4.478,13.733
            C184.586,140.405,181.003,142.794,177.122,142.794z"/>
        <path className="suudal" id="suudal8_x5F_18_2_" fill="#F3808E" d="M657.776,141.897c-5.673,0-10.449-4.478-10.449-10.149
            c0-3.881,2.09-7.463,5.672-9.255c0.299-0.299,0.896-0.299,1.493-0.598c5.374-1.791,11.345,1.194,13.136,6.567
            c1.791,5.076-0.896,10.748-5.971,12.838C660.462,141.897,658.969,141.897,657.776,141.897z"/>
        <path className="suudal" id="suudal8_x5F_2_2_" fill="#F3808E" d="M150.552,131.449c-5.673,0-10.15-4.776-10.15-10.448
            c0-5.673,4.776-10.15,10.449-10.15c5.672,0,10.149,4.776,10.149,10.449c0,1.193-0.299,2.089-0.598,3.283
            C158.911,128.761,155.031,131.449,150.552,131.449z"/>
        <path className="suudal" id="suudal8_x5F_19_2_" fill="#F3808E" d="M684.345,130.851c-5.673,0-10.448-4.478-10.448-10.149
            c0-3.582,1.791-6.567,4.479-8.657c0.896-0.599,1.492-0.896,2.388-1.194c5.374-1.791,11.346,0.896,13.137,6.271
            c1.792,5.074-0.598,10.447-5.373,12.837C687.331,130.552,685.838,130.851,684.345,130.851L684.345,130.851z"/>
        <path className="suudal" id="suudal8_x5F_20_2_" fill="#F3808E" d="M710.319,118.014c-5.672,0-10.448-4.777-10.448-10.449s4.776-10.448,10.448-10.448
            c5.673,0,10.449,4.776,10.449,10.448c0,4.479-2.985,8.359-7.165,9.853C712.408,118.014,711.215,118.014,710.319,118.014z"/>
        <path className="suudal" id="suudal8_x5F_1_2_" fill="#F3808E" d="M124.579,118.911c-1.493,0-3.284-0.3-4.479-1.194
            c-5.075-2.688-6.866-8.956-4.181-14.031c2.39-4.479,7.465-6.567,12.24-5.075c0.896,0.298,1.791,0.598,2.389,1.194
            c4.776,3.283,5.972,9.553,2.985,14.33C131.147,117.418,128.161,119.21,124.579,118.911L124.579,118.911z"/>
    </g>
    <g>
        <path fill="#BCAFB0" d="M266.747,51.344h301.826c2.688,0,5.075,2.09,5.075,5.074v25.676c0,2.687-2.09,5.074-5.075,5.074H266.747
            c-2.687,0-5.075-2.09-5.075-5.074V56.418C261.971,53.731,264.061,51.344,266.747,51.344z"/>
        <path fill="#FFFFFF" d="M390.643,72.838v0.599c0,1.192,0.299,2.089,1.791,2.089c0.896,0,1.792-0.597,1.792-1.791v-0.298
            c0-3.583-7.165-1.493-7.165-7.764c0-2.687,1.491-4.775,5.373-4.775c3.88,0,5.373,2.09,5.373,4.478v0.299h-3.881
            c0-0.597,0-1.193-0.299-1.791c-0.299-0.299-0.597-0.598-1.194-0.598c-0.896,0-1.491,0.598-1.491,1.792
            c0,3.582,7.164,1.791,7.164,7.762c0,3.882-2.09,5.374-5.673,5.374c-2.687,0-5.372-0.896-5.372-4.479V72.54h3.582V72.838
            L390.643,72.838z"/>
        <path fill="#FFFFFF" d="M403.181,64.478h-3.583v-3.283h11.046v3.283h-3.582v13.435h-3.881V64.478L403.181,64.478z"/>
        <path fill="#FFFFFF" d="M414.526,61.195h4.776l4.18,16.718h-4.18l-0.598-3.284h-3.881l-0.598,3.284h-4.18L414.526,61.195z
            M416.615,64.18L416.615,64.18l-1.492,7.463h2.985L416.615,64.18z"/>
        <path fill="#FFFFFF" d="M432.139,66.27c0-1.194,0-2.688-1.492-2.688s-1.792,1.791-1.792,5.972c0,4.479,0.3,5.971,1.792,5.971
            s1.791-1.193,1.791-3.582v-0.299h-1.791v-2.688h5.373v8.956h-2.687V76.42l0,0c-0.597,1.193-2.09,2.091-3.582,1.791
            c-4.18,0-4.777-2.984-4.777-8.358s0.299-8.956,5.972-8.956c2.688-0.299,4.776,1.492,5.074,4.18c0,0.298,0,0.896,0,1.194H432.139z"
            />
        <path fill="#FFFFFF" d="M438.708,61.195h9.553v3.283h-5.672v3.284h5.374v3.283h-5.374v3.882h5.971v3.283h-9.852V61.195
            L438.708,61.195z"/>
    </g>
</svg>